<?xml version="1.0" encoding="UTF-8" standalone="no"?>
<svg
   xmlns:dc="http://purl.org/dc/elements/1.1/"
   xmlns:cc="http://creativecommons.org/ns#"
   xmlns:rdf="http://www.w3.org/1999/02/22-rdf-syntax-ns#"
   xmlns:svg="http://www.w3.org/2000/svg"
   xmlns="http://www.w3.org/2000/svg"
   xmlns:sodipodi="http://sodipodi.sourceforge.net/DTD/sodipodi-0.dtd"
   xmlns:inkscape="http://www.inkscape.org/namespaces/inkscape"
   id="Layer_5"
   enable-background="new 0 0 64 64"
   height="512"
   viewBox="0 0 64 64"
   width="512"
   version="1.1"
   sodipodi:docname="controls.svg"
   inkscape:version="1.0 (4035a4fb49, 2020-05-01)">
  <metadata
     id="metadata1299">
    <rdf:RDF>
      <cc:Work
         rdf:about="">
        <dc:format>image/svg+xml</dc:format>
        <dc:type
           rdf:resource="http://purl.org/dc/dcmitype/StillImage" />
      </cc:Work>
    </rdf:RDF>
  </metadata>
  <defs
     id="defs1297" />
  <sodipodi:namedview
     inkscape:document-rotation="0"
     pagecolor="#ffffff"
     bordercolor="#666666"
     borderopacity="1"
     objecttolerance="10"
     gridtolerance="10"
     guidetolerance="10"
     inkscape:pageopacity="0"
     inkscape:pageshadow="2"
     inkscape:window-width="1920"
     inkscape:window-height="1017"
     id="namedview1295"
     showgrid="false"
     inkscape:zoom="1.6601562"
     inkscape:cx="140.04706"
     inkscape:cy="256"
     inkscape:window-x="-8"
     inkscape:window-y="-8"
     inkscape:window-maximized="1"
     inkscape:current-layer="Layer_5" />
  <g
     id="g1292">
    <g
       id="g1228">
      <path
         d="m29 49v4h-4v4h-6v-8h-2v8 2h8 4 18v-10z"
         fill="#f0bc5e"
         id="path1226" />
    </g>
    <g
       id="g1234">
      <g
         id="g1232">
        <path
           d="m38 35h-12c-1.654 0-3-1.346-3-3v-4c0-1.654 1.346-3 3-3h12c1.654 0 3 1.346 3 3v4c0 1.654-1.346 3-3 3z"
           fill="#f0bc5e"
           id="path1230" />
      </g>
    </g>
    <g
       id="g1290">
      <path
         d="m63 41h-19.82l1.512-9.07c1.34-.188 2.504-.9 3.285-1.933.008 0 .015.003.023.003 6.065 0 11-4.935 11-11v-4.026c1.207-.914 2-2.348 2-3.974v-.162l-1.051-3.154-1.897.633.945 2.834c-.08 1.584-1.393 2.849-2.997 2.849s-2.917-1.265-2.996-2.849l.945-2.834-1.897-.633-1.052 3.154v.162c0 1.627.793 3.061 2 3.974v4.137c0 2.696-2.193 4.889-4.888 4.889-.043 0-.087.008-.13.009-.913-1.212-2.351-2.009-3.982-2.009-.526 0-1.044.096-1.549.268l-.308-.411c1.123-.918 1.857-2.296 1.857-3.857v-1h1c1.654 0 3-1.346 3-3v-4c0-1.654-1.346-3-3-3h-1v-1c0-2.757-2.243-5-5-5h-14c-2.757 0-5 2.243-5 5v1h-1c-1.654 0-3 1.346-3 3v4c0 1.654 1.346 3 3 3h1v1c0 1.561.734 2.939 1.858 3.857l-.308.411c-.506-.172-1.024-.268-1.55-.268-2.757 0-5 2.243-5 5 0 .036.01.07.011.105-1.426 1.95-3.011 4.802-3.011 7.895 0 1.774.714 3.913 1.695 6h-12.695v2h13.716c.384.694.783 1.368 1.181 2h-3.897v18h40v-18h-26.513c-.748-.173-1.522-.173-2.27.001-.166-.184-.344-.358-.553-.497-.332-.221-.772-.774-1.247-1.504h41.583zm-18-32c.551 0 1 .449 1 1v4c0 .551-.449 1-1 1h-1v-6zm-26 6c-.551 0-1-.449-1-1v-4c0-.551.449-1 1-1h1v6zm36 4.112v-3.213c.323.066.658.101 1 .101s.677-.035 1-.101v3.101c0 4.657-3.557 8.499-8.096 8.954.06-.309.096-.627.096-.954 0-.359-.042-.708-.114-1.046 3.435-.387 6.114-3.306 6.114-6.842zm-8 7.888c0 1.322-.864 2.433-2.026 2.833.012-.21.026-.419.026-.628 0-1.801-.477-3.587-1.348-5.159.116-.015.231-.046.348-.046 1.654 0 3 1.346 3 3zm-12-24-1.5 2h-3l-1.5-2zm-13 3c0-1.654 1.346-3 3-3h1.5l3 4h5l3-4h1.5c1.654 0 3 1.346 3 3v12c0 1.654-1.346 3-3 3h-14c-1.654 0-3-1.346-3-3zm17 17h1.5l.777 1.037c.012.016.022.033.033.049l.005.007c1.086 1.472 1.685 3.283 1.685 5.112 0 .472-.04.948-.117 1.416l-1.73 10.379h-18.306l-1.73-10.379c-.077-.468-.117-.944-.117-1.416 0-1.587.452-3.16 1.28-4.51l.451-.669.769-1.026h1.5zm-19 1c.117 0 .232.031.349.046-.872 1.572-1.349 3.357-1.349 5.159 0 .206.014.413.026.619-1.175-.407-2.026-1.513-2.026-2.824 0-1.654 1.346-3 3-3zm6.366 23.628 1.336 2.673 1.298-.649v1.348h2v-2h-1.712l-1-2h21.712v14h-36v-14h3.241c.622.87 1.172 1.558 1.577 2h-1.818v2h2v-1.806c.134.136.252.246.334.301.017.011.036.019.053.03-.091 1.388.372 2.806 1.43 3.865l.115.115 2.974 1.487.895-1.789-2.673-1.336c-1.064-1.176-1.03-3 .104-4.134 1.134-1.135 2.958-1.169 4.134-.105zm-5.548-1.31c-.318.318-.565.677-.78 1.05-1.578-1.904-6.038-8.426-6.038-12.368 0-1.958.811-3.855 1.748-5.403.371.606.855 1.134 1.441 1.534-.776 1.396-1.189 2.698-1.189 3.869 0 2.464 3.306 9.217 5.278 10.943-.156.122-.317.232-.46.375zm-2.818-11.318c0-.868.374-1.933 1.049-3.096.084.016.174.014.259.026l1.512 9.07h-.562c-1.181-2.244-2.258-4.903-2.258-6z"
         id="path1236" />
      <path
         d="m17 57h2v2h-2z"
         id="path1238" />
      <path
         d="m33 57h2v2h-2z"
         id="path1240" />
      <path
         d="m29 57h2v2h-2z"
         id="path1242" />
      <path
         d="m21 57h2v2h-2z"
         id="path1244" />
      <path
         d="m37 57h2v2h-2z"
         id="path1246" />
      <path
         d="m41 57h2v2h-2z"
         id="path1248" />
      <path
         d="m25 57h2v2h-2z"
         id="path1250" />
      <path
         d="m45 57h2v2h-2z"
         id="path1252" />
      <path
         d="m17 53h2v2h-2z"
         id="path1254" />
      <path
         d="m29 53h2v2h-2z"
         id="path1256" />
      <path
         d="m25 53h2v2h-2z"
         id="path1258" />
      <path
         d="m33 53h2v2h-2z"
         id="path1260" />
      <path
         d="m41 53h2v2h-2z"
         id="path1262" />
      <path
         d="m45 53h2v2h-2z"
         id="path1264" />
      <path
         d="m37 53h2v2h-2z"
         id="path1266" />
      <path
         d="m45 49h2v2h-2z"
         id="path1268" />
      <path
         d="m33 49h2v2h-2z"
         id="path1270" />
      <path
         d="m37 49h2v2h-2z"
         id="path1272" />
      <path
         d="m41 49h2v2h-2z"
         id="path1274" />
      <path
         d="m37 13c1.654 0 3-1.346 3-3s-1.346-3-3-3-3 1.346-3 3 1.346 3 3 3zm0-4c.551 0 1 .449 1 1s-.449 1-1 1-1-.449-1-1 .449-1 1-1z"
         id="path1276" />
      <path
         d="m27 13c1.654 0 3-1.346 3-3s-1.346-3-3-3-3 1.346-3 3 1.346 3 3 3zm0-4c.551 0 1 .449 1 1s-.449 1-1 1-1-.449-1-1 .449-1 1-1z"
         id="path1278" />
      <path
         d="m35.973 17-7.973-.027v-1.973h-2v1.973c0 1.117.91 2.027 2.027 2.027h7.945c1.118 0 2.028-.91 2.028-2.027v-1.973h-2z"
         id="path1280" />
      <path
         d="m25 37h2v2h-2z"
         id="path1282" />
      <path
         d="m29 37h2v2h-2z"
         id="path1284" />
      <path
         d="m33 37h2v2h-2z"
         id="path1286" />
      <path
         d="m37 37h2v2h-2z"
         id="path1288" />
    </g>
  </g>
  <path
     style="fill:#2f89e2;stroke-width:0.602353;fill-opacity:1"
     d="m 192.90571,166.58021 c -5.98694,-1.88367 -11.42447,-6.75107 -14.47553,-12.95776 l -1.63959,-3.33539 V 96.075294 41.863529 l 1.61434,-3.444293 c 3.26168,-6.959007 10.20847,-12.28528 17.89376,-13.719585 1.78451,-0.333043 5.98592,-0.593718 9.33647,-0.579277 l 6.0919,0.02626 11.9004,15.936097 11.90041,15.936097 H 256 276.47213 l 11.90041,-15.936097 11.9004,-15.936097 6.0919,-0.02626 c 3.35055,-0.01444 7.55196,0.246234 9.33647,0.579277 7.68529,1.434305 14.63208,6.760578 17.89376,13.719585 l 1.61434,3.444293 v 54.211765 54.211766 l -1.77005,3.61412 c -2.25726,4.60889 -6.86606,9.21695 -11.48171,11.47987 l -3.61412,1.77189 -61.44,0.11602 c -49.8347,0.0941 -61.92314,-0.036 -63.99782,-0.68875 z m 99.58267,-15.06848 c 4.54535,-1.34982 7.73772,-4.02933 9.85964,-8.27566 1.82673,-3.65561 1.84022,-3.75475 1.84022,-13.52522 v -9.84261 h -8.04338 -8.04338 l -0.38956,4.60853 c -0.21426,2.53468 -0.38957,6.05845 -0.38957,7.83058 v 3.22206 h -31.62353 -31.62353 v -7.83059 -7.83058 h -8.13176 -8.13177 l 0.0132,9.78823 c 0.0114,8.41766 0.17858,10.15259 1.19411,12.39034 2.24683,4.95097 5.06052,7.58238 9.89461,9.25358 2.76536,0.95601 6.23874,1.05743 36.82637,1.07524 27.96985,0.0163 34.28427,-0.13216 36.7483,-0.8639 z m -69.57653,-48.26136 c 6.76439,-1.97802 11.99581,-6.587926 15.23549,-13.425463 1.71993,-3.63002 1.88692,-4.505384 1.85278,-9.711966 -0.0293,-4.472287 -0.33815,-6.487792 -1.41368,-9.226258 C 236.65736,65.974944 231.28206,60.343528 226.34771,58.06483 222.90439,56.474694 221.98197,56.32 215.94353,56.32 c -5.92798,0 -6.98867,0.170039 -10.07018,1.61434 -9.69374,4.543456 -15.61821,15.568325 -13.82786,25.732313 1.70133,9.658635 7.89624,16.722827 17.27216,19.695817 3.37892,1.07142 9.72579,1.01908 13.5942,-0.1121 z m 83.89372,-1.64911 C 314.1065,97.992939 318.4823,92.024537 319.95451,83.666653 321.74487,73.502665 315.82039,62.477796 306.12665,57.93434 303.04514,56.490039 301.98444,56.32 296.05647,56.32 c -6.03844,0 -6.96086,0.154694 -10.40418,1.74483 -4.93435,2.278698 -10.30965,7.910114 -12.23873,12.821853 -1.07553,2.738466 -1.38435,4.753971 -1.41368,9.226258 -0.034,5.193041 0.13534,6.087156 1.83136,9.666181 4.63152,9.773712 12.54252,14.626598 23.22544,14.247288 4.60413,-0.16347 5.74888,-0.44824 9.74889,-2.42515 z"
     id="path1301"
     transform="scale(0.125)" />
  <path
     style="fill:#2f89e2;fill-opacity:1;stroke-width:0.602353"
     d="m 238.49992,32.075294 -5.77661,-7.68 11.44787,-0.163455 c 6.29633,-0.0899 16.77082,-0.0899 23.27666,0 l 11.8288,0.163455 -5.77659,7.68 -5.77658,7.68 H 256 244.27653 Z"
     id="path1866"
     transform="scale(0.125)" />
  <path
     style="fill:#2f89e2;fill-opacity:1;stroke-width:0.602353"
     d="m 213.90716,87.305592 c -3.95418,-1.150091 -6.43811,-5.524731 -5.22466,-9.201531 2.1996,-6.664835 10.69785,-7.60941 14.02345,-1.558696 3.08656,5.615785 -2.5955,12.564488 -8.79879,10.760227 z"
     id="path1868"
     transform="scale(0.125)" />
  <path
     style="fill:#2f89e2;fill-opacity:1;stroke-width:0.602353"
     d="m 294.0201,87.305592 c -5.63976,-1.640352 -7.45022,-8.45574 -3.33847,-12.567492 3.47668,-3.476677 8.5183,-2.89695 11.63977,1.338434 3.91854,5.316895 -1.8412,13.108012 -8.3013,11.229058 z"
     id="path1870"
     transform="scale(0.125)" />
  <path
     style="fill:#ffffff;fill-opacity:0;stroke-width:0.602353"
     d="m 192.64703,165.98468 c -5.51529,-1.72453 -10.83848,-6.62626 -14.00225,-12.89366 l -1.85419,-3.67314 V 96.109646 42.801409 l 1.48095,-3.348697 c 2.07305,-4.687529 7.43155,-10.122534 12.33701,-12.51315 3.78183,-1.843028 4.319,-1.934907 12.51383,-2.14042 l 8.56239,-0.21473 11.61644,15.692042 11.61644,15.692042 21.08235,0.0058 21.08235,0.0058 11.62296,-15.697731 11.62296,-15.697731 8.55586,0.234947 c 7.71141,0.211758 8.89955,0.393169 12.03798,1.83802 4.75175,2.187581 10.07146,7.392469 12.40945,12.141603 l 1.87785,3.814428 V 96.0158 149.41788 l -1.86469,3.69394 c -2.42546,4.8048 -6.91535,9.50088 -11.33694,11.85757 l -3.5317,1.88237 -61.65687,-0.0403 c -48.95239,-0.032 -62.17514,-0.20235 -64.17218,-0.82679 z m 103.39341,-15.76056 c 3.59213,-2.03746 6.78694,-6.02427 7.82632,-9.76649 0.33876,-1.21969 0.61745,-6.35128 0.61929,-11.40351 l 0.003,-9.18588 h -8.34455 -8.34456 l -0.38956,4.60853 c -0.21426,2.53468 -0.38956,6.05845 -0.38956,7.83058 v 3.22206 h -31.32236 -31.32235 v -7.83059 -7.83058 h -8.49254 -8.49255 l 0.21019,10.39058 c 0.20871,10.31738 0.22328,10.41393 2.06793,13.70353 1.9443,3.4673 5.93063,6.73262 9.50548,7.7862 1.08094,0.31858 17.21497,0.51147 37.72855,0.45108 l 35.84,-0.10551 z m -69.10836,-48.30523 c 4.77637,-2.3514 8.91288,-6.66241 11.38676,-11.867125 1.54069,-3.24137 1.7179,-4.248564 1.71833,-9.76564 6.5e-4,-8.448462 -1.22714,-11.638411 -6.5471,-17.010051 -2.19648,-2.217815 -5.34889,-4.69022 -7.00536,-5.494233 -2.6968,-1.30896 -3.7992,-1.461841 -10.54118,-1.461841 -6.73611,0 -7.83608,0.152234 -10.44008,1.444895 -9.62902,4.779967 -15.42397,15.75112 -13.6625,25.866203 1.63058,9.363516 7.25068,16.250386 15.86772,19.444312 2.46704,0.91441 4.37486,1.11855 9.17326,0.98157 5.43392,-0.15513 6.46987,-0.37552 10.05015,-2.13809 z m 80.4134,-0.36614 c 7.02446,-3.717387 10.99189,-9.039693 12.5937,-16.89446 1.10444,-5.415828 0.55628,-9.897474 -1.85475,-15.163846 -1.85656,-4.055281 -7.40182,-9.704322 -11.48678,-11.701766 C 303.89233,56.469846 302.81976,56.32 296.05647,56.32 c -6.74198,0 -7.84438,0.152881 -10.54118,1.461841 -1.65647,0.804013 -4.80888,3.276418 -7.00535,5.494233 -5.31997,5.37164 -6.54776,8.561589 -6.54711,17.010051 4.3e-4,5.553187 0.17236,6.514843 1.7676,9.886881 3.00769,6.357661 8.30537,11.122634 14.66775,13.192814 1.64179,0.53421 4.66575,0.76753 8.56182,0.66061 5.67202,-0.15566 6.27808,-0.30001 10.38548,-2.47368 z"
     id="path1872"
     transform="scale(0.125)" />
  <path
     style="fill:#ffffff;fill-opacity:0;stroke-width:0.602353"
     d="m 192.64703,165.98468 c -5.51529,-1.72453 -10.83848,-6.62626 -14.00225,-12.89366 l -1.85419,-3.67314 V 96.109646 42.801409 l 1.48095,-3.348697 c 2.07305,-4.687529 7.43155,-10.122534 12.33701,-12.51315 3.78183,-1.843028 4.319,-1.934907 12.51383,-2.14042 l 8.56239,-0.21473 11.61644,15.692042 11.61644,15.692042 21.08235,0.0058 21.08235,0.0058 11.62296,-15.697731 11.62296,-15.697731 8.55586,0.234947 c 7.71141,0.211758 8.89955,0.393169 12.03798,1.83802 4.75175,2.187581 10.07146,7.392469 12.40945,12.141603 l 1.87785,3.814428 V 96.0158 149.41788 l -1.86469,3.69394 c -2.42546,4.8048 -6.91535,9.50088 -11.33694,11.85757 l -3.5317,1.88237 -61.65687,-0.0403 c -48.95239,-0.032 -62.17514,-0.20235 -64.17218,-0.82679 z m 103.39341,-15.76056 c 3.59213,-2.03746 6.78694,-6.02427 7.82632,-9.76649 0.33876,-1.21969 0.61745,-6.35128 0.61929,-11.40351 l 0.003,-9.18588 h -8.34455 -8.34456 l -0.38956,4.60853 c -0.21426,2.53468 -0.38956,6.05845 -0.38956,7.83058 v 3.22206 h -31.32236 -31.32235 v -7.83059 -7.83058 h -8.49254 -8.49255 l 0.21019,10.39058 c 0.20871,10.31738 0.22328,10.41393 2.06793,13.70353 1.9443,3.4673 5.93063,6.73262 9.50548,7.7862 1.08094,0.31858 17.21497,0.51147 37.72855,0.45108 l 35.84,-0.10551 z m -69.10836,-48.30523 c 4.77637,-2.3514 8.91288,-6.66241 11.38676,-11.867125 1.54069,-3.24137 1.7179,-4.248564 1.71833,-9.76564 6.5e-4,-8.448462 -1.22714,-11.638411 -6.5471,-17.010051 -2.19648,-2.217815 -5.34889,-4.69022 -7.00536,-5.494233 -2.6968,-1.30896 -3.7992,-1.461841 -10.54118,-1.461841 -6.73611,0 -7.83608,0.152234 -10.44008,1.444895 -9.62902,4.779967 -15.42397,15.75112 -13.6625,25.866203 1.63058,9.363516 7.25068,16.250386 15.86772,19.444312 2.46704,0.91441 4.37486,1.11855 9.17326,0.98157 5.43392,-0.15513 6.46987,-0.37552 10.05015,-2.13809 z m 80.4134,-0.36614 c 7.02446,-3.717387 10.99189,-9.039693 12.5937,-16.89446 1.10444,-5.415828 0.55628,-9.897474 -1.85475,-15.163846 -1.85656,-4.055281 -7.40182,-9.704322 -11.48678,-11.701766 C 303.89233,56.469846 302.81976,56.32 296.05647,56.32 c -6.74198,0 -7.84438,0.152881 -10.54118,1.461841 -1.65647,0.804013 -4.80888,3.276418 -7.00535,5.494233 -5.31997,5.37164 -6.54776,8.561589 -6.54711,17.010051 4.3e-4,5.553187 0.17236,6.514843 1.7676,9.886881 3.00769,6.357661 8.30537,11.122634 14.66775,13.192814 1.64179,0.53421 4.66575,0.76753 8.56182,0.66061 5.67202,-0.15566 6.27808,-0.30001 10.38548,-2.47368 z"
     id="path1874"
     transform="scale(0.125)" />
  <path
     style="fill:#ffffff;fill-opacity:1;stroke-width:0.602353"
     d="m 192.64703,165.98468 c -5.51529,-1.72453 -10.83848,-6.62626 -14.00225,-12.89366 l -1.85419,-3.67314 V 96.109646 42.801409 l 1.48095,-3.348697 c 2.07305,-4.687529 7.43155,-10.122534 12.33701,-12.51315 3.78183,-1.843028 4.319,-1.934907 12.51383,-2.14042 l 8.56239,-0.21473 11.61644,15.692042 11.61644,15.692042 21.08235,0.0058 21.08235,0.0058 11.62296,-15.697731 11.62296,-15.697731 8.55586,0.234947 c 7.71141,0.211758 8.89955,0.393169 12.03798,1.83802 4.75175,2.187581 10.07146,7.392469 12.40945,12.141603 l 1.87785,3.814428 V 96.0158 149.41788 l -1.86469,3.69394 c -2.42546,4.8048 -6.91535,9.50088 -11.33694,11.85757 l -3.5317,1.88237 -61.65687,-0.0403 c -48.95239,-0.032 -62.17514,-0.20235 -64.17218,-0.82679 z m 103.39341,-15.76056 c 3.59213,-2.03746 6.78694,-6.02427 7.82632,-9.76649 0.33876,-1.21969 0.61745,-6.35128 0.61929,-11.40351 l 0.003,-9.18588 h -8.34455 -8.34456 l -0.38956,4.60853 c -0.21426,2.53468 -0.38956,6.05845 -0.38956,7.83058 v 3.22206 h -31.32236 -31.32235 v -7.83059 -7.83058 h -8.49254 -8.49255 l 0.21019,10.39058 c 0.20871,10.31738 0.22328,10.41393 2.06793,13.70353 1.9443,3.4673 5.93063,6.73262 9.50548,7.7862 1.08094,0.31858 17.21497,0.51147 37.72855,0.45108 l 35.84,-0.10551 z m -69.10836,-48.30523 c 4.77637,-2.3514 8.91288,-6.66241 11.38676,-11.867125 1.54069,-3.24137 1.7179,-4.248564 1.71833,-9.76564 6.5e-4,-8.448462 -1.22714,-11.638411 -6.5471,-17.010051 -2.19648,-2.217815 -5.34889,-4.69022 -7.00536,-5.494233 -2.6968,-1.30896 -3.7992,-1.461841 -10.54118,-1.461841 -6.73611,0 -7.83608,0.152234 -10.44008,1.444895 -9.62902,4.779967 -15.42397,15.75112 -13.6625,25.866203 1.63058,9.363516 7.25068,16.250386 15.86772,19.444312 2.46704,0.91441 4.37486,1.11855 9.17326,0.98157 5.43392,-0.15513 6.46987,-0.37552 10.05015,-2.13809 z m 80.4134,-0.36614 c 7.02446,-3.717387 10.99189,-9.039693 12.5937,-16.89446 1.10444,-5.415828 0.55628,-9.897474 -1.85475,-15.163846 -1.85656,-4.055281 -7.40182,-9.704322 -11.48678,-11.701766 C 303.89233,56.469846 302.81976,56.32 296.05647,56.32 c -6.74198,0 -7.84438,0.152881 -10.54118,1.461841 -1.65647,0.804013 -4.80888,3.276418 -7.00535,5.494233 -5.31997,5.37164 -6.54776,8.561589 -6.54711,17.010051 4.3e-4,5.553187 0.17236,6.514843 1.7676,9.886881 3.00769,6.357661 8.30537,11.122634 14.66775,13.192814 1.64179,0.53421 4.66575,0.76753 8.56182,0.66061 5.67202,-0.15566 6.27808,-0.30001 10.38548,-2.47368 z"
     id="path1876"
     transform="scale(0.125)" />
  <path
     style="fill:#ffffff;fill-opacity:1;stroke-width:0.602353"
     d="m 240.33882,166.26169 -47.58588,-0.31345 -3.21618,-1.7815 c -3.99875,-2.21498 -8.20674,-6.75643 -10.95043,-11.81819 L 176.48941,148.48 V 96.075294 43.670588 l 2.34127,-4.38197 c 2.83046,-5.297545 7.61428,-9.894181 12.71756,-12.21993 3.18268,-1.450467 4.58484,-1.687231 11.74588,-1.98337 l 8.13176,-0.336282 11.44471,15.596766 11.4447,15.596767 21.68471,0.009 21.68471,0.009 10.84235,-14.746664 c 5.96329,-8.110665 11.14196,-15.143283 11.50816,-15.62804 0.56222,-0.74426 2.02063,-0.803108 9.37469,-0.378274 8.24521,0.476314 8.909,0.609751 12.46708,2.50619 4.48225,2.389013 9.0388,7.166538 11.71132,12.279277 l 1.92228,3.677471 V 96.075294 148.48 l -2.03491,3.75221 c -2.67506,4.9326 -7.34704,9.89205 -11.78377,12.50884 l -3.57868,2.11071 -15.09426,-0.13831 c -8.30185,-0.0761 -36.50791,-0.27937 -62.68015,-0.45176 z m 55.97675,-15.92173 c 1.76716,-1.13043 3.91422,-2.97467 4.77126,-4.0983 3.04796,-3.99609 3.40258,-5.7069 3.40258,-16.41525 v -9.95817 h -8.35765 -8.35764 l -0.37647,1.88235 c -0.20706,1.03529 -0.37647,4.55906 -0.37647,7.83059 v 5.94823 h -31.32236 -31.32235 v -7.83059 -7.83058 h -8.69289 -8.69289 l 0.33067,10.08941 c 0.36409,11.10911 0.9028,13.23603 4.34559,17.15715 1.05646,1.20325 3.31727,2.88359 5.02403,3.7341 l 3.1032,1.54639 h 36.6542 36.65419 z M 226.85473,102.2451 c 4.44833,-2.18455 9.13886,-6.955696 11.44654,-11.643279 1.83192,-3.721131 1.85641,-3.892121 1.64738,-11.500145 -0.19506,-7.099864 -0.34311,-7.945568 -1.83527,-10.483737 -1.81271,-3.083436 -8.5018,-9.612039 -11.49039,-11.214705 -2.80785,-1.505743 -15.58671,-1.878009 -19.43662,-0.566215 -6.43909,2.194019 -12.53962,8.781773 -14.7453,15.922959 -3.75622,12.161197 2.57971,25.612799 14.26059,30.276232 2.39228,0.95508 4.16356,1.1381 9.84422,1.01715 6.17345,-0.13143 7.29498,-0.32816 10.30885,-1.80826 z m 79.30918,0.17148 c 12.07253,-5.711261 17.47273,-19.036955 12.7774,-31.529897 -1.54332,-4.10635 -7.10111,-10.422314 -11.38984,-12.943596 -2.65525,-1.560986 -3.09506,-1.623087 -11.495,-1.623087 -7.2104,0 -9.07349,0.185486 -10.67946,1.063224 -3.01973,1.650426 -9.69006,8.172334 -11.49039,11.234715 -1.4693,2.499296 -1.64364,3.440662 -1.83999,9.935456 -0.12772,4.225195 0.0607,8.101027 0.45833,9.428233 1.06845,3.566177 5.26948,9.341735 8.54275,11.744533 4.82889,3.544729 7.78148,4.420599 15.00876,4.452249 5.79393,0.0254 6.64216,-0.12248 10.10744,-1.76183 z"
     id="path1878"
     transform="scale(0.125)" />
  <path
     style="fill:#ffffff;fill-opacity:1;stroke-width:0.602353"
     d="m 240.33882,166.26003 -47.58588,-0.31179 -3.21618,-1.7815 c -3.99875,-2.21498 -8.20674,-6.75643 -10.95043,-11.81819 L 176.48941,148.48 V 96.075294 43.670588 l 2.34127,-4.38197 c 2.83046,-5.297545 7.61428,-9.894181 12.71756,-12.21993 3.17643,-1.447618 4.59891,-1.689061 11.74588,-1.993678 l 8.13176,-0.34659 11.44471,15.609178 11.4447,15.609177 L 256,55.946112 277.68471,55.94545 288.52706,41.212541 c 5.96329,-8.103099 11.14196,-15.132301 11.50816,-15.620448 0.56418,-0.752082 1.99496,-0.810756 9.37469,-0.384439 8.24521,0.476314 8.909,0.609752 12.46708,2.50619 4.48225,2.389013 9.0388,7.166538 11.71132,12.279277 l 1.92228,3.677467 V 96.075294 148.48 l -2.03491,3.75221 c -2.67506,4.9326 -7.34704,9.89205 -11.78377,12.50884 l -3.57868,2.11071 -15.09426,-0.13997 c -8.30185,-0.077 -36.50791,-0.28028 -62.68015,-0.45176 z m 55.97675,-15.92007 c 3.601,-2.30352 6.11334,-5.26953 7.31443,-8.63521 0.54289,-1.52125 0.81517,-5.45974 0.83297,-12.04828 l 0.0264,-9.78823 h -8.35765 -8.35764 l -0.37647,1.88235 c -0.20706,1.03529 -0.37647,4.55906 -0.37647,7.83059 v 5.94823 h -31.32236 -31.32235 v -7.83059 -7.83058 h -8.72955 -8.72955 l 0.31696,8.28235 c 0.17432,4.55529 0.44442,9.48017 0.60021,10.94417 0.52244,4.90931 4.37394,9.78664 9.61487,12.17574 2.24618,1.02392 4.89055,1.09923 39.03129,1.11157 l 36.62187,0.0132 3.213,-2.05533 z m -69.96428,-47.78575 c 4.07463,-1.84931 9.70285,-7.433754 11.87702,-11.784639 1.68657,-3.375122 1.80934,-4.077044 1.80934,-10.34436 0,-9.538101 -0.74803,-11.430207 -6.95616,-17.59541 -6.25557,-6.212315 -8.4631,-7.012218 -18.52209,-6.711515 -5.76326,0.172287 -7.17707,0.421017 -9.69131,1.70498 -5.97543,3.051513 -11.41839,10.152588 -12.9826,16.937564 -2.6529,11.507291 4.29332,24.290365 15.53161,28.5827 3.5543,1.35751 15.28112,0.86865 18.93419,-0.78932 z m 80.99147,-0.6982 c 11.26491,-6.071676 16.08815,-19.02284 11.56596,-31.056433 -1.05908,-2.818221 -2.35075,-4.592268 -6.00215,-8.243668 -5.98067,-5.98067 -8.34649,-6.79547 -18.66307,-6.427646 -6.72981,0.239943 -7.17712,0.338325 -10.11765,2.225256 -4.50861,2.893165 -10.00984,9.027528 -11.18272,12.469709 -0.67564,1.982911 -0.98078,4.970232 -0.98078,9.601983 0,6.264009 0.12276,6.966846 1.79607,10.283287 2.816,5.58118 7.68541,10.176792 13.07751,12.342192 2.38739,0.95875 4.11206,1.13373 9.82289,0.99658 6.56369,-0.15762 7.12414,-0.27257 10.68394,-2.19126 z"
     id="path1880"
     transform="scale(0.125)" />
  <path
     style="fill:#ffffff;fill-opacity:1;stroke-width:0.602353"
     d="m 236.72471,166.26083 -43.97177,-0.31259 -3.21618,-1.7815 c -3.99875,-2.21498 -8.20674,-6.75643 -10.95043,-11.81819 L 176.48941,148.48 V 96.075294 43.670588 l 2.31588,-4.333639 c 2.86232,-5.356192 7.54283,-9.897483 12.58722,-12.212829 3.4628,-1.589405 4.43915,-1.746467 11.98758,-1.928404 l 8.21774,-0.198069 11.37551,15.36 11.37551,15.36 21.52591,0.158206 21.52591,0.158206 10.85887,-14.614676 c 5.97237,-8.038073 11.18639,-15.093122 11.58672,-15.677887 0.66781,-0.975499 1.45155,-1.020622 9.5002,-0.546975 8.30489,0.488726 8.97261,0.622976 12.53053,2.519324 4.48225,2.389014 9.0388,7.166538 11.71132,12.279277 l 1.92228,3.677466 V 96.075294 148.48 l -2.03491,3.75221 c -2.67506,4.9326 -7.34704,9.89205 -11.78377,12.50884 l -3.57868,2.11071 -18.70838,-0.13916 c -10.28961,-0.0765 -38.49567,-0.27984 -62.68014,-0.45177 z m 59.70984,-16.05119 c 6.88253,-4.56836 7.99292,-7.41103 8.02842,-20.55317 l 0.0264,-9.78823 h -8.35765 -8.35764 l -0.37647,1.88235 c -0.20706,1.03529 -0.37647,4.55906 -0.37647,7.83059 v 5.94823 h -31.32236 -31.32235 v -7.83059 -7.83058 h -8.72903 -8.72903 l 0.31173,7.37882 c 0.65491,15.50221 1.25211,17.53296 6.34144,21.56379 4.55481,3.60747 3.60352,3.52918 43.22987,3.55801 l 36.34027,0.0264 3.29283,-2.18566 z M 226.48471,102.3768 c 4.07846,-1.92791 9.93671,-7.88302 11.93973,-12.137143 1.42572,-3.028047 1.61321,-4.152899 1.61321,-9.67891 0,-9.327391 -0.87253,-11.63695 -6.52391,-17.268597 -6.57211,-6.549159 -7.63807,-6.97215 -17.57021,-6.97215 -7.62772,0 -8.31852,0.09861 -11.14476,1.590932 -4.07836,2.15347 -9.01013,7.517881 -11.1857,12.166981 -5.92537,12.662224 0.66623,28.343992 13.94516,33.176297 4.14868,1.50973 14.93428,1.00973 18.92648,-0.87741 z m 80.36534,-0.29123 c 4.97235,-2.732524 8.81199,-6.514475 10.88127,-10.717773 5.15415,-10.469586 3.50073,-20.393621 -4.78914,-28.745106 C 307.16835,56.805946 305.86644,56.32 296.05647,56.32 c -9.83876,0 -10.99926,0.446121 -17.20499,6.613941 -5.86498,5.829152 -6.5002,7.368972 -6.78325,16.442987 -0.21942,7.034529 -0.15193,7.556727 1.38183,10.691618 1.84303,3.767013 6.6198,9.250383 9.73622,11.176434 3.8209,2.36145 6.74489,2.95358 13.77372,2.78928 6.06651,-0.1418 6.90145,-0.30631 9.89005,-1.94869 z"
     id="path1882"
     transform="scale(0.125)" />
  <path
     style="fill:#ffffff;fill-opacity:1;stroke-width:0.602353"
     d="m 234.01412,166.2596 -41.26118,-0.31136 -3.21618,-1.7815 c -3.99875,-2.21498 -8.20674,-6.75643 -10.95043,-11.81819 L 176.48941,148.48 V 96.075294 43.670588 l 2.31588,-4.333639 c 2.86232,-5.356192 7.54283,-9.897483 12.58722,-12.212829 3.46447,-1.590171 4.43704,-1.746379 12.00648,-1.928404 l 8.23663,-0.198069 11.36154,15.36 11.36153,15.36 h 21.64307 21.64306 l 10.72263,-14.456471 c 5.89745,-7.951058 11.05841,-14.9516 11.46879,-15.55676 0.69567,-1.025841 1.33685,-1.062112 9.47613,-0.536057 7.10829,0.459418 9.28945,0.82617 11.74175,1.974314 4.0812,1.910783 9.93661,7.864514 12.42445,12.633072 l 2.03202,3.894843 V 96.075294 148.48 l -2.03491,3.75221 c -2.67506,4.9326 -7.34704,9.89205 -11.78377,12.50884 l -3.57868,2.11071 -21.41897,-0.14039 c -11.78043,-0.0772 -39.9865,-0.28051 -62.68014,-0.45177 z m 62.55239,-16.21103 c 4.03473,-2.73994 6.40913,-5.90593 7.27494,-9.70033 0.34018,-1.49083 0.62514,-6.70871 0.63323,-11.5953 l 0.0147,-8.8847 h -8.35413 -8.35413 l -0.37335,2.25882 c -0.20535,1.24235 -0.37635,4.76612 -0.37999,7.83059 l -0.007,5.57176 h -31.32236 -31.32235 v -7.83059 -7.83058 h -8.73677 -8.73678 l 0.31933,7.07764 c 0.69849,15.48192 1.33358,17.73382 6.10375,21.6426 4.53326,3.71468 4.61028,3.72126 44.06235,3.76616 l 35.72246,0.0407 3.4557,-2.34672 z m -70.09619,-47.86568 c 4.11437,-1.88362 9.60036,-7.274107 11.76027,-11.555541 1.37597,-2.727484 1.50588,-3.660523 1.50588,-10.815584 0,-9.325996 -0.65091,-11.002463 -6.57011,-16.921656 -5.93724,-5.937237 -7.55087,-6.552026 -17.22283,-6.56185 -7.86349,-0.008 -8.23631,0.04966 -11.30064,1.747491 -3.9177,2.170646 -8.55653,6.994026 -10.59473,11.016223 -6.64039,13.104171 -0.16825,29.001691 13.97092,34.316787 1.5418,0.57958 4.12305,0.75576 8.60852,0.58756 5.30112,-0.19879 6.99928,-0.51166 9.84272,-1.81343 z m 80.43239,-0.11721 c 12.216,-6.548731 17.07773,-21.076832 11.04028,-32.991183 -1.88414,-3.718163 -7.42868,-9.385089 -11.07139,-11.315764 -2.43763,-1.291973 -3.42805,-1.422215 -10.81513,-1.422215 -9.67225,0 -11.28164,0.612404 -17.22283,6.553591 -5.59887,5.59887 -6.43877,7.634643 -6.75011,16.361136 -0.24605,6.896845 -0.17711,7.443944 1.34288,10.656955 1.88648,3.987673 6.20022,8.978456 9.64226,11.15558 4.11405,2.6022 6.69425,3.15103 13.89522,2.95567 6.00399,-0.16288 6.94209,-0.3473 9.93882,-1.95377 z"
     id="path1884"
     transform="scale(0.125)" />
  <path
     style="fill:#ffffff;fill-opacity:1;stroke-width:0.602353"
     d="m 228.59294,166.2588 c -41.11376,-0.35627 -37.87924,0.10403 -44.31506,-6.3064 -2.37189,-2.36253 -4.43491,-5.20428 -5.87294,-8.0898 l -2.2167,-4.44799 V 96.064114 44.713617 l 2.39737,-4.789818 c 2.92115,-5.836277 7.42583,-10.334524 12.8069,-12.788625 3.33459,-1.52078 4.70916,-1.763743 11.90556,-2.104376 l 8.13572,-0.385094 11.46976,15.535972 11.46975,15.535971 h 21.63401 21.634 l 11.34418,-15.36 c 6.23929,-8.448 11.7146,-15.443133 12.16734,-15.544741 0.45274,-0.101607 4.48103,0.06549 8.95177,0.371327 6.48806,0.443839 8.71718,0.838543 11.04494,1.9557 4.43725,2.129563 10.04682,8.070639 12.54783,13.289379 l 2.11439,4.411995 v 51.286651 51.286652 l -2.09239,4.18246 c -2.6022,5.20148 -7.34042,10.37956 -12.02746,13.14398 l -3.57868,2.11071 -26.84015,-0.14119 c -14.76208,-0.0777 -42.96814,-0.28096 -62.68014,-0.45177 z m 67.91292,-16.26644 c 6.67684,-4.45863 7.98355,-8.0224 7.98355,-21.7734 v -8.35072 h -8.35413 -8.35413 l -0.37335,2.25882 c -0.20535,1.24235 -0.37635,4.76612 -0.37999,7.83059 l -0.007,5.57176 H 255.69845 224.3761 v -7.83059 -7.83058 h -8.74627 -8.74628 l 0.32614,5.87294 c 0.70601,12.71325 0.95095,15.18285 1.66837,16.82143 2.22349,5.0784 6.69933,8.5819 11.80206,9.23814 1.86714,0.24012 18.88203,0.47213 37.81087,0.51556 l 34.41606,0.079 z m -69.98427,-47.83294 c 4.05479,-1.85635 9.20312,-6.895869 11.49748,-11.254501 1.63704,-3.109906 1.71648,-3.628965 1.69772,-11.093154 -0.0236,-9.39413 -0.70793,-11.136117 -6.67679,-16.996401 -6.03511,-5.925325 -7.43341,-6.454578 -17.09647,-6.470982 -7.88743,-0.01339 -8.2284,0.03957 -11.34794,1.762404 -6.21161,3.430505 -11.36397,10.643938 -12.82572,17.956336 -1.8642,9.32563 3.60803,20.738827 12.18063,25.404618 4.48031,2.43849 6.04958,2.73266 13.07304,2.45057 4.9849,-0.2002 6.84638,-0.54491 9.49805,-1.75889 z m 80.04972,-0.0213 c 4.45841,-2.181304 9.34744,-7.024968 11.32562,-11.220531 4.76157,-10.098933 3.01751,-20.153883 -4.89907,-28.244418 -1.8653,-1.906276 -4.61053,-4.108112 -6.10053,-4.89297 -2.46775,-1.299885 -3.43353,-1.425598 -10.84086,-1.411122 -9.67431,0.01891 -11.09595,0.554944 -17.09647,6.446305 -5.59547,5.493689 -6.51483,7.661249 -6.86797,16.192573 -0.28352,6.849596 -0.24515,7.122962 1.52194,10.842353 2.15457,4.534946 5.2474,8.236779 9.09133,10.88147 4.02296,2.76787 7.23335,3.50036 14.34198,3.27231 5.21659,-0.16736 6.61028,-0.44041 9.52403,-1.86597 z"
     id="path1886"
     transform="scale(0.125)" />
  <path
     style="fill:#ffffff;fill-opacity:1;stroke-width:0.602353"
     d="m 225.58118,166.2596 -32.82824,-0.31136 -2.92436,-1.49362 c -3.93136,-2.00795 -8.8427,-7.45007 -11.47883,-12.71939 l -2.16151,-4.32062 V 95.935753 44.456894 l 2.45206,-4.713173 c 2.99202,-5.751047 7.49802,-10.209135 12.75221,-12.616619 3.33299,-1.527183 4.71217,-1.773643 11.90161,-2.126821 l 8.13176,-0.399469 11.50794,15.558418 11.50793,15.558417 h 21.57387 21.57387 l 11.34966,-15.36 c 8.48997,-11.489865 11.70168,-15.405574 12.74684,-15.540875 0.76846,-0.09948 4.81343,0.07124 8.98882,0.37937 5.85287,0.43193 8.25577,0.877152 10.49135,1.943894 3.86042,1.842055 10.29084,8.479808 12.53737,12.94159 l 1.80706,3.588962 0.16376,51.802353 0.16376,51.802349 -2.09331,4.21647 c -2.70343,5.44541 -6.58742,9.8122 -11.47004,12.89586 l -3.9017,2.46414 -29.98183,-0.1404 c -16.49,-0.0772 -44.75452,-0.28052 -62.81005,-0.45176 z m 69.9056,-15.59306 c 1.47286,-0.95081 3.54513,-2.64493 4.60505,-3.7647 3.44272,-3.63716 3.98302,-5.77927 4.27382,-16.94419 l 0.26278,-10.08941 h -8.42058 -8.42057 l -0.38306,2.79465 c -0.21067,1.53707 -0.38304,5.06083 -0.38304,7.83059 v 5.03593 h -31.32236 -31.32235 v -7.83059 -7.83058 h -8.73763 -8.73763 l 0.30469,5.12 c 0.16758,2.816 0.44457,7.49176 0.61553,10.39058 0.46693,7.91713 2.7756,11.95387 8.72445,15.25487 2.45791,1.36389 7.68272,1.56737 42.79972,1.66683 l 33.46325,0.0948 z m -68.89294,-48.6002 c 3.87921,-1.89112 8.99449,-6.934746 11.35429,-11.195237 1.71771,-3.101232 1.78789,-3.526126 1.77707,-10.758162 -0.0139,-9.287303 -0.82654,-11.401294 -6.60346,-17.178214 -5.78565,-5.785656 -7.83421,-6.553426 -17.47939,-6.551035 -9.26866,0.0023 -11.08686,0.680784 -16.57605,6.185605 -9.93605,9.964333 -10.05776,25.011851 -0.28143,34.795388 5.48428,5.488325 9.66349,6.946705 18.66454,6.513195 4.82267,-0.23226 6.64572,-0.59341 9.14443,-1.81154 z m 80.23605,-0.0993 c 9.34816,-4.694947 15.17978,-15.969253 13.36196,-25.832787 -0.95325,-5.172395 -3.2496,-9.373289 -7.38346,-13.507144 -5.63263,-5.63263 -7.11752,-6.193168 -16.45074,-6.210063 -9.66308,-0.01749 -11.70599,0.744262 -17.47939,6.517671 -5.38067,5.380669 -6.40667,7.854332 -6.78159,16.350356 -0.28847,6.536839 -0.24197,6.862808 1.50696,10.562894 3.23232,6.838404 8.70419,11.731963 15.18205,13.577473 1.80497,0.51424 4.81184,0.68665 8.73083,0.50063 4.98623,-0.23668 6.53096,-0.5616 9.31338,-1.95903 z"
     id="path1888"
     transform="scale(0.125)" />
  <path
     style="fill:#ffffff;fill-opacity:1;stroke-width:0.602353"
     d="m 149.09436,118.81318 c -1.15293,-0.57925 -2.71151,-1.97421 -3.46353,-3.0999 -1.34333,-2.01085 -1.3673,-2.35418 -1.3673,-19.585873 0,-15.836138 0.10687,-17.738416 1.10066,-19.59144 1.6615,-3.098048 4.34635,-4.253614 9.88288,-4.253614 h 4.67764 v 23.792941 23.792946 l -4.36706,-9.7e-4 c -2.95521,-6.6e-4 -5.04477,-0.34142 -6.46329,-1.05412 z"
     id="path1890"
     transform="scale(0.125)" />
  <path
     style="fill:#e1e1e1;fill-opacity:1;stroke-width:0.602353"
     d="M 352.07529,96.075294 V 72.282353 h 4.67764 c 5.53653,0 8.22138,1.155566 9.88288,4.253614 0.99379,1.853024 1.10066,3.755302 1.10066,19.59144 0,17.231693 -0.024,17.575023 -1.3673,19.585873 -2.00568,3.00232 -4.75524,4.15291 -9.92682,4.15402 l -4.36706,9.4e-4 z"
     id="path1892"
     transform="scale(0.125)" />
  <path
     style="fill:#e1e1e1;fill-opacity:1;stroke-width:0.602353"
     d="m 148.16652,236.18349 c -3.94436,-2.26249 -7.82901,-6.52972 -9.8299,-10.79799 -1.40037,-2.98726 -1.6025,-4.17821 -1.6025,-9.44197 0,-5.56372 0.14825,-6.3265 1.94216,-9.99251 2.22513,-4.54721 6.34332,-8.72586 10.85061,-11.00987 3.58914,-1.81876 10.73559,-3.29608 11.62792,-2.40375 0.39861,0.39861 -0.0381,2.002 -1.30049,4.7749 -4.88749,10.73545 -7.68343,22.68275 -7.91859,33.83686 -0.0785,3.72498 -0.27832,6.77185 -0.44397,6.77082 -0.16564,-0.001 -1.662,-0.78245 -3.32524,-1.73649 z"
     id="path1894"
     transform="scale(0.125)" />
  <path
     style="fill:#e1e1e1;fill-opacity:1;stroke-width:0.602353"
     d="m 360.07593,231.16743 c -0.21473,-11.061 -3.03576,-23.10432 -7.93025,-33.85513 -1.2624,-2.7729 -1.6991,-4.37629 -1.30049,-4.7749 0.89233,-0.89233 8.03878,0.58499 11.62792,2.40375 4.50729,2.28401 8.62548,6.46266 10.85061,11.00987 1.79391,3.66601 1.94216,4.42879 1.94216,9.99251 0,5.27467 -0.2007,6.45173 -1.61434,9.46782 -1.90221,4.05848 -6.19724,8.85118 -9.85097,10.99241 -1.43183,0.83911 -2.82612,1.52393 -3.09842,1.52182 -0.2723,-0.002 -0.5541,-3.04328 -0.62622,-6.75815 z"
     id="path1896"
     transform="scale(0.125)" />
  <path
     style="fill:#e1e1e1;fill-opacity:1;stroke-width:0.602353"
     d="m 152.09412,425.16782 c 0,-30.08746 0.0266,-30.78929 1.1291,-29.79153 0.8378,0.75819 1.23808,2.27118 1.55152,5.86438 0.84709,9.71085 4.09665,17.83866 9.4924,23.74248 2.75133,3.0104 4.4455,4.06465 15.10441,9.39918 6.60302,3.30466 12.08079,5.92477 12.17281,5.82248 0.52901,-0.58805 6.93093,-13.82252 6.93093,-14.32807 0,-0.33507 -4.88913,-3.05665 -10.86473,-6.04795 -10.15493,-5.0834 -10.98272,-5.62471 -12.67051,-8.28552 -10.26491,-16.1827 2.25356,-37.37637 21.35311,-36.15063 4.65539,0.29876 10.84205,2.67862 13.32566,5.12606 0.66259,0.65293 3.50234,5.83699 6.31055,11.52011 2.80821,5.68313 5.4578,10.33295 5.88798,10.33295 0.43018,0 2.66601,-0.9487 4.96853,-2.10823 2.30252,-1.15953 4.3287,-2.10824 4.50261,-2.10824 0.17392,0 0.31622,5.69224 0.31622,12.64942 v 12.64941 H 215.64235 199.68 v 16.26353 16.26353 h -23.79294 -23.79294 z"
     id="path1898"
     transform="scale(0.125)" />
  <path
     style="fill:#e1e1e1;fill-opacity:1;stroke-width:0.602353"
     d="m 112.33882,432.18824 v -55.71765 l 12.8,0.0129 12.8,0.0129 1.79741,2.54714 c 0.98858,1.40093 3.49587,4.65477 5.57177,7.23076 2.07589,2.57599 3.77435,4.81223 3.77435,4.96941 0,0.15719 -2.98164,0.28579 -6.62588,0.28579 h -6.62588 v 40.35765 40.35765 H 256 376.16941 v -40.35765 -40.35765 h -70.77182 -70.77183 l -3.61876,-7.21897 c -1.99032,-3.97044 -3.61876,-7.35867 -3.61876,-7.52941 0,-0.17074 38.76141,-0.31044 86.13647,-0.31044 h 86.13647 v 55.71765 55.71764 H 256 112.33882 Z"
     id="path1902"
     transform="scale(0.125)" />
  <path
     style="fill:#e1e1e1;fill-opacity:1;stroke-width:0.602353"
     d="m 392.11628,218.71883 c 0.19443,-2.52029 0.13708,-5.93765 -0.12744,-7.59412 l -0.48094,-3.01177 4.53675,-0.99177 c 21.82894,-4.77198 38.65846,-21.51607 43.02241,-42.80401 0.72559,-3.53955 0.95176,-8.40627 0.95176,-20.48 V 128 h 7.83059 7.83059 v 14.2623 c 0,19.18216 -1.19101,27.00739 -5.69674,37.42909 -9.86288,22.81269 -30.95603,39.41479 -54.72305,43.07168 l -3.49743,0.53813 z"
     id="path1904"
     transform="scale(0.125)" />
  <path
     style="fill:#e1e1e1;fill-opacity:1;stroke-width:0.602353"
     d="m 155.2705,371.7719 c -19.31095,-25.94671 -35.43939,-56.35615 -40.83998,-77.0019 -4.01247,-15.33916 -1.94439,-30.28501 6.65657,-48.10647 4.7791,-9.90245 4.30245,-9.61341 8.06196,-4.88877 1.74413,2.19188 3.3511,3.99319 3.57105,4.0029 0.21994,0.01 1.2966,0.83315 2.39258,1.82986 l 1.99268,1.81222 -1.18742,1.93483 c -2.04046,3.32483 -5.46108,12.20185 -6.71131,17.41687 -1.5697,6.54765 -1.58375,14.84404 -0.036,21.2615 5.27707,21.88024 22.98353,57.41617 36.6019,73.45803 l 3.55483,4.18745 -2.09816,1.83608 c -1.15399,1.00985 -3.23755,3.38097 -4.63014,5.26917 l -2.53197,3.43308 z"
     id="path1910"
     transform="scale(0.125)" />
  <path
     style="fill:#e1e1e1;fill-opacity:1;stroke-width:0.602353"
     d="m 149.09436,118.81318 c -1.15293,-0.57925 -2.71151,-1.97421 -3.46353,-3.0999 -1.34333,-2.01085 -1.3673,-2.35418 -1.3673,-19.585873 0,-15.836138 0.10687,-17.738416 1.10066,-19.59144 1.6615,-3.098048 4.34635,-4.253614 9.88288,-4.253614 h 4.67764 v 23.792941 23.792946 l -4.36706,-9.7e-4 c -2.95521,-6.6e-4 -5.04477,-0.34142 -6.46329,-1.05412 z"
     id="path1912"
     transform="scale(0.125)" />
  <path
     style="fill:#e1e1e1;fill-opacity:1;stroke-width:0.602353"
     d="M 352.07529,96.080598 V 72.126795 l 4.9511,0.43189 c 5.80001,0.505941 7.90028,1.43154 9.30535,4.100923 0.89293,1.696397 1.03397,4.236918 1.09407,19.707109 l 0.069,17.759663 -1.53563,1.72678 c -2.25607,2.53689 -4.12945,3.29732 -9.27106,3.76324 l -4.61281,0.418 z"
     id="path1914"
     transform="scale(0.125)" />
  <path
     style="fill:#fdfdfd;fill-opacity:1;stroke-width:0.602353"
     d="m 175.89227,285.06353 c -4.65753,-27.87988 -7.21628,-44.81567 -7.39961,-48.97629 -0.69708,-15.81969 4.25173,-30.8237 14.93876,-45.29195 l 4.783,-6.47529 h 67.78132 67.78132 l 4.82588,6.47529 c 10.64207,14.2794 15.65313,29.61447 14.90199,45.6038 -0.17202,3.66172 -3.09186,22.86248 -7.40034,48.66444 L 328.98836,327.68 H 256 183.01164 Z m 40.65361,18.82353 v -8.13177 H 208.11294 199.68 v 8.13177 8.13176 h 8.43294 8.43294 z m 31.92471,0 v -8.13177 h -8.43294 -8.43294 v 8.13177 8.13176 h 8.43294 8.43294 z m 31.9247,0 v -8.13177 h -8.43294 -8.43294 v 8.13177 8.13176 h 8.43294 8.43294 z m 31.92471,0 v -8.13177 h -8.43294 -8.43294 v 8.13177 8.13176 h 8.43294 8.43294 z m 1.97286,-26.02724 c 7.66552,-3.63098 12.57532,-10.44559 13.68583,-18.99539 0.73504,-5.65911 0.73504,-31.99446 0,-37.65356 -1.09169,-8.40486 -6.12553,-15.52201 -13.55045,-19.15846 l -3.61412,-1.77006 H 256 201.18588 l -3.61412,1.77006 c -7.45202,3.64972 -12.44994,10.67182 -13.53215,19.01276 -0.74954,5.77691 -0.76227,32.07142 -0.0183,37.79926 1.28252,9.87411 7.54655,17.31581 17.16457,20.39163 1.89374,0.60561 13.81876,0.74552 55.71765,0.6537 l 53.30823,-0.11682 z"
     id="path1916"
     transform="scale(0.125)" />
  <path
     style="fill:#ffffff;fill-opacity:1;stroke-width:0.602353"
     d="m 222.87059,166.26043 c -29.97072,-0.31067 -30.13147,-0.319 -32.9514,-1.70795 -3.729,-1.8367 -8.707,-7.2904 -11.49189,-12.59006 l -2.23906,-4.26094 V 96.125127 44.54877 l 1.95764,-4.026261 c 2.80585,-5.770748 7.43293,-10.532521 12.71287,-13.082938 4.04275,-1.952812 4.79667,-2.102869 12.43848,-2.475707 l 8.13488,-0.396894 11.63976,15.733484 11.63976,15.733484 21.41792,-0.158146 21.41791,-0.158145 11.36899,-15.36 c 9.90582,-13.383193 11.5955,-15.3839 13.12899,-15.545709 0.968,-0.102139 5.01926,0.07126 9.00279,0.385326 5.43938,0.428848 7.96176,0.914072 10.13023,1.948726 3.94692,1.883216 10.27612,8.452783 12.67566,13.157052 l 1.95764,3.837942 v 51.780246 51.78025 l -2.2054,4.1969 c -2.84516,5.41435 -6.49567,9.43507 -11.3496,12.5006 l -3.8837,2.45278 -32.69241,-0.13956 c -17.98083,-0.0768 -46.24536,-0.28006 -62.81006,-0.45177 z m 72.34888,-15.4309 c 7.68245,-5.13422 8.76205,-7.59772 9.14515,-20.86802 l 0.29138,-10.09327 h -8.43436 -8.43436 l -0.38306,2.79465 c -0.21067,1.53707 -0.38304,5.06083 -0.38304,7.83059 v 5.03593 h -31.32236 -31.32235 v -7.83059 -7.83058 h -8.73832 -8.73833 l 0.29124,4.06588 c 0.16019,2.23623 0.43694,6.88151 0.61501,10.32282 0.36808,7.11317 1.40676,10.11101 4.58066,13.22074 4.78352,4.68679 4.78602,4.68705 48.49862,4.82018 l 31.99125,0.0974 z M 220.7002,103.59152 c 5.42446,-0.70412 8.2213,-2.24154 12.78679,-7.028898 5.54922,-5.81888 6.20765,-7.568282 6.19128,-16.449681 -0.0172,-9.31813 -0.7905,-11.335445 -6.52018,-17.009023 -5.99601,-5.937292 -7.87912,-6.669679 -17.14906,-6.669679 -9.30798,0 -11.77756,0.890505 -16.83289,6.069765 -7.95956,8.154695 -9.80731,18.812647 -4.92531,28.409451 2.30853,4.538 5.24386,7.7824 9.17958,10.146145 4.93574,2.96435 9.1634,3.58416 17.26979,2.53192 z m 86.07466,-1.74198 c 9.77085,-4.96269 15.28341,-16.155648 13.10417,-26.607344 -1.09564,-5.254687 -2.81814,-8.278104 -7.17704,-12.59749 -5.54341,-5.493151 -7.00067,-6.02353 -16.55008,-6.02353 -9.82172,0 -11.48449,0.613626 -17.22903,6.358171 -5.75515,5.755144 -6.61446,7.972773 -6.6391,17.133594 -0.0195,7.253396 0.046,7.649696 1.78681,10.810615 2.25776,4.099578 7.08204,9.109374 10.40405,10.804134 3.96152,2.02102 6.61601,2.46206 12.96375,2.15389 4.97445,-0.2415 6.4385,-0.56014 9.33647,-2.03204 z"
     id="path1918"
     transform="scale(0.125)" />
  <path
     style="fill:#ffffff;fill-opacity:1;stroke-width:0.602353"
     d="m 212.50924,86.160856 c -2.14146,-1.305726 -3.79395,-4.019298 -3.79395,-6.230101 0,-1.864536 2.32409,-5.308745 4.23455,-6.275453 4.4829,-2.268371 10.22625,1.243729 10.21967,6.249401 -0.005,3.559338 -3.83955,7.439923 -7.34666,7.434222 -0.76186,-0.0012 -2.25298,-0.531369 -3.31361,-1.178069 z"
     id="path1920"
     transform="scale(0.125)" />
  <path
     style="fill:#ffffff;fill-opacity:1;stroke-width:0.602353"
     d="m 292.66324,86.185826 c -2.56745,-1.56556 -3.835,-3.536583 -3.835,-5.963385 0,-3.801688 3.32477,-7.337735 6.89932,-7.337735 3.61279,0 7.55264,3.770626 7.55264,7.228235 0,3.360536 -3.93443,7.231527 -7.3444,7.225984 -0.76187,-0.0013 -2.23452,-0.520133 -3.27256,-1.153099 z"
     id="path1922"
     transform="scale(0.125)" />
  <path
     style="fill:#ccd9ff;fill-opacity:1;stroke-width:0.602353"
     d="m 238.97555,32.200084 -5.57974,-7.503613 H 256 278.60419 l -5.57974,7.503613 -5.57974,7.503613 H 256 244.55529 Z"
     id="path1924"
     transform="scale(0.125)" />
  <path
     style="fill:#ccd9ff;fill-opacity:1;stroke-width:0.602353"
     d="M 352.07529,96.085902 V 72.126795 l 4.9511,0.43189 c 5.79739,0.505713 7.89662,1.430084 9.31313,4.100923 0.90107,1.69899 1.04495,4.208448 1.12774,19.669316 l 0.0949,17.721866 -1.5693,1.76457 c -2.30583,2.59274 -4.31964,3.41833 -9.3819,3.84625 l -4.53565,0.3834 z"
     id="path1926"
     transform="scale(0.125)" />
  <path
     style="fill:#ccd9ff;fill-opacity:1;stroke-width:0.602353"
     d="m 152.64441,119.31923 c -3.1963,-0.44894 -5.51047,-1.8015 -7.0172,-4.10131 -0.95512,-1.45786 -1.0599,-3.38988 -1.03672,-19.116313 0.0227,-15.374918 0.15161,-17.7305 1.06431,-19.441999 1.42487,-2.671906 3.52333,-3.595377 9.31881,-4.100923 l 4.9511,-0.43189 v 23.87072 23.870725 l -2.25883,-0.0805 c -1.24235,-0.0443 -3.50201,-0.2551 -5.02147,-0.46852 z"
     id="path1928"
     transform="scale(0.125)" />
  <path
     style="fill:#ccd9ff;fill-opacity:1;stroke-width:0.602353"
     d="m 147.83671,235.62352 c -3.36684,-2.13519 -7.31561,-6.58022 -9.10186,-10.24573 -1.0246,-2.10257 -1.448,-4.27335 -1.68464,-8.63738 -0.17385,-3.20595 -0.11952,-6.1876 0.12073,-6.62588 0.24025,-0.43829 1.04015,-2.15218 1.77755,-3.80865 2.00172,-4.49657 7.79263,-10.03191 12.2421,-11.70182 3.63843,-1.36552 9.93882,-2.37986 9.93882,-1.60012 0,0.23075 -0.91149,2.64044 -2.02554,5.35486 -5.46588,13.31781 -7.05101,21.24779 -7.57873,37.91414 -0.0452,1.42754 -0.55492,1.33779 -3.68843,-0.64942 z"
     id="path1930"
     transform="scale(0.125)" />
  <path
     style="fill:#ccd9ff;fill-opacity:1;stroke-width:0.602353"
     d="m 360.47877,236.27294 c -0.34547,-12.35701 -1.93028,-23.10877 -4.24137,-28.77455 -0.40267,-0.98717 -0.82277,-2.25768 -0.93354,-2.82334 -0.11078,-0.56567 -1.15359,-3.32868 -2.31735,-6.14003 -1.16375,-2.81134 -2.11592,-5.30033 -2.11592,-5.53108 0,-0.77974 6.30039,0.2346 9.93882,1.60012 2.67498,1.00394 4.56045,2.30923 7.25593,5.02323 5.30986,5.34633 6.99804,9.28372 6.9957,16.31624 -0.002,5.07021 -0.12919,5.68536 -2.02821,9.78514 -1.04288,2.25147 -8.30812,11.02703 -8.30812,10.03523 0,-0.21035 -0.66811,0.0553 -1.48469,0.59035 -1.91517,1.25487 -2.72457,1.23103 -2.76125,-0.0813 z"
     id="path1932"
     transform="scale(0.125)" />
  <path
     style="fill:#f6f8ff;fill-opacity:1;stroke-width:0.602353"
     d="m 219.55765,166.26422 -27.40706,-0.31598 -2.781,-1.63488 c -3.80494,-2.23683 -8.29064,-7.30483 -10.95759,-12.38005 l -2.22376,-4.23183 V 95.932832 44.164183 l 1.87192,-3.746059 c 2.7798,-5.562873 7.62316,-10.477124 12.79859,-12.985925 4.0491,-1.962811 4.78558,-2.109783 12.45363,-2.485228 l 8.15003,-0.399044 11.61999,15.735448 11.61998,15.735449 h 21.28888 21.28888 l 11.61727,-15.661177 11.61728,-15.661176 2.7403,0.02626 c 7.58274,0.07265 15.13762,1.094029 17.92315,2.423107 3.9472,1.883356 10.27636,8.452793 12.67598,13.157208 l 1.95764,3.837942 v 51.780246 51.780246 l -2.2054,4.1969 c -2.78824,5.30603 -6.46869,9.41065 -11.22444,12.51805 l -3.72717,2.43533 -35.84502,-0.13578 c -19.71477,-0.0747 -48.1782,-0.27798 -63.25208,-0.45176 z m 75.96253,-15.71837 c 3.82126,-2.45211 6.924,-5.96736 7.76701,-8.79969 0.37676,-1.2658 0.83935,-6.70616 1.02799,-12.08969 l 0.34298,-9.78823 h -8.43342 -8.43341 l -0.37984,3.16235 c -0.20891,1.73929 -0.3822,5.26306 -0.38508,7.83059 l -0.005,4.66823 H 255.69905 224.3767 v -7.83059 -7.83058 h -8.73832 -8.73833 l 0.29173,4.06588 c 0.16045,2.23623 0.43529,6.64094 0.61074,9.78823 0.17546,3.1473 0.60877,6.7672 0.96291,8.04425 0.7247,2.61325 4.66995,7.21205 7.44826,8.68209 2.66576,1.4105 10.75428,1.73732 45.75733,1.84887 l 30.66727,0.0977 z m -70.32899,-47.93726 c 3.70121,-1.20142 10.3037,-7.294321 12.7525,-11.768231 1.67317,-3.056845 1.74966,-3.531685 1.73308,-10.757517 -0.0151,-6.569015 -0.19355,-7.923489 -1.36211,-10.337406 -1.82994,-3.780158 -10.0967,-11.63269 -13.13428,-12.476162 -1.27039,-0.352758 -5.68021,-0.642891 -9.79961,-0.644738 -8.87229,-0.004 -11.02068,0.761663 -15.93013,5.677175 -5.9015,5.908786 -8.73568,13.909402 -7.56061,21.342846 1.47516,9.331788 9.27817,18.219273 17.51602,19.950423 3.49484,0.73443 12.15006,0.19358 15.78514,-0.98639 z m 81.46034,-0.83404 c 4.52501,-2.176437 9.34955,-7.125104 11.574,-11.871783 1.45596,-3.106804 1.6236,-4.150284 1.62118,-10.091002 -0.003,-8.081534 -0.99163,-10.506329 -6.78581,-16.648468 -5.79336,-6.141272 -7.33135,-6.699561 -17.7628,-6.447896 -9.91347,0.239169 -10.45072,0.449704 -16.32658,6.398025 -4.79189,4.850995 -5.63987,6.374505 -6.45306,11.593751 -1.57002,10.076873 0.19565,16.218867 6.50577,22.630613 5.42341,5.51075 9.77725,7.01145 18.8393,6.49358 4.02537,-0.23004 5.9042,-0.66978 8.788,-2.05682 z"
     id="path1934"
     transform="scale(0.125)" />
  <path
     style="fill:#fdfdfd;fill-opacity:1;stroke-width:0.602353"
     d="m 147.49777,235.00956 c -3.04832,-2.20819 -7.04613,-6.75682 -8.34581,-9.4957 -1.08192,-2.27996 -2.08481,-7.99004 -2.10408,-11.97974 -0.024,-4.96442 4.93245,-12.71446 10.64487,-16.64471 2.55515,-1.75799 11.94993,-4.61928 12.70098,-3.86823 0.20747,0.20747 -0.1147,1.65504 -0.71593,3.21684 -5.64737,14.67003 -7.36814,21.83243 -7.98025,33.21632 -0.27007,5.02276 -0.61369,7.27037 -1.11151,7.27037 -0.39632,0 -1.78604,-0.77182 -3.08827,-1.71515 z"
     id="path1936"
     transform="scale(0.125)" />
  <path
     style="fill:#fdfdfd;fill-opacity:1;stroke-width:0.602353"
     d="m 155.15645,371.08154 c -20.97891,-28.41655 -38.28336,-62.41221 -41.56192,-81.65095 -0.69428,-4.07409 -1.00489,-16.41395 -0.42769,-16.99116 0.20718,-0.20718 0.37669,-0.97948 0.37669,-1.71623 0,-2.2307 2.8288,-12.3443 4.7078,-16.83144 3.22905,-7.71111 6.83149,-14.75772 7.54158,-14.7518 0.38566,0.003 2.41334,1.90063 4.50595,4.21647 2.0926,2.31585 4.16431,4.21063 4.60379,4.21063 1.63898,0 1.47535,2.03927 -0.49974,6.22812 -2.28244,4.84068 -5.05197,12.61599 -5.68373,15.95676 -1.20497,6.37194 -0.20668,21.88628 1.61508,25.09982 0.18781,0.3313 0.41915,1.14448 0.51409,1.80706 0.51694,3.60775 10.54662,28.08096 11.68512,28.51263 0.29307,0.11112 0.37964,0.44994 0.19238,0.75294 -0.18726,0.30299 -0.0374,0.5509 0.33297,0.5509 0.3704,0 0.51944,0.24921 0.33119,0.5538 -0.18824,0.30458 0.0539,0.94996 0.53812,1.43417 0.48421,0.48421 0.71259,1.04818 0.5075,1.25327 -0.20509,0.20508 -0.0406,0.37288 0.36541,0.37288 0.40606,0 0.57077,0.27106 0.36602,0.60235 -0.20475,0.3313 -0.0692,0.60236 0.30118,0.60236 0.37039,0 0.50592,0.27106 0.30117,0.60235 -0.20475,0.33129 -0.13039,0.60235 0.16524,0.60235 0.29563,0 0.5457,0.33883 0.5557,0.75294 0.0276,1.14372 7.96532,15.10241 9.07708,15.96236 0.53538,0.41412 0.78331,0.75294 0.55096,0.75294 -0.23235,0 0.56739,1.49082 1.77721,3.31294 1.20982,1.82212 2.44835,3.31294 2.75229,3.31294 0.30394,0 0.42356,0.20883 0.26581,0.46407 -0.15774,0.25522 1.56402,2.73547 3.82613,5.51164 3.83388,4.70512 4.62567,6.6737 2.68425,6.6737 -0.44258,0 -2.28892,1.89693 -4.10299,4.21539 l -3.29832,4.21538 z"
     id="path1938"
     transform="scale(0.125)" />
  <path
     style="fill:#fdfdfd;fill-opacity:1;stroke-width:0.602353"
     d="m 392.13176,215.62743 v -7.24898 l 2.40942,-0.61029 c 9.66961,-2.44923 19.31896,-6.639 22.87039,-9.93035 0.87283,-0.80892 1.79262,-1.47075 2.04398,-1.47075 1.44875,0 14.33753,-15.0407 12.91221,-15.06805 -0.26439,-0.005 -0.17743,-0.20837 0.19324,-0.45176 0.89347,-0.58669 3.99507,-6.76463 3.40209,-6.77647 -0.25405,-0.005 -0.12015,-0.22619 0.29757,-0.49136 0.41771,-0.26517 1.43418,-3.14189 2.25882,-6.39272 1.41708,-5.58629 1.49934,-6.81519 1.49934,-22.39805 v -16.48747 h 7.91628 7.91628 l -0.44022,15.20941 c -0.61532,21.2586 -1.81151,27.91475 -6.95247,38.68666 -5.01108,10.49978 -14.83957,22.04975 -24.26798,28.51858 -5.88398,4.037 -14.3734,8.06705 -20.61424,9.78586 -2.65035,0.72994 -5.22541,1.45787 -5.72235,1.61761 -0.49694,0.15974 -1.98777,0.39544 -3.31294,0.52377 l -2.40942,0.23335 z"
     id="path1940"
     transform="scale(0.125)" />
  <path
     style="fill:#fdfdfd;fill-opacity:1;stroke-width:0.602353"
     d="m 360.50824,232.84026 c 0,-4.78126 -1.47816,-16.30706 -2.68282,-20.91906 -0.49132,-1.88098 -2.00737,-6.35345 -3.36901,-9.93882 -1.36163,-3.58537 -2.62516,-7.14762 -2.80783,-7.91612 -0.31572,-1.32826 -0.21671,-1.37631 2.00494,-0.97301 1.28539,0.23335 4.02565,0.93907 6.08948,1.56827 5.04996,1.53958 10.19961,6.24596 12.95222,11.83729 1.81089,3.67845 1.96701,4.45687 1.95204,9.73323 -0.0137,4.83114 -0.23953,6.16223 -1.43287,8.44561 -2.04155,3.90637 -7.22136,10.12003 -9.30114,11.15756 -3.09665,1.54481 -3.40501,1.27358 -3.40501,-2.99495 z"
     id="path1942"
     transform="scale(0.125)" />
  <path
     style="fill:#fdfdfd;fill-opacity:1;stroke-width:0.602353"
     d="M 352.07529,96.127873 V 72.300824 l 3.76471,0.383978 c 5.6134,0.572535 8.31525,1.520746 9.73053,3.414923 1.20563,1.61358 1.27069,2.504356 1.4465,19.804621 l 0.1841,18.115044 -1.97001,2.03253 c -2.07914,2.14513 -4.04251,2.85509 -9.6923,3.50474 l -3.46353,0.39826 z"
     id="path1944"
     transform="scale(0.125)" />
  <path
     style="fill:#fdfdfd;fill-opacity:1;stroke-width:0.602353"
     d="m 239.29037,32.075294 -5.18179,-7.077647 11.1357,-0.164024 c 6.12463,-0.09021 15.98988,-0.09021 21.92278,0 l 10.7871,0.164024 -5.21899,7.077647 -5.21899,7.077647 h -11.52201 -11.52201 z"
     id="path1946"
     transform="scale(0.125)" />
  <path
     style="fill:#fdfdfd;fill-opacity:1;stroke-width:0.602353"
     d="m 154.41813,119.2428 c -4.50856,-0.5264 -5.59889,-0.98863 -7.74519,-3.28343 l -1.50588,-1.61008 V 96.0702 c 0,-17.618291 0.0456,-18.340203 1.26241,-19.96957 1.41529,-1.895196 4.11567,-2.843144 9.73053,-3.415828 l 3.76471,-0.383978 v 23.783705 c 0,18.667621 -0.16197,23.766681 -0.75295,23.704541 -0.41411,-0.0435 -2.55325,-0.28936 -4.75363,-0.54627 z"
     id="path1948"
     transform="scale(0.125)" />
  <path
     style="fill:#fdfdfd;fill-opacity:1;stroke-width:0.602353"
     d="m 112.33882,432.18824 v -55.71765 l 9.78824,0.0596 c 5.38353,0.0328 11.18476,0.23606 12.89162,0.45176 l 3.10339,0.3922 5.14463,6.69425 5.14462,6.69425 -3.66814,0.3834 c -2.01747,0.21086 -4.84814,0.38339 -6.29036,0.38339 h -2.62223 v 40.35765 40.35765 H 256 376.16941 v -40.35765 -40.35765 h -70.638 -70.638 l -3.48257,-6.99629 c -1.91541,-3.84796 -3.39774,-7.08112 -3.29406,-7.18481 0.10368,-0.10368 38.74359,-0.38566 85.86646,-0.62662 l 85.67794,-0.4381 v 55.81114 55.81115 H 256 112.33882 Z"
     id="path1950"
     transform="scale(0.125)" />
  <path
     style="fill:#fdfdfd;fill-opacity:1;stroke-width:0.602353"
     d="m 152.09632,434.44706 c 0.002,-22.90326 0.50738,-38.82961 1.21741,-38.39079 0.55212,0.34123 1.21358,3.43232 1.49222,6.97332 0.83124,10.56359 7.04734,22.066 13.8441,25.61743 1.82537,0.95378 3.3195,1.95345 3.32028,2.22147 7.9e-4,0.26802 0.27249,0.31979 0.60379,0.11504 0.33129,-0.20475 0.60235,-0.0692 0.60235,0.30118 0,0.37039 0.27106,0.50592 0.60235,0.30117 0.3313,-0.20475 0.60236,-0.0692 0.60236,0.30118 0,0.3704 0.27106,0.50593 0.60235,0.30118 0.33129,-0.20476 0.60235,-0.0692 0.60235,0.30117 0,0.3704 0.27106,0.50593 0.60236,0.30118 0.33129,-0.20475 0.60235,-0.0692 0.60235,0.30117 0,0.3704 0.27106,0.50593 0.60235,0.30118 0.3313,-0.20475 0.60235,-0.0692 0.60235,0.30118 0,0.3704 0.27106,0.50593 0.60236,0.30117 0.33129,-0.20475 0.60235,-0.0692 0.60235,0.30118 0,0.3704 0.27106,0.50593 0.60235,0.30118 0.3313,-0.20475 0.60236,-0.0692 0.60236,0.30117 0,0.3704 0.27105,0.50593 0.60235,0.30118 0.33129,-0.20475 0.60235,-0.0692 0.60235,0.30118 0,0.3704 0.27106,0.50592 0.60235,0.30117 0.3313,-0.20475 0.60236,-0.0692 0.60236,0.30118 0,0.3704 0.27106,0.50593 0.60235,0.30118 0.33129,-0.20476 0.60235,-0.0692 0.60235,0.30117 0,0.3704 0.27106,0.50593 0.60236,0.30118 0.33129,-0.20475 0.60235,-0.0692 0.60235,0.30118 0,0.37039 0.27106,0.50592 0.60235,0.30117 0.3313,-0.20475 0.60236,-0.0692 0.60236,0.30118 0,0.3704 0.27105,0.50593 0.60235,0.30117 0.33129,-0.20475 0.60235,-0.0692 0.60235,0.30118 0,0.3704 0.27106,0.50593 0.60235,0.30118 0.3313,-0.20475 0.60236,-0.0692 0.60236,0.30117 0,0.3704 0.27106,0.50593 0.60235,0.30118 0.33129,-0.20475 0.60235,-0.0852 0.60235,0.26563 0,0.35084 0.41439,0.6379 0.92086,0.6379 0.87581,0 7.51208,-12.4938 7.51208,-14.14264 0,-0.39194 -0.74541,-1.09724 -1.65647,-1.56734 -0.91106,-0.4701 -2.01465,-1.19355 -2.45243,-1.60767 -0.75118,-0.71057 -1.64279,-0.98608 -2.66757,-0.82427 -0.24847,0.0392 -0.45176,-0.18146 -0.45176,-0.49043 0,-0.57191 -2.34028,-1.5818 -3.16235,-1.36464 -0.24847,0.0656 -0.45177,-0.13345 -0.45177,-0.44242 0,-0.57191 -2.34028,-1.5818 -3.16235,-1.36464 -0.24847,0.0656 -0.45177,-0.13345 -0.45177,-0.44242 0,-0.47575 -2.4094,-1.59885 -2.86117,-1.33368 -0.34388,0.20184 -5.41387,-4.50032 -6.77647,-6.28484 -0.49694,-0.65081 -0.99839,-1.71931 -1.11433,-2.37444 -0.11593,-0.65514 -0.38699,-1.32669 -0.60235,-1.49233 -0.59693,-0.45915 -0.79967,-2.25289 -0.85103,-7.52942 -0.10014,-10.28857 6.18277,-19.08626 15.94653,-22.32926 6.51381,-2.16354 17.61025,-0.0692 21.37831,4.03496 0.72961,0.79468 3.58164,5.7523 6.33785,11.01694 2.75622,5.26463 5.47245,9.86294 6.03607,10.21846 0.79907,0.50405 1.90621,0.21174 5.02727,-1.32732 2.20137,-1.08555 4.10163,-1.87461 4.22278,-1.75345 0.12116,0.12115 0.40308,5.69108 0.62649,12.37762 l 0.40621,12.15735 H 215.73749 199.68 v 16.26353 16.26353 h -23.79294 -23.79294 l 0.002,-21.53412 z"
     id="path1952"
     transform="scale(0.125)" />
  <path
     transform="scale(0.125)"
     id="path993"
     d="m 176.57892,288.97882 c -7.47484,-44.97304 -8.19539,-49.85918 -8.21024,-55.67406 -0.0374,-14.66928 5.08568,-29.15819 15.03089,-42.50947 L 188.22294,184.32 H 256 323.77707 l 4.82337,6.47529 c 9.94521,13.35128 15.06833,27.84019 15.03089,42.50947 -0.0148,5.81488 -0.73541,10.70102 -8.21024,55.67406 L 328.98868,327.68 H 256 183.01133 Z m 39.96697,14.90824 V 295.7553 H 208.11294 199.68 v 8.13176 8.13177 h 8.43294 8.43295 z m 31.9247,0 v -8.13176 h -8.43294 -8.43294 v 8.13176 8.13177 h 8.43294 8.43294 z m 31.92471,0 v -8.13176 h -8.43294 -8.43294 v 8.13176 8.13177 h 8.43294 8.43294 z m 31.92471,0 v -8.13176 h -8.43295 -8.43294 v 8.13176 8.13177 h 8.43294 8.43295 z m 1.95145,-26.08 c 5.13894,-2.53018 9.19447,-6.59032 11.55221,-11.56534 l 1.85634,-3.91701 v -22.28706 -22.28706 l -1.91211,-4.0362 c -2.3453,-4.95061 -6.1057,-8.81267 -11.13955,-11.44072 l -3.81423,-1.99132 H 256 201.18589 l -3.81423,1.99132 c -5.03385,2.62805 -8.79425,6.49011 -11.13955,11.44072 l -1.91211,4.0362 v 22.28706 22.28706 l 1.86574,3.91529 c 3.03118,6.361 8.78357,11.2758 15.25877,13.03697 2.11274,0.57465 15.08605,0.72174 55.77333,0.6324 l 53.02019,-0.11643 z"
     style="fill:#cccccc;stroke-width:0.602353" />
  <path
     transform="scale(0.125)"
     id="path995"
     d="m 238.63302,166.45634 c -0.0557,-0.0518 -10.53702,-0.18045 -23.29184,-0.2858 l -23.19059,-0.19155 -3.56764,-2.43573 c -3.01346,-2.05737 -5.19395,-4.4591 -9.84764,-10.84679 -0.24136,-0.3313 -0.91319,-1.62802 -1.49295,-2.88162 -0.978,-2.11465 -1.05412,-6.00729 -1.05412,-53.901039 V 44.292029 l 1.65647,-3.281634 c 3.61026,-7.152287 9.51787,-12.49959 16.44663,-14.886741 1.28286,-0.44198 5.66293,-0.9639 9.73351,-1.159823 l 7.40104,-0.356224 4.51764,6.007703 c 2.48471,3.304236 4.92424,6.611323 5.42118,7.349082 0.49694,0.73776 2.80094,3.852302 5.12,6.921205 2.31906,3.068903 4.62306,6.20372 5.12,6.96626 0.49694,0.762539 1.50109,2.012054 2.23144,2.776698 l 1.32792,1.390263 h 20.54698 c 11.67532,0 21.0039,-0.244537 21.60521,-0.566351 0.58203,-0.311493 1.85175,-1.734552 2.82158,-3.162353 0.96984,-1.427802 1.97371,-2.867061 2.23082,-3.198356 1.9024,-2.451269 11.15697,-14.86839 11.88076,-15.940751 0.49694,-0.73627 1.31012,-1.845146 1.80706,-2.46417 0.49694,-0.619024 1.66651,-2.220095 2.59906,-3.557936 1.69462,-2.431118 1.69772,-2.432435 5.72235,-2.427887 2.21475,0.0025 5.65318,0.268495 7.64094,0.591095 1.98776,0.3226 4.45874,0.678941 5.49107,0.791868 1.03232,0.112927 2.87746,0.79564 4.10031,1.517139 1.22285,0.7215 2.41117,1.332069 2.6407,1.35682 0.98825,0.106565 8.22566,8.980315 9.79061,12.004222 l 1.71341,3.310777 0.0284,51.81495 0.0284,51.814945 -2.70559,4.62196 c -2.98278,5.09549 -7.00984,9.44855 -11.51713,12.44948 l -2.94434,1.96033 -39.95522,-0.19201 c -21.97537,-0.1056 -40.00078,-0.23442 -40.05647,-0.28625 z m 56.8658,-15.89679 c 3.83265,-2.4594 6.79074,-5.92262 7.72649,-9.04587 0.405,-1.35179 0.89694,-6.77502 1.09319,-12.05162 l 0.35681,-9.59383 h -8.52588 -8.52589 l -0.10304,1.65647 c -0.0567,0.91106 -0.16338,2.06306 -0.23714,2.56 -0.0738,0.49694 -0.16293,3.2753 -0.19815,6.17412 l -0.064,5.27059 H 255.69886 224.3765 v -7.83059 -7.83059 h -8.69668 c -8.63062,0 -8.69634,0.0103 -8.65142,1.3553 0.20525,6.14653 1.20424,17.54697 1.73982,19.85489 0.78559,3.3852 4.29115,7.64703 7.61127,9.25327 3.0236,1.46279 9.10307,1.72095 46.12543,1.95863 l 29.99664,0.19258 z m -74.66274,-47.18126 c 5.98875,-0.48281 11.82195,-4.587708 16.28832,-11.462272 l 2.3109,-3.556912 -0.006,-7.887792 c -0.007,-9.75738 -0.88766,-12.0483 -6.79809,-17.68747 -5.7355,-5.472261 -7.53469,-6.134632 -16.68765,-6.14356 -6.65652,-0.0065 -7.87856,0.156768 -10.54117,1.408271 -3.88448,1.825813 -9.51512,7.765287 -11.62001,12.257339 -1.45005,3.094558 -1.63176,4.188038 -1.63176,9.819708 0,5.917679 0.12818,6.597736 1.93545,10.26883 4.32759,8.790577 13.06057,14.230448 21.55632,13.427648 0.99388,-0.0939 3.33106,-0.29362 5.19372,-0.44379 z m 86.04993,-1.57411 c 3.85909,-1.968757 9.14594,-7.536016 11.10976,-11.69901 2.05326,-4.352566 2.70881,-11.178817 1.54444,-16.082079 -1.48104,-6.236826 -8.31942,-14.304731 -13.94607,-16.453569 -4.17498,-1.594439 -17.23148,-1.164291 -20.68119,0.681342 -2.82179,1.509685 -9.40817,8.104015 -10.7287,10.741653 -2.52429,5.042 -2.75924,16.216349 -0.44162,21.003905 1.90868,3.942797 7.89478,10.214258 11.35526,11.896558 5.20609,2.53093 16.74522,2.4839 21.78812,-0.0888 z"
     style="fill:#cccccc;stroke-width:0.602353" />
  <path
     transform="scale(0.125)"
     id="path997"
     d="m 152.13607,118.61039 c -1.70604,-0.33466 -3.38991,-1.22257 -4.66824,-2.46157 l -1.99959,-1.93809 0.009,-17.801838 c 0.006,-12.964465 0.21236,-18.211039 0.75769,-19.307721 1.06331,-2.138334 4.29,-3.515838 9.33358,-3.984589 l 4.35632,-0.404877 -0.002,14.693557 c -0.001,8.081456 -0.1789,18.556148 -0.39487,23.277088 l -0.39267,8.58353 -2.16513,-0.066 c -1.19082,-0.0363 -3.36601,-0.30157 -4.83376,-0.58949 z"
     style="fill:#cccccc;stroke-width:0.602353" />
  <path
     transform="scale(0.125)"
     id="path999"
     d="m 243.21309,36.907178 c -0.97093,-1.24954 -3.3043,-4.372596 -5.18528,-6.940126 l -3.41995,-4.668235 h 21.39683 21.39684 l -5.01291,6.77647 -5.01291,6.776471 -11.19865,0.163655 -11.19866,0.163655 z"
     style="fill:#cccccc;stroke-width:0.602353" />
  <path
     transform="scale(0.125)"
     id="path1001"
     d="m 352.0753,96.301445 v -23.58974 l 4.35632,0.404877 c 5.07605,0.47177 8.31636,1.863838 9.2749,3.984589 0.42706,0.944868 0.80898,8.036188 1.02516,19.034616 l 0.34452,17.528733 -1.92868,1.82487 c -2.5512,2.41387 -3.75595,2.97917 -7.34987,3.44875 -1.65647,0.21643 -3.62164,0.51941 -4.36705,0.67328 l -1.3553,0.27976 z"
     style="fill:#cccccc;stroke-width:0.602353" />
  <path
     transform="scale(0.125)"
     id="path1003"
     d="m 392.43308,215.57603 1.2e-4,-6.86074 6.47517,-2.0119 c 12.46677,-3.87356 18.0205,-7.06479 25.32643,-14.5528 7.64145,-7.8319 12.31734,-15.99401 14.58769,-25.46394 1.03405,-4.31314 1.18845,-7.11983 1.19212,-21.67018 l 0.004,-16.7153 h 7.83059 c 5.86595,0 7.82916,0.18891 7.82488,0.75294 -0.003,0.41412 -0.27897,7.39389 -0.61295,15.51059 -0.89038,21.63822 -2.1689,28.09547 -7.68241,38.80033 -7.28551,14.14535 -19.45909,26.1524 -33.05768,32.60549 -5.93721,2.81745 -14.74539,5.69928 -18.72596,6.12669 l -3.16235,0.33957 z"
     style="fill:#cccccc;stroke-width:0.602353" />
  <path
     transform="scale(0.125)"
     id="path1005"
     d="m 156.5842,372.49618 c -18.77196,-25.36007 -34.98392,-55.39046 -40.94093,-75.83736 -1.01063,-3.46889 -1.80951,-8.26086 -2.21838,-13.30652 -0.58806,-7.25709 -0.53416,-8.37485 0.67648,-14.02924 0.72349,-3.37915 1.99077,-8.21273 2.81618,-10.7413 1.7909,-5.48628 7.58482,-17.87156 8.67589,-18.54587 0.51402,-0.31769 1.90852,0.70903 4.17697,3.07537 1.87293,1.95375 4.06192,3.98627 4.86442,4.51671 l 1.4591,0.96444 -3.15722,7.94232 c -4.6204,11.62311 -5.13692,14.32392 -4.73604,24.76409 0.28622,7.45422 0.61204,9.64933 2.22341,14.97957 2.74699,9.08681 7.69693,20.98029 13.91204,33.42722 6.50162,13.02071 10.51275,19.73546 17.43281,29.18303 7.22347,9.8618 6.91319,8.82096 3.6036,12.08823 -1.55055,1.53072 -3.36952,3.5697 -4.04215,4.53107 l -1.22296,1.74795 z"
     style="fill:#e6e6e6;stroke-width:0.602353" />
  <path
     transform="scale(0.125)"
     id="path1007"
     d="m 112.33882,432.30004 v -55.60585 l 10.39059,0.20764 c 16.07606,0.32124 14.57064,-0.19258 19.94844,6.80865 2.5286,3.29192 4.59745,6.26235 4.59745,6.60095 0,0.34713 -1.51058,0.61852 -3.46353,0.62226 -1.90495,0.004 -4.48,0.17464 -5.72236,0.37999 l -2.25882,0.37336 v 40.27884 40.27883 H 256 376.16942 v -40.35765 -40.35764 h -70.49263 -70.49262 l -3.32696,-6.77647 -3.32696,-6.77648 16.44547,-0.38349 c 9.045,-0.21093 47.54946,-0.53787 85.56546,-0.72654 l 69.12001,-0.34305 v 55.69125 55.69125 H 256 112.33882 Z"
     style="fill:#e6e6e6;stroke-width:0.602353" />
  <path
     transform="scale(0.125)"
     id="path1009"
     d="m 152.4053,428.56626 c 0.2456,-15.0782 0.64107,-28.29232 0.87883,-29.3647 0.41865,-1.88829 0.44501,-1.85479 0.83568,1.06197 1.00626,7.51289 2.33588,12.37796 4.68766,17.15218 3.93904,7.9964 6.45996,10.11125 20.5153,17.21061 13.69733,6.91852 11.79521,7.10489 16.40496,-1.60733 1.51116,-2.85603 2.74757,-5.73873 2.74757,-6.40602 0,-1.52032 -1.46501,-2.49322 -10.8228,-7.18739 -12.72496,-6.38325 -16.22595,-11.16557 -15.51846,-21.19803 0.48325,-6.85245 2.32228,-11.09517 6.71207,-15.48496 6.09859,-6.09859 13.99625,-7.91485 23.19414,-5.33405 5.33047,1.49565 7.14137,3.47306 13.15358,14.36299 2.90853,5.26822 5.74594,9.8673 6.30536,10.22017 0.77074,0.48618 1.78962,0.30727 4.20603,-0.73856 1.7539,-0.75908 3.50791,-1.51697 3.8978,-1.68419 0.92232,-0.39557 1.25702,2.47207 1.68052,14.39811 l 0.33689,9.48706 H 215.65021 199.68 v 16.26353 16.26353 h -23.86062 -23.86063 z"
     style="fill:#ececec;stroke-width:0.602353" />
  <path
     transform="scale(0.125)"
     id="path1011"
     d="m 112.33882,432.40595 v -55.49994 l 11.5953,0.30827 c 7.35414,0.19551 12.17942,0.58198 13.1923,1.05659 1.78179,0.83491 9.9522,11.2466 9.32095,11.87785 -0.22118,0.22117 -2.09055,0.50002 -4.15416,0.61968 -2.06362,0.11965 -4.36191,0.34499 -5.10733,0.50076 l -1.35529,0.28321 v 40.34617 40.34617 H 256 376.16942 v -40.35765 -40.35764 h -70.33797 -70.33797 l -3.18004,-6.39416 c -1.74901,-3.51679 -3.03704,-6.53714 -2.86229,-6.71189 0.4977,-0.4977 74.23381,-1.27605 124.5818,-1.31507 l 45.62824,-0.0354 v 55.41648 55.41647 H 256 112.33882 Z"
     style="fill:#ececec;stroke-width:0.602353" />
  <path
     transform="scale(0.125)"
     id="path1013"
     d="m 152.36059,442.27765 c 1.02665,-41.0395 1.15481,-43.98142 1.74498,-40.05647 0.31134,2.07059 0.7908,3.76471 1.06547,3.76471 0.27466,0 0.34204,0.41004 0.14973,0.9112 -0.19232,0.50116 -0.0506,1.27151 0.31485,1.71189 0.36549,0.44038 0.52068,0.94453 0.34487,1.12034 -0.54864,0.54864 2.56073,8.08202 4.74547,11.49731 3.37583,5.27728 6.05505,7.20838 19.72752,14.21899 6.96395,3.57079 10.47474,4.71164 11.79204,3.83188 1.42087,-0.94892 5.65614,-9.62648 5.23459,-10.72503 -0.28447,-0.74132 -0.19348,-0.94306 0.29047,-0.64396 1.06787,0.65998 0.88364,-2.35133 -0.19881,-3.24968 -0.49694,-0.41243 -0.90353,-0.58114 -0.90353,-0.37493 0,0.20621 -0.50803,-0.0994 -1.12895,-0.67919 -0.62092,-0.57976 -4.38007,-2.7625 -8.35368,-4.85053 -8.07012,-4.24063 -12.19642,-7.82303 -13.7766,-11.96065 -1.44858,-3.79308 -0.92061,-13.28054 0.95939,-17.23986 4.67745,-9.85077 15.41008,-14.91313 25.92295,-12.2273 6.97011,1.78071 7.63979,2.50471 17.03746,18.41952 4.18137,7.08109 4.65339,7.35118 9.33795,5.34313 1.45056,-0.62177 2.88394,-0.97811 3.18531,-0.79186 0.30136,0.18626 0.54793,1.67795 0.54793,3.31486 0,1.63692 0.2033,2.97622 0.45177,2.97622 0.24847,0 0.45176,3.79482 0.45176,8.43294 v 8.43294 H 215.49177 199.68 v 16.26353 16.26353 h -23.8311 -23.83111 z"
     style="fill:#ececec;stroke-width:0.602353" />
  <path
     transform="scale(0.125)"
     id="path1015"
     d="m 152.33431,441.07295 c 0.93432,-37.24084 1.16435,-42.68519 1.67338,-39.60471 0.27372,1.65647 0.7775,3.49714 1.11952,4.09038 0.34201,0.59325 0.45379,1.35053 0.2484,1.68286 -0.20539,0.33233 -0.11599,0.93119 0.19867,1.33079 0.31465,0.39961 0.56387,1.17904 0.55381,1.73208 -0.0281,1.54595 2.01474,6.52389 2.67728,6.52389 0.32345,0 0.42056,0.27106 0.21581,0.60235 -0.20475,0.3313 -0.04,0.60236 0.36602,0.60236 0.40606,0 0.5684,0.16989 0.36075,0.37754 -0.49591,0.49591 0.93121,3.2114 2.94634,5.60625 1.61508,1.91941 8.67512,7.05721 8.67512,6.31313 0,-0.21856 0.40961,-0.0574 0.91023,0.35805 1.46716,1.21763 13.94315,7.96503 14.29726,7.7324 0.0839,-0.0551 1.17948,0.23873 2.43465,0.65298 1.74825,0.57697 2.48107,0.58807 3.13249,0.0475 1.20099,-0.99675 4.59196,-7.13935 4.69479,-8.50442 0.0472,-0.62628 0.29064,-1.13869 0.54104,-1.13869 0.2504,0 0.28218,-0.45105 0.0706,-1.00234 -0.24897,-0.64879 -0.14892,-0.85667 0.28363,-0.58933 0.4202,0.25969 0.64223,-0.0949 0.59814,-0.95531 -0.0846,-1.65166 -0.99731,-2.98507 -1.73228,-2.53084 -0.29376,0.18155 -0.5341,0.10679 -0.5341,-0.16615 0,-0.27294 -3.64566,-2.4937 -8.10146,-4.93502 -13.31237,-7.29383 -15.76897,-10.67189 -15.26421,-20.98975 0.3553,-7.26262 2.05776,-11.30033 6.52754,-15.48128 4.70331,-4.3994 8.82183,-6.05711 15.03107,-6.05001 6.48413,0.007 10.77609,1.4109 13.77384,4.50411 1.20368,1.242 4.08592,5.56446 6.40498,9.60546 2.31906,4.04099 4.96618,8.25943 5.88249,9.3743 1.81085,2.20326 2.82844,2.28882 6.91491,0.58138 1.14852,-0.47988 2.33049,-0.72279 2.62659,-0.53979 0.2961,0.183 0.53836,1.49132 0.53836,2.90738 0,1.41605 0.15676,2.7314 0.34836,2.92299 0.19159,0.1916 0.40071,4.16713 0.46471,8.83452 l 0.11637,8.48615 H 215.50472 199.68 v 16.26353 16.26353 h -23.85986 -23.85986 z"
     style="fill:#f9f9f9;stroke-width:0.602353" />
  <path
     transform="scale(0.125)"
     id="path1017"
     d="m 112.33882,432.4009 v -55.50499 l 10.29948,0.4284 c 7.22868,0.30068 10.18134,0.23727 9.90327,-0.21266 -0.21791,-0.35258 -0.10063,-0.64106 0.26061,-0.64106 0.36124,0 0.80287,0.38063 0.98139,0.84585 0.18289,0.4766 0.96349,0.77571 1.78815,0.68518 0.80497,-0.0884 1.46358,0.0891 1.46358,0.39441 0,0.30529 0.20329,0.45815 0.45176,0.33969 0.24847,-0.11845 1.17989,0.5432 2.06982,1.47034 0.88993,0.92714 1.43205,1.69473 1.20471,1.70575 -0.22735,0.011 0.14195,0.48537 0.82064,1.05412 0.6787,0.56874 1.41561,1.50843 1.63757,2.08819 0.22196,0.57977 0.76058,1.05412 1.19693,1.05412 0.43634,0 0.82514,0.47435 0.86398,1.05412 0.0388,0.57976 0.24404,1.59623 0.45598,2.25882 0.3458,1.08109 0.0891,1.21694 -2.50156,1.32392 -1.58779,0.0656 -3.8356,0.23203 -4.99513,0.36992 l -2.10823,0.25072 -0.15483,40.43949 -0.15483,40.43948 h 120.17365 120.17366 v -40.35765 -40.35764 h -70.45411 c -68.18506,0 -70.4735,-0.0362 -71.05645,-1.12551 -0.33129,-0.61903 -0.43119,-1.29668 -0.22198,-1.50588 0.20921,-0.20921 0.0481,-0.38038 -0.35792,-0.38038 -0.40606,0 -0.57077,-0.27106 -0.36601,-0.60235 0.20475,-0.3313 0.0692,-0.60235 -0.30118,-0.60235 -0.3704,0 -0.50593,-0.27106 -0.30118,-0.60236 0.20475,-0.33129 0.0401,-0.60235 -0.36602,-0.60235 -0.40606,0 -0.57049,-0.1678 -0.36541,-0.37289 0.20509,-0.20508 -0.0233,-0.76905 -0.50749,-1.25326 -0.48421,-0.48421 -0.72637,-1.12959 -0.53812,-1.43418 0.18824,-0.30458 -0.14809,-0.57519 -0.74741,-0.60134 -0.62387,-0.0272 -0.76986,-0.17674 -0.34154,-0.34977 0.55994,-0.2262 0.58379,-0.60929 0.0948,-1.523 -0.42408,-0.7924 -0.4474,-1.42672 -0.0665,-1.80766 0.73098,-0.73098 33.75014,-1.38567 58.25413,-1.15504 9.93883,0.0935 35.28283,-0.13642 56.32001,-0.51104 21.03717,-0.37461 41.97647,-0.49592 46.53176,-0.26957 l 8.28236,0.41154 v 55.33193 55.33193 H 256 112.33882 Z"
     style="fill:#000080;stroke-width:0.602353" />
  <path
     transform="scale(0.125)"
     id="path1019"
     d="m 240.15638,32.392892 -5.00126,-6.792899 10.61188,-0.164645 c 5.83654,-0.09056 15.2222,-0.09056 20.85702,0 l 10.24514,0.164645 -4.87597,6.475294 -4.87597,6.475295 -8.87155,0.0066 c -4.87935,0.0036 -9.82025,0.146568 -10.97978,0.317605 -2.08622,0.307729 -2.16046,0.24004 -7.10951,-6.481924 z"
     style="fill:#000080;stroke-width:0.602353" />
  <path
     transform="scale(0.125)"
     id="path1021"
     d="m 211.44596,84.610505 c -2.94136,-2.941363 -2.97445,-5.924034 -0.0995,-8.972328 1.65405,-1.753805 2.46372,-2.151124 4.38362,-2.151124 4.08003,0 6.79088,2.565778 6.82022,6.455216 0.016,2.117382 -0.33491,2.893987 -2.10916,4.668236 -2.99283,2.992827 -6.00231,2.992827 -8.99514,0 z"
     style="fill:#000080;stroke-width:0.602353" />
  <path
     transform="scale(0.125)"
     id="path1023"
     d="m 291.58172,84.710047 c -2.91885,-2.752824 -3.01869,-5.976499 -0.28167,-9.093799 1.60358,-1.826374 2.24324,-2.129195 4.49757,-2.129195 2.20514,0 2.97064,0.342533 4.75643,2.128314 2.99282,2.992828 2.99282,6.00231 0,8.995138 -2.94137,2.941362 -5.92404,2.974453 -8.97233,0.09954 z"
     style="fill:#e6e6e6;stroke-width:0.602353" />
  <path
     transform="scale(0.125)"
     id="path1025"
     d="m 151.24704,118.03631 c -0.96284,-0.28801 -2.65696,-1.40212 -3.76471,-2.4758 -1.97795,-1.9171 -2.01409,-2.04557 -2.01409,-7.15803 0,-2.86324 0.18041,-10.999036 0.40092,-18.079549 0.38058,-12.220412 0.46876,-12.9415 1.73782,-14.210555 1.45934,-1.459346 4.23958,-2.31868 9.19523,-2.842122 l 3.20221,-0.338235 -0.3634,19.7034 c -0.19987,10.836871 -0.50837,21.126461 -0.68555,22.865751 l -0.32215,3.16236 -2.81784,-0.0518 c -1.54981,-0.0285 -3.60561,-0.28742 -4.56844,-0.57544 z"
     style="fill:#e6e6e6;stroke-width:0.602353" />
  <path
     transform="scale(0.125)"
     id="path1027"
     d="M 352.0753,96.103669 V 72.94146 l 3.16235,0.333514 c 4.57675,0.482682 7.37609,1.278758 8.93471,2.540854 1.20917,0.979124 1.42205,1.873593 1.82598,7.672137 0.25148,3.610087 0.47438,11.896085 0.49533,18.413325 l 0.0381,11.84954 -2.45483,2.10125 c -1.86956,1.60026 -3.35335,2.25771 -6.22346,2.75752 -2.07274,0.36095 -4.22077,0.65628 -4.7734,0.65628 -0.92072,0 -1.00478,-1.93783 -1.00478,-23.162211 z"
     style="fill:#999999;stroke-width:0.602353" />
  <path
     transform="scale(0.125)"
     id="path1029"
     d="m 145.47496,232.71896 c -5.91035,-5.47193 -7.78679,-9.7443 -7.91082,-18.01164 -0.0462,-3.08118 0.27812,-4.59096 1.54063,-7.17143 1.82299,-3.72607 6.0999,-8.7336 8.94968,-10.47857 2.1686,-1.32786 9.07237,-3.70203 10.76503,-3.70203 1.51173,0 1.41762,0.6544 -1.03949,7.22824 -4.0009,10.70415 -5.08698,15.97469 -6.67172,32.37647 -0.20567,2.12864 -0.5755,3.16235 -1.13139,3.16235 -0.45422,0 -2.48009,-1.53152 -4.50192,-3.40339 z"
     style="fill:#999999;stroke-width:0.602353" />
  <path
     transform="scale(0.125)"
     id="path1031"
     d="m 360.88471,234.24 c -0.20706,-1.03529 -0.37647,-3.05892 -0.37647,-4.49694 0,-6.81935 -1.90906,-16.35349 -5.21241,-26.0315 -1.84397,-5.4024 -3.18909,-9.98614 -2.98914,-10.18609 0.60443,-0.60443 6.68232,0.99567 9.93072,2.61441 3.58688,1.78742 8.40171,6.83038 10.4042,10.89715 1.21903,2.47569 1.41957,3.77978 1.41957,9.23111 0,6.1863 -0.0537,6.43743 -2.10823,9.85067 -2.66867,4.43363 -7.96397,10.00354 -9.51032,10.00354 -0.84134,0 -1.28982,-0.54188 -1.55792,-1.88235 z"
     style="fill:#999999;stroke-width:0.602353" />
  <path
     transform="scale(0.125)"
     id="path1033"
     d="m 152.31464,448.00001 c 0.2012,-4.38965 0.52025,-15.4353 0.709,-24.54589 0.31276,-15.09631 0.63024,-20.32572 1.19944,-19.75653 0.11399,0.11399 0.60311,2.09855 1.08692,4.41013 1.37011,6.54606 5.41064,14.28335 9.24249,17.69862 3.66142,3.26337 19.55337,12.12138 23.84612,13.29158 2.60747,0.71079 2.98888,0.67937 4.11416,-0.339 1.50097,-1.35836 5.96253,-10.5243 5.96253,-12.24958 0,-1.1578 -3.58182,-4.0006 -5.54641,-4.40206 -0.42806,-0.0875 -0.91383,-0.32948 -1.07948,-0.5378 -0.16564,-0.20833 -2.46964,-1.6544 -5.12,-3.21351 -11.84046,-6.96533 -13.55294,-9.29967 -13.55294,-18.47446 0,-8.49852 1.03153,-11.31692 5.93246,-16.20901 5.461,-5.45115 9.04739,-6.83284 16.73642,-6.44786 9.52896,0.4771 11.41541,1.99436 19.65783,15.81066 2.17405,3.64423 4.65514,7.2847 5.51352,8.08992 l 1.56069,1.46404 3.36188,-1.05974 c 1.84904,-0.58286 3.49014,-0.93149 3.64689,-0.77473 0.67542,0.67541 1.3929,8.50412 1.40408,15.32051 l 0.0121,7.37882 H 215.34118 199.68 v 16.26353 16.26353 h -23.86559 -23.86559 z"
     style="fill:#f2f2f2;stroke-width:0.602353" />
  <path
     transform="scale(0.125)"
     id="path1035"
     d="m 112.33882,432.61277 v -55.29313 l 10.53509,0.1944 c 5.7943,0.10692 11.01218,0.33974 11.5953,0.51739 2.60516,0.79369 4.83408,2.25254 5.72378,3.74628 0.53068,0.89097 1.78112,2.44952 2.77876,3.46344 0.99763,1.01393 1.98929,2.54237 2.20367,3.39655 0.38883,1.54922 0.37782,1.5541 -4.47752,1.98389 l -4.86731,0.43086 v 39.64334 c 0,21.80383 -0.16453,40.07209 -0.36562,40.59613 -0.33265,0.86687 10.5047,0.95279 120.16941,0.95279 h 120.53504 v -40.2635 -40.26351 l -69.72235,-0.34834 c -38.3473,-0.19158 -70.12895,-0.51531 -70.62589,-0.71938 -0.84699,-0.34783 -5.42118,-9.64529 -5.42118,-11.01905 0,-0.34629 1.28753,-0.76968 2.86118,-0.94086 4.62883,-0.50352 159.70419,-1.76467 163.20507,-1.32727 l 3.19494,0.39918 v 55.07196 55.07195 H 256 112.33882 Z"
     style="fill:#f2f2f2;stroke-width:0.602353" />
  <path
     transform="scale(0.125)"
     id="path1037"
     d="m 293.18752,85.535983 c -2.78525,-1.69818 -4.16858,-4.782085 -3.19711,-7.127418 2.41389,-5.827652 9.22138,-6.041392 11.92379,-0.374381 0.92182,1.933075 0.92069,2.226784 -0.016,4.19111 -1.00268,2.102652 -4.12027,4.509021 -5.84169,4.509021 -0.49694,0 -1.78797,-0.539249 -2.86896,-1.198332 z"
     style="fill:#000080;stroke-width:0.602353" />
</svg>
