<svg id="Capa_1" enable-background="new 0 0 510 510" height="512" viewBox="0 0 510 510" width="512" xmlns="http://www.w3.org/2000/svg">
<style type="text/css"><![CDATA[
  .cc-base{fill: #00008B;}
  .cc-outline{fill: #1E90FF;}
  .cc-bright{fill: #00BFFF;}
]]></style>
<path class="" d="m506.597 245.486c-46.353-56.474-144.49-122.379-251.597-122.379-107.491 0-205.632 66.353-251.597 122.379-4.538 5.531-4.538 13.497 0 19.028 47.452 57.84 145.819 122.38 251.597 122.38 109.537 0 207.256-68.357 251.597-122.379 4.538-5.532 4.538-13.498 0-19.029zm-149.704 9.514c0 56.184-45.709 101.894-101.894 101.894-56.186 0-101.894-45.713-101.894-101.894 0-56.184 45.709-101.894 101.894-101.894 56.19.001 101.894 45.716 101.894 101.894zm-321.631.004c16.883-17.547 57.591-55.416 114.736-79.721-35.862 47.122-35.876 112.273-.017 159.412-43.449-18.415-83.811-47.509-114.719-79.691zm324.74 79.713c35.862-47.123 35.875-112.273.017-159.412 43.447 18.415 83.81 47.51 114.719 79.69-16.883 17.549-57.591 55.416-114.736 79.722z"/>
<path class="cc-bright" d="m204 255c0 28.122 22.878 51 51 51 28.121 0 51-22.878 51-51s-22.879-51-51-51c-28.122 0-51 22.878-51 51zm72 0c0 11.58-9.421 21-21 21-11.58 0-21-9.42-21-21s9.42-21 21-21c11.579 0 21 9.42 21 21z"/>
</svg>