<?xml version="1.0" encoding="UTF-8" standalone="no"?>
<svg
   xmlns:dc="http://purl.org/dc/elements/1.1/"
   xmlns:cc="http://creativecommons.org/ns#"
   xmlns:rdf="http://www.w3.org/1999/02/22-rdf-syntax-ns#"
   xmlns:svg="http://www.w3.org/2000/svg"
   xmlns="http://www.w3.org/2000/svg"
   xmlns:sodipodi="http://sodipodi.sourceforge.net/DTD/sodipodi-0.dtd"
   xmlns:inkscape="http://www.inkscape.org/namespaces/inkscape"
   inkscape:version="1.0 (4035a4fb49, 2020-05-01)"
   sodipodi:docname="settings.svg"
   xml:space="preserve"
   style="enable-background:new 0 0 512 512;"
   viewBox="0 0 512 512"
   y="0px"
   x="0px"
   id="Capa_1"
   version="1.1"><metadata
   id="metadata302"><rdf:RDF><cc:Work
       rdf:about=""><dc:format>image/svg+xml</dc:format><dc:type
         rdf:resource="http://purl.org/dc/dcmitype/StillImage" /></cc:Work></rdf:RDF></metadata><defs
   id="defs300" /><sodipodi:namedview
   inkscape:current-layer="Capa_1"
   inkscape:window-maximized="1"
   inkscape:window-y="-8"
   inkscape:window-x="-8"
   inkscape:cy="256"
   inkscape:cx="140.04706"
   inkscape:zoom="1.6601562"
   showgrid="false"
   id="namedview298"
   inkscape:window-height="1017"
   inkscape:window-width="1920"
   inkscape:pageshadow="2"
   inkscape:pageopacity="0"
   guidetolerance="10"
   gridtolerance="10"
   objecttolerance="10"
   borderopacity="1"
   bordercolor="#666666"
   pagecolor="#ffffff" />
<g
   id="g213">
	<path
   id="path175"
   d="M224.512,299.46c0.495,0.631,0.973,1.28,1.451,1.937C225.485,300.74,225.007,300.092,224.512,299.46   z"
   style="fill:#78B9EB;" />
	<path
   id="path177"
   d="M219.255,293.393c0.35,0.358,0.657,0.742,0.998,1.109   C219.913,294.135,219.605,293.751,219.255,293.393z"
   style="fill:#78B9EB;" />
	<path
   id="path179"
   d="M229.402,306.654c0.307,0.521,0.649,1.024,0.947,1.553   C230.05,307.678,229.709,307.2,229.402,306.654z"
   style="fill:#78B9EB;" />
	<path
   id="path181"
   d="M233.813,315.418c0.23,0.572,0.418,1.169,0.64,1.707   C234.231,316.587,234.044,315.989,233.813,315.418z"
   style="fill:#78B9EB;" />
	<path
   id="path183"
   d="M211.738,286.882c0.538,0.41,1.101,0.802,1.63,1.22   C212.838,287.676,212.275,287.292,211.738,286.882z"
   style="fill:#78B9EB;" />
	<path
   id="path185"
   d="M204.655,282.18c0.691,0.393,1.365,0.853,2.048,1.237   C206.02,282.999,205.346,282.581,204.655,282.18z"
   style="fill:#78B9EB;" />
	<path
   id="path187"
   d="M209.195,397.653c5.043-3.174,9.771-6.81,14.131-10.871c1.203-1.135,2.261-2.432,3.132-3.84   c4.676-7.543,8.132-15.778,10.24-24.397C232.542,374.468,222.78,388.361,209.195,397.653z"
   style="fill:#78B9EB;" />
	<path
   id="path189"
   d="M179.123,273.647c0.811,0.094,1.604,0.239,2.398,0.367   C180.727,273.92,179.934,273.741,179.123,273.647z"
   style="fill:#78B9EB;" />
	<path
   id="path191"
   d="M197.453,278.528c0.299,0.128,0.572,0.29,0.853,0.418   C198.025,278.818,197.751,278.656,197.453,278.528z"
   style="fill:#78B9EB;" />
	<path
   id="path193"
   d="M236.433,323.234c0.222,0.802,0.427,1.604,0.623,2.415   C236.86,324.838,236.655,324.036,236.433,323.234z"
   style="fill:#78B9EB;" />
	<path
   id="path195"
   d="M170.351,409.6c-1.937,0-3.823-0.196-5.717-0.367C166.528,409.387,168.414,409.6,170.351,409.6z"
   style="fill:#78B9EB;" />
	<path
   id="path197"
   d="M187.938,407.313l-1.024,0.265L187.938,407.313z"
   style="fill:#78B9EB;" />
	<path
   id="path199"
   d="M238.285,332.399c0.068,0.503,0.171,0.99,0.23,1.493   C238.455,333.389,238.353,332.902,238.285,332.399z"
   style="fill:#78B9EB;" />
	<path
   id="path201"
   d="M161.818,409.02c-2.765-0.367-5.513-0.879-8.218-1.553   C156.305,408.141,159.053,408.653,161.818,409.02z"
   style="fill:#78B9EB;" />
	<path
   id="path203"
   d="M179.49,408.969c-0.393,0.051-0.759,0.128-1.152,0.171   C178.722,409.097,179.106,409.02,179.49,408.969z"
   style="fill:#78B9EB;" />
	<path
   id="path205"
   d="M208.085,398.404c-1.212,0.794-2.458,1.536-3.721,2.261   C205.653,399.983,206.848,399.172,208.085,398.404z"
   style="fill:#78B9EB;" />
	<path
   id="path207"
   d="M238.882,342.349c0,0.742-0.077,1.468-0.111,2.202C238.805,343.817,238.874,343.04,238.882,342.349z   "
   style="fill:#78B9EB;" />
	<path
   id="path209"
   d="M238.165,351.053c-0.145,1.007-0.273,2.022-0.461,3.012   C237.884,353.058,238.029,352.06,238.165,351.053z"
   style="fill:#78B9EB;" />
	<path
   id="path211"
   d="M187.631,275.277c0.734,0.188,1.476,0.35,2.202,0.563   C189.107,275.627,188.365,275.465,187.631,275.277z"
   style="fill:#78B9EB;" />
</g>
<path
   id="path215"
   d="M25.6,375.467h9.387c7.074,0,13.397,4.386,15.889,11.008c0.973,2.56,2.022,5.077,3.149,7.552  c2.953,6.451,1.596,14.054-3.413,19.081l-6.665,6.733c-6.647,6.665-6.647,17.451,0,24.115l24.115,24.115  c6.665,6.647,17.451,6.647,24.115,0l6.699-6.673c5.026-5.009,12.629-6.366,19.081-3.413c2.475,1.135,4.992,2.185,7.552,3.149  c6.622,2.483,11.017,8.806,11.025,15.881v9.387c0,9.429,7.637,17.067,17.067,17.067h34.133c9.429,0,17.067-7.637,17.067-17.067  v-9.387c0-7.074,4.386-13.397,11.008-15.889c2.56-0.973,5.077-2.022,7.552-3.149c6.451-2.953,14.054-1.596,19.081,3.413l6.699,6.673  c6.665,6.647,17.451,6.647,24.115,0l24.115-24.115c6.647-6.665,6.647-17.451,0-24.115l-6.673-6.699  c-5.009-5.026-6.366-12.629-3.413-19.081c1.135-2.475,2.185-4.992,3.149-7.552c2.483-6.639,8.824-11.034,15.915-11.034h9.387  c9.429,0,17.067-7.637,17.067-17.067v-34.133c0-9.429-7.637-17.067-17.067-17.067h-9.387c-7.074,0-13.397-4.386-15.889-11.008  c-0.973-2.56-2.022-5.077-3.149-7.552c-2.961-6.451-1.596-14.054,3.413-19.081l6.673-6.699c6.647-6.665,6.647-17.451,0-24.115  L273.28,214.63c-6.665-6.647-17.451-6.647-24.115,0l-6.699,6.673c-5.026,5.009-12.629,6.366-19.081,3.413  c-2.475-1.135-4.992-2.185-7.552-3.149c-6.639-2.483-11.034-8.823-11.034-15.915v-9.387c0-9.429-7.637-17.067-17.067-17.067H153.6  c-9.429,0-17.067,7.637-17.067,17.067v9.387c0,7.074-4.386,13.397-11.008,15.889c-2.56,0.973-5.077,2.022-7.552,3.149  c-6.451,2.953-14.054,1.596-19.081-3.413l-6.733-6.665c-6.665-6.647-17.451-6.647-24.115,0l-24.081,24.132  c-6.647,6.665-6.647,17.451,0,24.115l6.673,6.699c5.009,5.026,6.374,12.629,3.413,19.081c-1.135,2.475-2.185,4.992-3.149,7.552  c-2.492,6.63-8.832,11.017-15.915,11.008H25.6c-9.429,0-17.067,7.637-17.067,17.067V358.4  C8.533,367.829,16.171,375.467,25.6,375.467z M153.6,275.2c5.581-1.408,11.315-2.125,17.067-2.133  c2.825,0.017,5.649,0.213,8.457,0.58c0.811,0.094,1.604,0.239,2.398,0.367c2.074,0.324,4.105,0.751,6.11,1.263  c0.734,0.188,1.476,0.35,2.202,0.563c2.594,0.742,5.137,1.638,7.62,2.688c0.299,0.128,0.572,0.29,0.853,0.418  c2.167,0.964,4.284,2.048,6.34,3.234c0.691,0.401,1.365,0.853,2.048,1.237c1.707,1.084,3.413,2.244,5.035,3.465  c0.538,0.41,1.101,0.794,1.63,1.22c2.057,1.655,4.028,3.422,5.888,5.291c0.35,0.358,0.657,0.742,0.998,1.109  c1.502,1.579,2.927,3.234,4.267,4.958c0.495,0.631,0.973,1.28,1.451,1.937c1.22,1.707,2.372,3.413,3.413,5.257  c0.307,0.521,0.649,1.024,0.947,1.553c1.297,2.33,2.449,4.745,3.465,7.211c0.23,0.572,0.418,1.161,0.64,1.707  c0.751,1.988,1.417,4.011,1.98,6.076c0.222,0.802,0.427,1.604,0.623,2.415c0.521,2.227,0.93,4.48,1.229,6.75  c0.068,0.503,0.171,0.99,0.23,1.493c0.282,2.483,0.435,4.975,0.444,7.475c0,0.341,0,0.674-0.051,1.015  c0,0.725-0.077,1.468-0.111,2.202c-0.102,2.193-0.299,4.361-0.606,6.502c-0.137,1.007-0.282,2.005-0.461,3.012  c-0.29,1.527-0.666,3.012-1.05,4.506c-2.108,8.619-5.564,16.853-10.24,24.397c-0.87,1.408-1.929,2.705-3.132,3.84  c-4.343,4.045-9.062,7.68-14.089,10.846l-1.109,0.725c-1.237,0.768-2.475,1.579-3.721,2.261c-5.163,2.927-10.684,5.154-16.427,6.647  l-1.024,0.265c-2.449,0.597-4.924,1.067-7.424,1.391c-0.384,0.051-0.768,0.128-1.152,0.171c-2.543,0.307-5.111,0.469-7.671,0.486  h-0.316c-1.937,0-3.823-0.196-5.717-0.367c-0.93-0.085-1.894-0.077-2.816-0.196c-2.765-0.367-5.513-0.896-8.218-1.57  c-36.523-9.446-58.479-46.711-49.033-83.234C110.788,300.186,129.562,281.421,153.6,275.2z"
   style="fill:#FFAF46;" />
<g
   id="g255">
	<path
   id="path217"
   d="M230.349,308.207c1.297,2.33,2.449,4.745,3.465,7.211   C232.798,312.951,231.646,310.537,230.349,308.207z"
   style="fill:#78B9EB;" />
	<path
   id="path219"
   d="M234.453,317.158c0.751,1.988,1.417,4.011,1.98,6.076   C235.87,321.169,235.204,319.147,234.453,317.158z"
   style="fill:#78B9EB;" />
	<path
   id="path221"
   d="M238.933,341.333c-0.009-2.483-0.145-4.966-0.418-7.441c0.299,2.807,0.418,5.632,0.367,8.457   C238.933,342.007,238.933,341.675,238.933,341.333z"
   style="fill:#78B9EB;" />
	<path
   id="path223"
   d="M237.056,325.649c0.521,2.227,0.93,4.48,1.229,6.75   C237.986,330.129,237.577,327.876,237.056,325.649z"
   style="fill:#78B9EB;" />
	<path
   id="path225"
   d="M181.521,274.014c2.074,0.324,4.105,0.751,6.11,1.263   C185.626,274.773,183.595,274.338,181.521,274.014z"
   style="fill:#78B9EB;" />
	<path
   id="path227"
   d="M170.667,273.067c2.825,0.017,5.649,0.213,8.457,0.58   C176.316,273.28,173.491,273.084,170.667,273.067z"
   style="fill:#78B9EB;" />
	<path
   id="path229"
   d="M198.315,278.946c2.167,0.964,4.284,2.039,6.34,3.234   C202.598,280.994,200.482,279.91,198.315,278.946z"
   style="fill:#78B9EB;" />
	<path
   id="path231"
   d="M189.833,275.84c2.594,0.742,5.137,1.638,7.62,2.688C194.97,277.478,192.427,276.582,189.833,275.84   z"
   style="fill:#78B9EB;" />
	<path
   id="path233"
   d="M225.963,301.397c1.22,1.707,2.372,3.413,3.413,5.257   C228.335,304.845,227.183,303.087,225.963,301.397z"
   style="fill:#78B9EB;" />
	<path
   id="path235"
   d="M220.254,294.502c1.493,1.579,2.918,3.234,4.267,4.958   C223.181,297.737,221.756,296.081,220.254,294.502z"
   style="fill:#78B9EB;" />
	<path
   id="path237"
   d="M206.703,283.418c1.707,1.084,3.413,2.244,5.035,3.465   C210.108,285.662,208.435,284.501,206.703,283.418z"
   style="fill:#78B9EB;" />
	<path
   id="path239"
   d="M213.333,288.102c2.065,1.647,4.028,3.413,5.888,5.291   C217.361,291.524,215.39,289.758,213.333,288.102z"
   style="fill:#78B9EB;" />
	<path
   id="path241"
   d="M204.365,400.666c-5.188,2.876-10.701,5.103-16.427,6.647   C193.681,405.82,199.202,403.593,204.365,400.666z"
   style="fill:#78B9EB;" />
	<path
   id="path243"
   d="M186.88,407.578c-2.449,0.597-4.924,1.067-7.424,1.391   C181.956,408.644,184.431,408.175,186.88,407.578z"
   style="fill:#78B9EB;" />
	<path
   id="path245"
   d="M170.667,409.6c2.569-0.009,5.129-0.162,7.68-0.461c-2.654,0.307-5.316,0.452-7.987,0.444   L170.667,409.6z"
   style="fill:#78B9EB;" />
	<path
   id="path247"
   d="M164.634,409.216c-0.93-0.085-1.894-0.077-2.816-0.196   C162.739,409.139,163.703,409.131,164.634,409.216z"
   style="fill:#78B9EB;" />
	<path
   id="path249"
   d="M238.771,344.55c-0.094,2.15-0.307,4.318-0.606,6.502   C238.473,348.911,238.669,346.743,238.771,344.55z"
   style="fill:#78B9EB;" />
	<path
   id="path251"
   d="M209.195,397.653c-0.367,0.239-0.734,0.495-1.109,0.725L209.195,397.653z"
   style="fill:#78B9EB;" />
	<path
   id="path253"
   d="M237.705,354.065c-0.273,1.493-0.683,3.004-1.05,4.506   C237.039,357.077,237.414,355.593,237.705,354.065z"
   style="fill:#78B9EB;" />
</g>
<g
   id="g265">
	<path
   id="path257"
   d="M315.733,298.667h-9.387c-3.533,0.009-6.69-2.193-7.902-5.513c-1.041-2.731-2.159-5.402-3.362-8.047   c-1.493-3.217-0.811-7.023,1.707-9.523l6.69-6.699c9.933-10.018,9.916-26.18-0.043-36.173l-24.115-24.115   c-10.01-9.95-26.172-9.95-36.181,0l-6.69,6.682c-2.5,2.509-6.306,3.191-9.523,1.707c-2.645-1.203-5.316-2.321-8.055-3.413   c-3.337-1.203-5.547-4.378-5.538-7.919v-9.387c0-14.14-11.46-25.6-25.6-25.6H153.6c-14.14,0-25.6,11.46-25.6,25.6v9.387   c0.009,3.533-2.193,6.69-5.513,7.902c-2.731,1.041-5.402,2.159-8.047,3.362c-3.217,1.485-7.023,0.802-9.523-1.707l-6.699-6.69   c-10.01-9.941-26.163-9.941-36.173,0l-24.115,24.192c-9.95,10.01-9.95,26.172,0,36.181l6.682,6.69c2.517,2.5,3.2,6.306,1.707,9.523   c-1.203,2.645-2.321,5.316-3.371,8.055c-1.22,3.337-4.412,5.538-7.962,5.504H25.6c-14.14,0-25.6,11.46-25.6,25.6V358.4   C0,372.54,11.46,384,25.6,384h9.387c3.533-0.009,6.69,2.193,7.902,5.513c1.041,2.731,2.159,5.402,3.362,8.047   c1.493,3.217,0.811,7.023-1.707,9.523l-6.69,6.699c-9.941,10.01-9.941,26.163,0,36.173l24.115,24.115   c10.01,9.95,26.172,9.95,36.181,0l6.69-6.682c2.5-2.509,6.306-3.191,9.523-1.707c2.645,1.203,5.316,2.321,8.055,3.413   c3.354,1.186,5.589,4.361,5.581,7.919v9.387c0,14.14,11.46,25.6,25.6,25.6h34.133c14.14,0,25.6-11.46,25.6-25.6v-9.387   c-0.009-3.533,2.193-6.69,5.513-7.902c2.731-1.041,5.402-2.159,8.047-3.362c3.217-1.485,7.023-0.802,9.523,1.707l6.699,6.69   c10.018,9.924,26.172,9.907,36.173-0.043l24.115-24.115c9.95-10.01,9.95-26.172,0-36.181l-6.682-6.69   c-2.517-2.5-3.2-6.306-1.707-9.523c1.203-2.645,2.321-5.316,3.413-8.055c1.203-3.337,4.378-5.547,7.919-5.538h9.387   c14.14,0,25.6-11.46,25.6-25.6v-34.133C341.333,310.127,329.873,298.667,315.733,298.667z M324.267,358.4   c0,4.71-3.823,8.533-8.533,8.533h-9.387c-10.607,0.043-20.105,6.596-23.893,16.503c-0.905,2.389-1.886,4.745-2.935,7.057   c-4.386,9.685-2.355,21.069,5.12,28.638l6.673,6.682c3.337,3.328,3.337,8.73,0.009,12.066l-0.009,0.009l-24.115,24.115   c-3.328,3.328-8.73,3.328-12.066,0l-6.69-6.682c-7.561-7.475-18.953-9.515-28.638-5.12c-2.313,1.05-4.668,2.031-7.04,2.935   c-9.899,3.789-16.452,13.278-16.495,23.876v9.387c0,4.71-3.823,8.533-8.533,8.533H153.6c-4.71,0-8.533-3.823-8.533-8.533v-9.387   c-0.043-10.607-6.596-20.105-16.503-23.893c-2.389-0.905-4.745-1.886-7.057-2.935c-9.685-4.386-21.069-2.347-28.638,5.12   l-6.682,6.673c-3.328,3.337-8.73,3.337-12.066,0.009l-0.009-0.009l-24.115-24.09c-3.328-3.328-3.328-8.738,0-12.066l6.682-6.69   c7.475-7.569,9.506-18.953,5.12-28.638c-1.05-2.313-2.031-4.668-2.935-7.04c-3.78-9.907-13.269-16.478-23.876-16.521H25.6   c-4.71,0-8.533-3.823-8.533-8.533v-34.133c0-4.71,3.823-8.533,8.533-8.533h9.387c10.607-0.043,20.105-6.596,23.893-16.503   c0.905-2.389,1.886-4.745,2.935-7.057c4.386-9.685,2.355-21.069-5.12-28.638l-6.707-6.682c-3.337-3.328-3.337-8.73-0.009-12.066   l0.009-0.009l24.115-24.115c3.337-3.328,8.73-3.328,12.066,0l6.69,6.682c7.561,7.475,18.953,9.515,28.638,5.12   c2.313-1.05,4.668-2.031,7.04-2.935c9.916-3.78,16.478-13.269,16.529-23.876v-9.387c0-4.71,3.823-8.533,8.533-8.533h34.133   c4.71,0,8.533,3.823,8.533,8.533v9.387c0.043,10.607,6.596,20.105,16.503,23.893c2.389,0.905,4.745,1.886,7.057,2.935   c9.685,4.395,21.077,2.355,28.638-5.12l6.682-6.673c3.345-3.311,8.73-3.311,12.075,0l24.115,24.115   c3.328,3.328,3.328,8.738,0,12.066l-6.682,6.69c-7.475,7.569-9.506,18.953-5.12,28.638c1.05,2.313,2.031,4.668,2.935,7.04   c3.789,9.899,13.278,16.452,23.876,16.495h9.387c4.71,0,8.533,3.823,8.533,8.533V358.4z"
   style="fill:#231F20;" />
	<path
   id="path259"
   d="M247.296,337.92c-0.085-2.048-0.23-4.087-0.478-6.118c-0.273-2.185-0.597-4.352-1.05-6.477   c-0.299-1.391-0.691-2.765-1.067-4.147c-0.478-1.758-1.015-3.49-1.613-5.197c-0.418-1.186-0.853-2.364-1.297-3.533   c-1.101-2.731-2.355-5.402-3.763-7.987c-0.111-0.196-0.179-0.41-0.29-0.606c-2.219-3.951-4.787-7.697-7.68-11.187   c-0.247-0.307-0.529-0.597-0.785-0.896c-1.178-1.391-2.389-2.739-3.661-4.028c-0.666-0.691-1.365-1.34-2.065-2.005   c-0.853-0.794-1.707-1.579-2.56-2.33c-1.033-0.896-2.091-1.766-3.166-2.611l-1.399-1.041c-13.201-9.89-29.261-15.232-45.756-15.223   c-0.853,0-1.707,0.128-2.56,0.162c-1.818,0.051-3.644,0.154-5.478,0.341c-0.964,0.102-1.937,0.213-2.901,0.35   c-2.782,0.367-5.538,0.879-8.269,1.545c-41.088,10.615-65.792,52.531-55.177,93.628c6.997,27.076,28.151,48.213,55.236,55.185   c0.137,0,0.282,0.043,0.427,0.077c2.944,0.734,5.931,1.306,8.943,1.707c1.988,0.247,3.977,0.299,5.973,0.393   c1.331,0.068,2.56,0.265,3.951,0.265c2.432,0,4.958-0.162,7.535-0.418c0.273,0,0.546-0.077,0.853-0.111   c2.074-0.23,4.173-0.538,6.315-0.964c0.853-0.162,1.647-0.375,2.466-0.563c1.502-0.35,2.995-0.717,4.531-1.169   c1.195-0.358,2.355-0.777,3.524-1.186c1.169-0.41,2.381-0.853,3.593-1.314s2.227-0.99,3.328-1.502   c1.434-0.657,2.859-1.306,4.267-2.074h0.051c7.962-4.267,15.317-9.574,21.871-15.795c1.766-1.655,3.311-3.533,4.574-5.598   c6.665-10.675,11.034-22.622,12.851-35.072c0.239-1.647,0.452-3.294,0.58-4.975c0.119-1.545,0.205-3.081,0.239-4.617   c0-0.486,0.068-0.947,0.068-1.434C247.467,340.19,247.347,339.081,247.296,337.92z M155.674,283.477   c4.898-1.237,9.941-1.869,14.993-1.877c2.441,0.017,4.873,0.179,7.296,0.495c0.649,0.077,1.289,0.196,1.929,0.29   c1.843,0.29,3.669,0.657,5.47,1.118c0.589,0.154,1.178,0.29,1.758,0.452c4.54,1.306,8.909,3.149,13.013,5.478   c0.657,0.384,1.297,0.785,1.946,1.186c1.348,0.853,2.654,1.707,3.942,2.679c0.691,0.503,1.391,0.998,2.057,1.536   c1.673,1.34,3.277,2.765,4.804,4.267c0.606,0.614,1.161,1.289,1.749,1.929c0.981,1.067,1.937,2.159,2.85,3.311   c0.631,0.794,1.237,1.613,1.835,2.441c0.853,1.229,1.707,2.509,2.475,3.806c0.427,0.708,0.853,1.399,1.289,2.125   c1.101,2.022,2.082,4.113,2.935,6.255c0.341,0.853,0.631,1.707,0.939,2.56c0.555,1.57,1.033,3.157,1.451,4.762   c0.213,0.853,0.452,1.613,0.631,2.441c0.495,2.304,0.862,4.642,1.084,6.989c0.051,0.623,0.051,1.254,0.094,1.877   c0.119,1.963,0.154,3.934,0.077,5.914c0,0.708-0.06,1.417-0.102,2.116c-0.154,2.065-0.418,4.13-0.768,6.204   c-3.191,17.741-14.208,33.101-29.986,41.813c-1.058,0.555-2.099,1.075-3.14,1.553l-0.708,0.341   c-4.958,2.253-10.189,3.831-15.565,4.71c-0.375,0.06-0.759,0.128-1.143,0.179c-1.067,0.154-2.116,0.282-3.157,0.375   c-1.374,0.119-2.756,0.188-4.164,0.213c-0.597,0-1.186,0-1.783,0c-2.022-0.026-4.036-0.145-6.042-0.375l-1.024-0.119   c-2.347-0.307-4.676-0.742-6.972-1.314c-31.957-8.183-51.234-40.721-43.059-72.678c5.402-21.12,21.888-37.615,42.999-43.042   L155.674,283.477z"
   style="fill:#231F20;" />
	<path
   id="path261"
   d="M486.4,179.2h-26.837c-3.575,0.034-6.784-2.219-7.953-5.598c-2.645-7.927-5.845-15.659-9.583-23.134   c-1.587-3.226-0.922-7.108,1.638-9.634l19.029-19.055c9.984-9.993,9.984-26.197,0-36.19l-36.284-36.224   c-9.993-9.984-26.197-9.984-36.19,0L371.2,68.378c-2.517,2.56-6.4,3.226-9.626,1.647c-7.475-3.755-15.206-6.972-23.142-9.634   c-3.396-1.161-5.666-4.369-5.632-7.953V25.6c0-14.14-11.46-25.6-25.6-25.6H256c-14.14,0-25.6,11.46-25.6,25.6v26.837   c0.034,3.575-2.219,6.784-5.598,7.953c-7.927,2.662-15.659,5.879-23.134,9.626c-3.226,1.587-7.117,0.93-9.634-1.638l-19.055-19.029   c-10.01-9.958-26.18-9.958-36.19,0l-36.215,36.215c-9.993,9.993-9.993,26.206,0,36.198l27.981,28.032   c3.388,3.277,8.789,3.191,12.066-0.188c3.2-3.302,3.209-8.542,0.017-11.861l-27.998-28.023c-3.328-3.337-3.328-8.73,0-12.066   l36.215-36.215c3.328-3.328,8.738-3.328,12.066,0l19.063,19.029c7.714,7.757,19.533,9.702,29.321,4.813   c6.758-3.388,13.747-6.289,20.915-8.695c10.342-3.499,17.289-13.227,17.246-24.149V25.6c0-4.71,3.823-8.533,8.533-8.533h51.2   c4.71,0,8.533,3.823,8.533,8.533v26.837c-0.043,10.923,6.903,20.642,17.246,24.141c7.168,2.406,14.165,5.316,20.924,8.704   c9.788,4.864,21.589,2.918,29.312-4.821l19.063-19.021c3.328-3.328,8.738-3.328,12.066,0l36.215,36.224   c3.328,3.328,3.328,8.73,0,12.058l-19.029,19.063c-7.748,7.714-9.694,19.533-4.813,29.321c3.388,6.758,6.289,13.747,8.695,20.915   c3.499,10.342,13.227,17.297,24.149,17.246H486.4c4.71,0,8.533,3.823,8.533,8.533V256c0,4.71-3.823,8.533-8.533,8.533h-26.837   c-10.923-0.043-20.642,6.903-24.141,17.246c-2.406,7.168-5.316,14.165-8.704,20.924c-4.873,9.788-2.927,21.598,4.821,29.312   l19.029,19.063c3.328,3.328,3.328,8.738,0,12.066l-36.233,36.215c-3.328,3.328-8.73,3.328-12.058,0l-28.041-27.981   c-3.277-3.388-8.678-3.473-12.066-0.196c-3.388,3.277-3.473,8.678-0.196,12.066c0.068,0.068,0.137,0.137,0.213,0.205l28.032,27.981   c9.993,9.984,26.197,9.984,36.19,0l36.215-36.207c9.993-10.001,9.993-26.197,0-36.198L443.622,320   c-2.56-2.517-3.226-6.4-1.647-9.626c3.755-7.475,6.972-15.206,9.634-23.142c1.161-3.396,4.369-5.666,7.953-5.632H486.4   c14.14,0,25.6-11.46,25.6-25.6v-51.2C512,190.66,500.54,179.2,486.4,179.2z"
   style="fill:#231F20;" />
	<path
   sodipodi:nodetypes="ccccsccsccc"
   id="path263"
   d="m 360.038,151.962 c -43.349,-43.255 -113.527,-43.255 -156.877,0 -3.277,3.388 -67.03241,-6.87218 -63.63641,-3.59518 3.311,3.191 72.39941,18.85218 75.70241,15.66118 36.412,-36.898 95.846,-37.299 132.745,-0.887 36.899,36.412 37.299,95.846 0.887,132.745 -0.299,0.299 -0.589,0.597 -0.887,0.887 -3.388,3.277 12.17918,72.52741 15.45618,75.91541 3.277,3.388 -6.98318,-60.36741 -3.59518,-63.64441 l 0.205,-0.205 c 43.256,-43.35 43.256,-113.528 0,-156.877 z"
   style="fill:#231f20" />
</g>
<g
   id="g267">
</g>
<g
   id="g269">
</g>
<g
   id="g271">
</g>
<g
   id="g273">
</g>
<g
   id="g275">
</g>
<g
   id="g277">
</g>
<g
   id="g279">
</g>
<g
   id="g281">
</g>
<g
   id="g283">
</g>
<g
   id="g285">
</g>
<g
   id="g287">
</g>
<g
   id="g289">
</g>
<g
   id="g291">
</g>
<g
   id="g293">
</g>
<g
   id="g295">
</g>
<path
   id="path304"
   d="m 405.38353,400.8152 c -1.25397,-0.53951 -8.33222,-7.10328 -17.46824,-16.19857 -9.86061,-9.81665 -15.95096,-15.43702 -17.0106,-15.6979 -0.90784,-0.22351 -2.72255,-0.30416 -4.0327,-0.17922 l -2.38209,0.22717 -0.35374,-3.62687 c -0.19454,-1.99478 -1.16952,-11.35205 -2.1666,-20.79393 -0.99709,-9.44188 -1.97796,-21.01615 -2.17971,-25.7206 l -0.36684,-8.55355 4.21179,-4.69822 c 15.77358,-17.59533 25.14844,-37.95948 28.17391,-61.19966 6.16655,-47.36829 -19.08736,-93.7129 -62.32165,-114.36934 -25.73852,-12.29732 -56.99561,-14.01103 -84.23554,-4.61831 -14.40861,4.96831 -26.56663,12.1445 -38.79887,22.90078 l -4.67206,4.10831 -4.06206,-0.0163 c -3.86429,-0.0155 -8.32379,-0.41804 -40.95485,-3.69668 l -14.00339,-1.407 0.35806,-1.91056 c 0.8282,-4.41923 0.32561,-5.0959 -16.02931,-21.5812 -16.61649,-16.74895 -17.43669,-17.86941 -16.21049,-22.1449 0.39931,-1.39231 6.14792,-7.538138 20.28405,-21.685626 21.62249,-21.639868 21.95455,-21.890767 26.48126,-20.00866 1.4501,0.602921 6.44933,5.071001 13.72555,12.267251 6.29459,6.225408 12.39341,11.871894 13.55294,12.547746 4.29685,2.504499 8.17422,3.335246 14.36403,3.077572 5.5696,-0.231852 6.11959,-0.383855 13.04303,-3.604715 3.97553,-1.849458 9.93883,-4.347079 13.25177,-5.550267 3.31294,-1.203188 7.23264,-2.796484 8.71045,-3.540656 4.17179,-2.100765 8.81483,-7.027752 11.02992,-11.704448 l 1.94433,-4.105062 0.30118,-18.098965 c 0.33299,-20.010604 0.35422,-20.119629 4.39978,-22.586364 1.83432,-1.118454 3.2291,-1.173697 29.63316,-1.173697 26.40406,0 27.79884,0.05524 29.63316,1.173697 4.04556,2.466735 4.06679,2.57576 4.39978,22.586364 l 0.30118,18.098965 1.64683,3.515268 c 3.64492,7.780302 7.80303,11.158765 18.88772,15.346282 4.27682,1.615673 10.89321,4.402664 14.70309,6.193314 l 6.92706,3.255724 h 6.92706 c 6.59148,0 7.13133,-0.09665 11.14353,-1.995017 3.66716,-1.735114 5.70747,-3.477564 15.66118,-13.374842 12.60612,-12.534652 14.34689,-13.723339 18.47087,-12.612864 2.10828,0.567697 5.28417,3.50855 21.9729,20.346701 14.11998,14.2464 19.65889,20.223799 20.05318,21.640729 1.14711,4.12225 0.1057,5.68102 -11.97237,17.92 -6.21184,6.29459 -11.88913,12.31516 -12.6162,13.37905 -2.36529,3.46104 -3.73218,8.51129 -3.73766,13.80961 -0.005,5.5198 0.63674,7.68448 5.3386,17.98781 1.66302,3.64423 3.87721,9.06541 4.92043,12.04706 3.2253,9.21834 7.32849,14.08669 14.83586,17.60247 l 3.57204,1.67282 18.09896,0.30118 c 20.0106,0.33299 20.11963,0.35422 22.58636,4.39978 1.11846,1.83432 1.1737,3.2291 1.1737,29.63316 0,26.40406 -0.0552,27.79884 -1.1737,29.63316 -2.46673,4.04556 -2.57576,4.06679 -22.58636,4.39978 l -18.09896,0.30118 -3.57204,1.67282 c -4.44999,2.08397 -8.22541,5.14016 -10.58313,8.56699 -0.99682,1.44882 -3.1245,6.10745 -4.72818,10.3525 -1.60369,4.24505 -4.37028,10.83545 -6.14799,14.64533 -3.09122,6.62496 -3.24288,7.18435 -3.47742,12.82632 -0.20814,5.00674 -0.0404,6.46484 1.10881,9.63765 0.74473,2.05611 1.90011,4.55156 2.56752,5.54545 0.66741,0.99388 6.17883,6.82164 12.2476,12.95058 12.18946,12.31033 13.36452,14.05656 12.24827,18.202 -0.57923,2.15105 -3.39627,5.19397 -20.34553,21.9768 -15.04723,14.89947 -20.16923,19.61784 -21.78263,20.06608 -2.57358,0.71501 -2.26409,0.73822 -4.81999,-0.36144 z"
   style="fill:#ffaf46;fill-opacity:1;stroke-width:0.602353" /><path
   id="path306"
   d="m 404.87565,399.93483 c -1.10757,-0.67525 -7.07087,-6.16937 -13.25177,-12.20916 -6.1809,-6.03978 -13.20826,-12.80488 -15.61634,-15.03355 -4.3023,-3.98173 -4.43604,-4.05212 -7.69891,-4.05212 -2.12484,0 -3.40836,-0.27113 -3.56437,-0.75294 -0.41878,-1.29325 -3.88153,-37.6169 -4.54044,-47.62841 l -0.6272,-9.52958 4.67425,-5.40841 c 7.51445,-8.69468 11.93543,-15.285 16.72067,-24.92537 8.03393,-16.18517 11.06264,-28.2404 11.58718,-46.12067 0.38354,-13.07363 -0.322,-20.49551 -2.93552,-30.88002 -7.38464,-29.34205 -25.87625,-54.02035 -51.97784,-69.36796 -18.06569,-10.62254 -37.63641,-15.33272 -60.56301,-14.57596 -26.38028,0.87074 -49.19433,10.03776 -70.45309,28.30906 l -5.41345,4.6527 -8.18865,-0.62155 c -8.67154,-0.6582 -42.77825,-3.94458 -47.10716,-4.53904 l -2.56,-0.35155 v -2.88448 c 0,-3.9204 -1.12429,-5.35908 -16.1956,-20.72449 -6.88344,-7.01776 -13.37397,-13.95224 -14.4234,-15.40994 -2.87521,-3.99379 -2.60504,-5.29085 2.2388,-10.748153 6.72354,-7.575095 35.13854,-35.439012 37.23499,-36.512865 4.01647,-2.057329 4.81552,-1.566231 17.96767,11.042946 5.62223,5.390134 11.53312,10.850861 13.13531,12.134957 4.12469,3.305785 8.04158,4.297981 15.94373,4.038728 6.26214,-0.20545 6.63546,-0.298104 13.36909,-3.318007 3.80988,-1.708658 10.17976,-4.388532 14.15529,-5.955282 3.97553,-1.566752 8.19369,-3.456666 9.37369,-4.199811 3.07775,-1.938321 7.63102,-7.21198 9.57752,-11.092817 l 1.67371,-3.336968 0.43949,-17.453892 c 0.25909,-10.289232 0.72386,-18.316152 1.13224,-19.554451 0.39202,-1.188632 1.52864,-2.662997 2.61814,-3.396095 1.81733,-1.222836 2.86519,-1.316554 18.67294,-1.670051 9.21116,-0.205983 22.07921,-0.175018 28.59567,0.06881 11.42913,0.427648 11.90329,0.495188 13.40912,1.909976 0.85856,0.806658 1.81204,2.433011 2.11884,3.614117 0.30681,1.181107 0.7419,9.872643 0.96687,19.314526 l 0.40905,17.167059 2.11689,4.073779 c 3.83394,7.378113 7.55296,10.136379 20.93348,15.525659 4.30682,1.734662 10.40565,4.356463 13.55294,5.826229 l 5.72235,2.672296 7.52942,-0.202631 c 7.22997,-0.194572 7.67936,-0.283636 11.29985,-2.239488 2.68956,-1.452948 7.05202,-5.203239 15.21764,-13.0822 11.50882,-11.104789 13.76768,-12.874821 16.43045,-12.874821 2.42708,0 6.16046,3.238834 21.12749,18.328793 18.08408,18.232609 22.66339,23.359927 22.66339,25.375537 0,2.74491 -1.63294,4.83312 -13.24674,16.94002 -12.61795,13.15369 -14.06514,15.30438 -15.05626,22.37531 -0.80825,5.76625 -0.0228,10.61453 2.76708,17.07944 1.18945,2.75632 3.76895,8.92931 5.73222,13.71777 1.96326,4.78846 4.21331,9.80304 5.00011,11.14353 2.16514,3.68881 6.11017,7.27392 10.52926,9.56863 l 3.97315,2.06315 17.43116,0.42488 c 10.47425,0.25531 18.26442,0.70435 19.51894,1.12509 1.14828,0.38511 2.65579,1.46433 3.35002,2.39826 1.17517,1.58094 1.28301,2.68195 1.56341,15.96235 0.16565,7.84537 0.16565,20.68326 0,28.52864 -0.2804,13.28047 -0.38824,14.38146 -1.56341,15.96235 -0.69423,0.93391 -2.20174,2.01311 -3.35002,2.39822 -1.25452,0.42074 -9.04469,0.86978 -19.51894,1.12509 l -17.43116,0.42488 -3.99969,2.07709 c -7.54537,3.91842 -10.13128,7.2901 -15.00704,19.56713 -1.35934,3.42279 -3.87327,9.34043 -5.58651,13.15031 l -3.11499,6.92706 v 7.52941 c 0,10.81689 0.54683,11.80735 14.65313,26.54083 6.07146,6.3414 11.55939,12.38321 12.19539,13.42626 1.63455,2.68062 1.446,4.63155 -0.74214,7.67901 -2.13437,2.97257 -29.89425,30.69515 -36.21126,36.16262 -4.54268,3.93175 -6.08178,4.3093 -9.37712,2.30023 z"
   style="fill:#ffaf46;fill-opacity:1;stroke-width:0.602353" /><path
   id="path308"
   d="m 404.89973,399.94947 c -1.09432,-0.66719 -6.65102,-5.75564 -12.34823,-11.30767 -5.69721,-5.55202 -12.74833,-12.32372 -15.66917,-15.04819 -5.30794,-4.95111 -5.31227,-4.95361 -8.60243,-4.95361 -2.10057,0 -3.38094,-0.27248 -3.53808,-0.75294 -0.42659,-1.30439 -3.89708,-37.66596 -4.54376,-47.60659 l -0.61851,-9.50776 5.39089,-6.34918 c 15.28853,-18.00619 23.99362,-37.2468 26.93079,-59.52433 1.40166,-10.63111 0.8635,-27.03289 -1.20837,-36.82812 -6.96455,-32.92653 -28.09409,-61.13782 -56.98933,-76.08979 -8.96187,-4.63736 -14.9035,-6.96455 -23.32573,-9.13614 -26.32648,-6.78799 -54.04039,-4.01188 -78.17074,7.83038 -8.78511,4.3114 -15.96122,9.06712 -24.57019,16.28307 l -6.4996,5.44789 -8.14938,-0.61858 C 184.3466,151.132 150.2392,147.84498 145.92,147.25185 l -2.56,-0.35155 v -2.92077 c 0,-3.7604 -0.99482,-5.02033 -16.65986,-21.09953 -6.6166,-6.79153 -12.89351,-13.54091 -13.94869,-14.99861 -2.88766,-3.98924 -2.61934,-5.28575 2.22438,-10.748153 7.42086,-8.368731 35.84245,-36.031261 37.85954,-36.848421 3.76075,-1.523555 4.6317,-0.91346 21.34582,14.952641 6.52636,6.195233 11.42717,10.352764 13.13576,11.143527 2.32446,1.075808 3.87738,1.261369 10.55599,1.261369 h 7.83059 l 6.92706,-3.11499 c 3.80988,-1.713242 9.77317,-4.24307 13.25176,-5.621832 3.47859,-1.378768 7.63646,-3.218227 9.23971,-4.087688 3.66446,-1.98728 7.99326,-6.685199 10.42721,-11.316355 l 1.87486,-3.56737 0.40663,-17.167059 c 0.22364,-9.441883 0.65934,-18.133419 0.96822,-19.314526 0.30888,-1.181106 1.26304,-2.806436 2.12036,-3.611844 1.52889,-1.436321 1.8385,-1.473633 16.15918,-1.947454 8.03024,-0.265693 21.13571,-0.265113 29.12327,0.0013 14.23368,0.474721 14.55386,0.513498 16.08024,1.947454 0.85657,0.804699 1.81011,2.429449 2.11899,3.610555 0.30888,1.181107 0.74482,9.872643 0.96875,19.314526 l 0.40714,17.167059 2.1187,4.080793 c 3.70378,7.133785 8.40642,10.50954 22.41534,16.090675 3.31951,1.32249 8.65159,3.627045 11.84908,5.121235 5.76702,2.694945 5.86578,2.716708 12.32889,2.716708 11.01151,0 12.62579,-0.932888 29.04825,-16.786825 12.35073,-11.923165 14.17554,-12.988624 17.92445,-10.465676 5.56555,3.74551 40.03129,38.910458 40.68343,41.508771 0.84621,3.37157 -0.16325,4.73002 -15.5753,20.95989 -9.8895,10.41428 -11.67291,13.22283 -12.48051,19.65456 -0.71458,5.69095 0.0207,10.22714 2.6918,16.60699 1.22558,2.92726 3.81663,9.21537 5.75789,13.97358 1.94125,4.7582 4.19226,9.78212 5.00224,11.16425 2.05952,3.51432 6.80406,7.77842 10.98499,9.87266 l 3.53972,1.77305 17.16706,0.4163 c 9.44188,0.22897 18.13342,0.66902 19.31453,0.9779 1.1811,0.30888 2.80746,1.2639 3.61411,2.12226 1.44572,1.53839 1.4721,1.76843 1.84828,16.11971 0.2099,8.00748 0.2099,21.11067 0,29.11822 -0.37618,14.35145 -0.40255,14.58143 -1.84828,16.11971 -0.80665,0.8583 -2.43301,1.81326 -3.61411,2.12214 -1.18111,0.30888 -9.87265,0.74482 -19.31453,0.96875 l -17.16706,0.40714 -4.07405,2.11516 c -5.46934,2.83956 -9.85763,7.62766 -12.32825,13.45148 -1.04255,2.45752 -3.57753,8.39857 -5.6333,13.20233 -5.71758,13.36043 -5.93207,14.08884 -5.95414,20.22009 -0.0224,6.21966 0.99586,10.35469 3.43744,13.95904 0.91459,1.35016 6.36088,7.38853 12.10285,13.4186 5.74199,6.03008 10.95885,11.81473 11.59305,12.85479 1.49217,2.44712 1.45773,4.39971 -0.12367,7.01101 -1.40688,2.32313 -31.88309,32.78966 -37.4512,37.43932 -3.91836,3.27202 -5.61565,3.6025 -8.73488,1.70074 z"
   style="fill:#ffaf46;fill-opacity:1;stroke-width:0.602353" /><path
   id="path310"
   d="m 404.8551,399.92233 c -1.11887,-0.68212 -6.13346,-5.2274 -11.14353,-10.10061 C 371.47884,368.19629 372.0195,368.64 367.90172,368.64 c -1.79475,0 -3.01057,-0.28915 -3.16603,-0.75294 -0.40579,-1.2106 -3.85218,-37.21223 -4.55932,-47.62748 l -0.64694,-9.52864 2.89881,-3.33716 c 17.94917,-20.6633 27.07121,-40.6752 29.77541,-65.32119 0.96353,-8.78159 0.35383,-24.45242 -1.2731,-32.72198 -7.81174,-39.70648 -36.09741,-71.987 -74.01414,-84.46733 -24.64914,-8.11329 -52.68172,-7.31811 -76.57759,2.17224 -11.8306,4.69857 -21.67615,10.73212 -32.9941,20.21946 l -6.1894,5.1883 -7.96589,-0.62812 c -9.85729,-0.77726 -45.20395,-4.17547 -47.87178,-4.60237 -1.8569,-0.29714 -1.95765,-0.4467 -1.95765,-2.90591 0,-3.73095 -1.66871,-5.89555 -15.78075,-20.47046 -6.77505,-6.99727 -13.31458,-14.03059 -14.53229,-15.62962 -3.15332,-4.14075 -2.97934,-5.51584 1.32588,-10.479567 6.40175,-7.380938 36.45104,-36.649725 38.46253,-37.463498 3.7063,-1.499438 4.66372,-0.866986 18.39029,12.148313 16.4218,15.570861 15.77268,15.200469 26.64728,15.205281 l 7.83059,0.0036 5.72235,-2.618488 c 3.1473,-1.440166 9.11059,-3.969867 13.25177,-5.621567 4.14117,-1.651694 8.8494,-3.718712 10.46272,-4.593373 3.55895,-1.929481 8.08434,-6.876204 10.49726,-11.474596 l 1.78338,-3.398801 0.40411,-17.167059 c 0.22227,-9.441883 0.65868,-18.133419 0.96979,-19.314526 0.31112,-1.181106 1.26582,-2.805225 2.12156,-3.609152 1.50033,-1.409482 1.98999,-1.478665 13.7103,-1.93709 15.35747,-0.600688 44.1354,0.0037 46.13318,0.968833 3.37031,1.628259 3.88121,3.252325 4.34445,13.810443 0.23601,5.379174 0.45149,13.672726 0.47883,18.430117 0.049,8.533679 0.0756,8.698361 1.9776,12.266894 4.25505,7.9833 7.7157,10.46808 23.97329,17.213053 4.80376,1.992993 10.496,4.461375 12.64941,5.485291 3.57104,1.697972 4.44854,1.861698 9.98008,1.862132 10.98077,6.02e-4 13.15884,-1.244733 29.37314,-16.797853 10.27327,-9.854359 12.43913,-11.51226 15.03943,-11.51226 2.46832,0 6.24276,3.282747 21.74423,18.911618 18.2306,18.38045 22.04746,22.696065 22.0444,24.925035 -0.004,2.58465 -1.6443,4.71957 -12.14389,15.80144 -11.65696,12.30343 -14.03627,15.33421 -15.25204,19.42813 -1.42269,4.79072 -1.1779,12.59831 0.54271,17.31025 2.19393,6.00815 9.19113,22.73869 11.27319,26.9546 2.18947,4.43337 6.55142,8.67262 11.71373,11.38421 l 3.56737,1.87383 17.16706,0.40247 c 9.44188,0.22135 18.13342,0.65752 19.31453,0.96926 1.1811,0.31174 2.80746,1.26925 3.61411,2.12781 1.4436,1.53646 1.47315,1.78988 1.87986,16.11971 0.22727,8.00728 0.22727,21.11015 0,29.11747 -0.40671,14.32993 -0.43626,14.58332 -1.87986,16.11972 -0.80665,0.85851 -2.43301,1.81599 -3.61411,2.12773 -1.18111,0.31174 -9.87265,0.74791 -19.31453,0.96926 l -17.16706,0.40247 -3.49024,1.83271 c -4.19882,2.20479 -8.46199,5.85185 -10.36588,8.86781 -1.35694,2.14953 -10.59235,23.44827 -13.05803,30.11447 -1.02651,2.77525 -1.18406,4.33997 -0.97077,9.64087 0.38174,9.48731 0.99321,10.52515 14.82792,25.16728 11.56862,12.24379 13.36011,14.53949 13.35593,17.11488 -0.004,2.66207 -2.6485,5.71809 -18.86299,21.8011 -23.43284,23.24283 -23.98757,23.64572 -28.64672,20.80526 z"
   style="fill:#ffaf46;fill-opacity:1;stroke-width:0.602353" /><path
   id="path312"
   d="m 404.88335,399.93951 c -1.10333,-0.67267 -5.84682,-4.94083 -10.54108,-9.4848 -23.8762,-23.11177 -22.3041,-21.81471 -26.44055,-21.81471 -1.79036,0 -3.01412,-0.29028 -3.17426,-0.75294 -0.39331,-1.13632 -3.77315,-36.1279 -4.56396,-47.25071 l -0.6935,-9.75424 5.22477,-6.20811 c 13.10901,-15.57622 21.31222,-31.60557 25.24201,-49.32372 10.35019,-46.66569 -8.54466,-92.93548 -48.54767,-118.88373 -22.40953,-14.5361 -51.81192,-20.25739 -79.36558,-15.44341 -20.85861,3.64426 -37.554,11.8015 -55.86559,27.29548 l -4.96678,4.20253 -4.97205,-0.39375 c -8.64481,-0.68461 -48.85775,-4.54124 -50.90146,-4.88172 -1.84606,-0.30756 -1.95778,-0.47053 -1.9599,-2.85885 -0.004,-4.14878 -0.39595,-4.62952 -21.80104,-26.71897 -12.47551,-12.87436 -12.71742,-13.54591 -7.1758,-19.920627 4.60779,-5.300513 34.73085,-35.100492 37.20384,-36.804821 2.22077,-1.530509 3.83646,-1.64458 6.17382,-0.435885 0.92913,0.480472 7.21778,6.070394 13.97479,12.422048 15.38035,14.457694 15.8547,14.721325 26.44076,14.695189 l 7.52941,-0.01861 11.14353,-4.835021 c 6.12894,-2.659262 13.02622,-5.617821 15.32729,-6.574579 5.1005,-2.120729 10.05814,-6.807421 13.14847,-12.42987 l 2.106,-3.831564 0.39587,-17.167059 c 0.21772,-9.441883 0.65236,-18.133419 0.96587,-19.314526 0.31351,-1.181106 1.27202,-2.807459 2.13001,-3.614117 1.52494,-1.433695 1.88474,-1.478931 16.01223,-2.013144 8.64999,-0.327089 20.34087,-0.327089 29.11969,0 14.35636,0.534902 14.70054,0.577601 16.22719,2.013144 0.85786,0.806658 1.81545,2.433011 2.12798,3.614117 0.31253,1.181107 0.73748,9.737114 0.94433,19.013349 l 0.37609,16.865883 1.8457,3.756997 c 3.80603,7.747351 7.15977,10.324678 21.10623,16.21999 5.04835,2.133992 11.57808,4.982242 14.51052,6.329446 l 5.3317,2.449456 7.01653,-0.265547 c 9.81182,-0.371344 11.30868,-1.169565 23.22717,-12.386207 16.7302,-15.745 17.66032,-16.427757 21.17727,-15.54506 2.19108,0.549927 12.42226,10.134229 26.47523,24.801321 15.12041,15.781177 15.94916,16.757357 15.94638,18.782917 -0.004,2.57949 -1.48636,4.48056 -13.46138,17.25856 -14.1391,15.08718 -14.54958,15.81967 -14.53628,25.9393 l 0.01,7.22824 3.23278,7.52941 c 1.77802,4.14117 4.56234,10.74816 6.18737,14.68219 4.40938,10.67463 7.07667,13.94089 15.00486,18.37441 3.34568,1.87094 3.40576,1.88008 12.64941,1.9243 5.10828,0.0245 13.42338,0.24404 18.47803,0.48801 9.90464,0.47807 11.58045,1.02937 13.2107,4.34603 0.85537,1.74019 1.44055,35.05249 0.86314,49.13575 -0.3524,8.59531 -0.46194,9.23169 -1.84134,10.69853 -0.80666,0.85779 -2.43301,1.8182 -3.61412,2.13426 -1.18113,0.31606 -9.87267,0.75345 -19.31455,0.97197 l -17.16706,0.3973 -3.53277,1.85269 c -8.16221,4.2805 -9.84594,6.77501 -19.17996,28.41573 l -4.93629,11.44471 -0.012,7.52941 c -0.0169,10.53584 0.28999,11.08739 14.71159,26.44172 11.51911,12.26413 13.25257,14.49479 13.24842,17.04837 -0.004,2.65799 -2.64242,5.71062 -18.7812,21.7324 -23.3788,23.2093 -24.07124,23.71333 -28.70025,20.89114 z"
   style="fill:#ffaf46;fill-opacity:1;stroke-width:0.602353" /><path
   id="path314"
   d="m 403.53431,398.93455 c -1.46764,-1.22788 -8.49619,-7.80879 -15.61902,-14.62425 -16.85163,-16.12445 -16.27365,-15.6703 -19.94276,-15.6703 -1.84294,0 -3.08705,-0.28799 -3.25269,-0.75294 -0.40835,-1.14628 -3.79611,-36.19175 -4.57119,-47.28783 l -0.68394,-9.79137 2.32882,-2.7782 c 9.89839,-11.80841 14.32956,-18.19376 18.80309,-27.09542 7.72297,-15.36753 11.15283,-28.59108 11.93554,-46.01659 0.84592,-18.83254 -2.61355,-35.53619 -10.94491,-52.84631 -9.7402,-20.23725 -24.13117,-36.01351 -43.26891,-47.43402 -34.62428,-20.66213 -79.87478,-20.31678 -114.76059,0.87586 -5.67299,3.44627 -10.15395,6.75247 -17.40897,12.84494 l -4.97593,4.17858 -5.26407,-0.40869 c -5.01334,-0.38922 -18.88914,-1.68191 -39.29702,-3.66095 -14.20873,-1.37789 -13.25176,-1.07673 -13.25176,-4.17034 0,-3.55403 -1.6456,-5.63926 -17.342,-21.97506 -13.41044,-13.95672 -15.1791,-16.15282 -15.18281,-18.85207 -0.003,-2.28806 4.07961,-6.822079 22.9716,-25.510705 16.45859,-16.28143 18.79811,-18.325944 20.97023,-18.325944 2.42138,0 4.62978,1.72534 16.93649,13.231843 15.49789,14.490186 16.01881,14.78052 26.46061,14.747831 l 7.52941,-0.02355 5.72235,-2.593395 c 3.1473,-1.426365 9.65205,-4.218904 14.45502,-6.205632 10.19898,-4.218774 13.49294,-6.445364 17.18094,-11.613629 4.31354,-6.044889 4.30469,-5.998834 4.75088,-24.710501 0.22119,-9.276235 0.65995,-17.832242 0.97501,-19.013348 0.31507,-1.181107 1.26832,-2.80083 2.11835,-3.599385 1.40468,-1.319635 2.24221,-1.489657 9.19265,-1.866152 9.83463,-0.532727 33.16791,-0.532727 43.00254,0 6.94144,0.376007 7.78924,0.547717 9.1868,1.860655 0.84681,0.795531 1.80228,2.397596 2.12328,3.560145 0.32099,1.16255 0.76552,9.721031 0.98784,19.018847 l 0.40422,16.905097 1.98389,3.973193 c 1.09115,2.185256 2.68349,4.804605 3.53854,5.820776 2.36238,2.80753 7.46027,5.934159 14.63342,8.974939 3.56311,1.510442 10.13768,4.374666 14.61015,6.364937 l 8.13177,3.618671 6.97426,-0.28113 c 6.48108,-0.261246 7.24089,-0.423231 10.74459,-2.290688 2.60567,-1.388809 7.02544,-5.091557 14.3081,-11.986893 15.28922,-14.476071 16.75539,-15.345346 21.28128,-12.617405 2.39829,1.445547 30.88137,29.884614 36.59444,36.537892 4.12989,4.809551 4.55651,6.356221 2.6263,9.521551 -0.62282,1.02136 -5.81223,6.84912 -11.53201,12.95058 -5.71979,6.10147 -11.30596,12.45574 -12.41373,14.12061 -2.49177,3.74492 -3.46901,8.56143 -3.05225,15.04355 0.2802,4.35815 0.82536,6.05688 5.70264,17.76941 2.96604,7.12283 6.14209,14.42895 7.05789,16.23582 2.21014,4.36064 7.00327,8.93735 11.86825,11.33237 3.90271,1.9213 4.0739,1.9477 12.9165,1.99154 4.92876,0.0245 13.097,0.24404 18.15164,0.48801 9.93314,0.47945 11.57945,1.0259 13.23293,4.3924 0.86877,1.76882 1.47579,37.54135 0.85342,50.29358 -0.35632,7.30118 -0.50413,8.0581 -1.85385,9.49383 -0.80665,0.85806 -2.43301,1.8187 -3.61411,2.13476 -1.18111,0.31606 -9.87265,0.7621 -19.31453,0.9912 l -17.16706,0.41653 -3.31294,1.7766 c -4.59391,2.46353 -8.29344,5.60332 -10.26467,8.71163 -0.91851,1.44833 -4.47365,9.19331 -7.90031,17.21106 l -6.23031,14.57773 0.007,6.62589 c 0.012,10.71643 0.43204,11.45997 15.59206,27.59996 5.81679,6.19279 10.98862,12.05758 11.49296,13.03286 1.2434,2.40447 1.14996,4.14903 -0.3563,6.65188 -1.4938,2.48217 -33.09934,34.11533 -37.78317,37.81621 -4.17472,3.29861 -6.12906,3.36037 -9.77631,0.30893 z"
   style="fill:#ffaf46;fill-opacity:1;stroke-width:0.602353" /><path
   id="path316"
   d="m 403.53431,398.9348 c -1.46764,-1.22775 -8.22513,-7.53878 -15.01666,-14.02452 C 371.48604,368.64551 371.47907,368.64 367.91032,368.64 c -1.792,0 -3.02684,-0.29121 -3.19267,-0.75294 -0.64964,-1.80884 -5.13921,-50.67724 -5.0955,-55.46384 0.0137,-1.4985 1.05926,-3.14379 4.85048,-7.63263 20.79197,-24.61786 30.24348,-53.06507 27.76808,-83.57647 -1.17235,-14.45006 -4.09464,-25.29822 -10.3904,-38.57131 -9.90095,-20.87375 -25.68176,-37.89553 -45.57553,-49.15948 -14.16334,-8.01936 -28.47837,-12.26755 -46.30936,-13.74297 -29.58359,-2.44789 -58.19735,7.16579 -82.94615,27.86834 l -5.9125,4.94584 -5.23103,-0.40131 c -9.0871,-0.69716 -49.12921,-4.58409 -50.85927,-4.93697 -1.42928,-0.29152 -1.65647,-0.62862 -1.65647,-2.4578 0,-1.16595 -0.43953,-3.04617 -0.97674,-4.17825 -0.5372,-1.13207 -7.34177,-8.73456 -15.12125,-16.89442 -7.77948,-8.15985 -14.65752,-15.6774 -15.28454,-16.70565 -1.91966,-3.14808 -1.50653,-4.73514 2.40344,-9.232907 4.60779,-5.300513 34.73085,-35.100492 37.20384,-36.804821 2.32941,-1.605379 4.15391,-1.653732 6.57986,-0.174382 1.01972,0.621821 6.84748,5.804591 12.95059,11.517267 13.83227,12.947373 15.87064,14.365902 21.73468,15.125439 8.30586,1.075809 12.03741,0.318127 24.53265,-4.981272 6.16573,-2.614971 13.07206,-5.629007 15.3474,-6.69786 5.03216,-2.363876 9.71252,-6.887865 12.49498,-12.077509 l 1.99448,-3.719977 0.46498,-16.26353 c 0.56758,-19.852008 0.69971,-20.93063 2.86032,-23.348778 1.65784,-1.855436 1.81408,-1.896529 8.84208,-2.325509 9.18157,-0.560432 35.19622,-0.563588 44.32804,-0.0054 6.28163,0.383984 7.22372,0.588902 8.58444,1.867233 0.84065,0.789753 1.79573,2.40386 2.12238,3.586904 0.32665,1.183043 0.77145,9.741524 0.98845,19.018846 l 0.39453,16.86786 2.05374,4.113069 c 3.56017,7.130058 8.35291,10.67972 21.99799,16.292456 2.8871,1.187575 8.30828,3.547714 12.04705,5.244753 l 6.79779,3.085529 6.6476,-0.278004 c 10.33229,-0.432104 11.35673,-1.036824 27.40703,-16.17808 13.3518,-12.595597 14.79309,-13.396517 19.2536,-10.699146 2.43307,1.471332 31.02969,30.008473 36.60986,36.533715 4.00278,4.680704 4.43669,6.091004 2.82996,9.198064 -0.50481,0.97619 -5.20967,6.35886 -10.45524,11.96149 -11.74679,12.54636 -13.56516,14.75076 -15.18118,18.40405 -1.57863,3.56875 -2.16571,10.93052 -1.22244,15.32885 0.67898,3.16596 9.55257,25.12473 12.51688,30.9745 2.05806,4.0614 6.40596,8.15691 11.41595,10.75329 l 4.14504,2.14812 16.86785,0.38502 c 9.27732,0.21176 17.83581,0.65228 19.01885,0.97893 1.18304,0.32665 2.80851,1.29325 3.61214,2.14799 1.4389,1.53041 1.46942,1.7976 2.00407,17.54687 0.32231,9.49454 0.32231,21.32637 0,29.11921 -0.5255,12.70533 -0.58979,13.17629 -2.00407,14.68085 -0.80363,0.85494 -2.41233,1.81706 -3.57488,2.13806 -1.16254,0.32099 -9.72103,0.76534 -19.01885,0.98744 l -16.90511,0.40382 -3.61412,1.79239 c -4.80851,2.38475 -8.1787,5.19868 -10.43204,8.71023 -1.0195,1.58874 -4.64276,9.39224 -8.05169,17.3411 l -6.19806,14.45249 0.0155,6.92706 c 0.0234,10.45084 0.67548,11.55013 17.21064,29.01433 11.22972,11.86066 12.1362,13.57556 9.49831,17.9692 -1.49946,2.49749 -33.13811,34.1705 -37.78618,37.82722 -4.17672,3.28589 -6.13347,3.34557 -9.77631,0.29817 z"
   style="fill:#ffaf46;fill-opacity:1;stroke-width:0.602353" /><path
   id="path318"
   d="m 403.16134,398.66628 c -1.59379,-1.37542 -8.8611,-8.19626 -16.14958,-15.15742 -7.28847,-6.96116 -14.06494,-13.15338 -15.05882,-13.7605 -1.00743,-0.6154 -2.94823,-1.10485 -4.38596,-1.10611 -1.52128,-10e-4 -2.68541,-0.31104 -2.8386,-0.75519 -0.55913,-1.6211 -4.07893,-38.15586 -4.87313,-50.58199 l -0.41285,-6.45964 3.54468,-4.28362 c 12.45811,-15.05519 19.14322,-26.47505 23.95671,-40.92416 8.47577,-25.44254 7.397,-53.7009 -2.99085,-78.34516 -12.43792,-29.50782 -36.64485,-52.08657 -66.51294,-62.03919 -38.18896,-12.72529 -78.38622,-4.60162 -110.23059,22.27707 -4.74576,4.00573 -6.08215,4.83252 -7.83059,4.84464 -3.24886,0.0225 -51.17373,-4.53267 -54.36235,-5.16705 -1.45159,-0.2888 -1.65647,-0.60706 -1.65647,-2.57318 0,-3.47995 -2.2383,-6.35646 -17.07517,-21.94385 -7.50953,-7.8894 -14.05829,-15.12676 -14.55279,-16.08302 -2.25531,-4.36129 -1.60384,-5.21229 21.47121,-28.047371 17.24483,-17.065483 19.38105,-18.929033 21.69444,-18.925346 2.29905,0.0037 4.53903,1.731565 15.59946,12.033291 16.67118,15.527592 17.25435,15.85803 27.98687,15.85803 h 6.65729 l 9.61758,-4.069641 c 20.60877,-8.72052 20.74053,-8.787092 24.67294,-12.465665 2.21454,-2.071589 4.55139,-5.027735 5.7498,-7.273553 l 2.01895,-3.783537 0.46635,-16.26353 c 0.56699,-19.773306 0.70843,-20.920865 2.87776,-23.348778 1.65784,-1.855436 1.81408,-1.896529 8.84208,-2.325509 9.27886,-0.56637 35.96821,-0.568281 44.63543,-0.0032 7.62706,0.49727 9.26388,1.355246 10.40484,5.453931 0.32963,1.184133 0.77029,9.742614 0.97923,19.018849 l 0.3799,16.865883 2.13619,4.122905 c 3.74956,7.23671 8.48047,10.748681 21.93398,16.28262 2.8871,1.187575 8.26481,3.519807 11.95047,5.182735 6.04405,2.727014 7.12413,3.023161 11.01424,3.020017 6.63448,-0.0054 11.059,-0.944393 14.62064,-3.102973 1.7552,-1.063768 8.36651,-6.763014 14.6918,-12.665004 6.32529,-5.901988 12.2873,-11.137741 13.2489,-11.635006 2.38107,-1.231295 4.13207,-1.132924 6.62702,0.372305 2.45011,1.478173 32.56223,31.544151 37.21188,37.154851 5.00998,6.045506 4.69681,6.864166 -7.6228,19.927206 -11.35536,12.04059 -13.9367,15.12108 -15.52386,18.52565 -1.7436,3.74013 -2.47437,11.2047 -1.52864,15.6145 0.96309,4.49072 11.81271,30.16803 14.23037,33.67836 2.33544,3.39095 6.27877,6.60735 11.01068,8.98091 2.99259,1.50111 3.60969,1.57791 12.95058,1.61155 5.39455,0.0195 13.5469,0.24621 18.11635,0.50396 8.97556,0.50627 10.70839,1.1277 12.32449,4.41987 0.98922,2.01514 1.64649,37.79186 0.91289,49.69056 -0.48101,7.8019 -0.65634,8.70596 -1.95688,10.09033 -0.7857,0.83633 -2.39649,1.78787 -3.57953,2.11452 -1.18304,0.32665 -9.74153,0.76717 -19.01885,0.97893 l -16.86785,0.38502 -4.01083,2.0776 c -8.34758,4.32402 -9.95537,6.70673 -19.22418,28.48976 l -4.99794,11.74588 0.0337,7.00365 c 0.0508,10.55681 0.43362,11.20276 17.12947,28.90611 11.23837,11.91656 12.13085,13.60705 9.50331,18.00083 -1.49336,2.49722 -33.14242,34.17983 -37.79119,37.83125 -4.31015,3.38547 -6.25032,3.39037 -10.14927,0.0256 z"
   style="fill:#ffaf30;fill-opacity:1;stroke-width:0.602353" /><path
   id="path1143"
   d="m 405.98588,400.45243 c -1.69777,-0.95549 -4.31484,-3.31516 -18.68079,-16.84347 -14.93174,-14.06112 -16.07538,-14.96588 -18.9327,-14.97818 -1.17799,-0.005 -2.49223,-0.23154 -2.92054,-0.50326 -0.77881,-0.49408 -2.48932,-15.42844 -4.61043,-40.25331 -1.5234,-17.82951 -1.79735,-16.2827 4.19272,-23.67337 19.10892,-23.57699 27.48662,-46.10149 27.4628,-73.83719 -0.0162,-18.88907 -3.74623,-34.52061 -12.13366,-50.84923 C 361.29632,142.39499 323.3816,119.26588 281.6,119.26588 c -26.5443,0 -50.94677,9.21054 -74.45104,28.10102 l -5.88179,4.72722 -4.25711,-0.14166 c -4.31664,-0.14364 -38.88375,-3.33114 -47.5138,-4.38134 -5.46691,-0.66528 -5.83063,-0.82637 -5.84831,-2.5902 -0.0375,-3.74201 -1.77181,-5.92756 -20.67502,-26.05457 -5.58088,-5.9422 -10.56427,-11.65634 -11.07419,-12.69808 -1.26623,-2.58686 -0.69514,-4.33407 2.76896,-8.471472 5.06585,-6.050478 36.44032,-36.614044 38.43261,-37.439277 2.887,-1.195833 4.77713,0.0089 15.62498,9.958984 18.39999,16.877219 18.47745,16.924389 28.68688,17.471531 l 6.79883,0.364357 14.4498,-6.141717 c 7.94738,-3.377941 15.83802,-7.054878 17.53475,-8.170963 3.31156,-2.1783 6.20757,-5.424275 9.16346,-10.270784 l 1.84865,-3.031072 0.64534,-17.594401 c 0.38633,-10.53292 0.94196,-18.479939 1.3844,-19.800808 1.4636,-4.369424 2.24721,-4.585738 18.33997,-5.06275 7.87809,-0.233517 20.63433,-0.233257 28.3472,5.78e-4 12.73742,0.386167 14.17359,0.536601 15.66118,1.640459 2.74979,2.040464 3.12871,4.439498 3.53856,22.403759 l 0.37976,16.644718 2.06644,4.138919 c 2.51928,5.045945 6.45526,9.09736 11.634,11.975233 2.14317,1.190975 9.70957,4.65832 16.81422,7.705214 l 12.91754,5.53981 6.36097,-0.262084 c 10.05136,-0.414129 11.39788,-1.231516 29.54511,-17.93495 5.13506,-4.726512 10.24066,-8.981622 11.34577,-9.455801 3.88737,-1.667977 4.97805,-0.84567 23.62836,17.814484 9.46749,9.472488 18.34667,18.670104 19.73151,20.439148 4.13348,5.280245 3.75793,6.308555 -6.27702,17.187665 -16.73443,18.14215 -17.93258,19.85646 -18.93996,27.09923 -0.84585,6.0814 -0.18626,9.39519 3.90199,19.60383 7.47166,18.65724 9.34198,22.36678 13.26164,26.30279 2.31163,2.32125 5.07587,4.34259 7.55948,5.52781 l 3.91529,1.86845 14.75765,0.38238 c 17.63732,0.457 22.01757,1.004 24.03528,3.0015 1.32407,1.3108 1.48773,2.11467 1.92571,9.45887 0.66236,11.10636 0.63867,38.83379 -0.0387,45.27212 -0.9344,8.88174 -0.59931,8.74513 -23.41396,9.54507 l -17.86836,0.6265 -3.9153,2.09374 c -7.87053,4.20885 -10.27835,7.80816 -19.31983,28.88015 l -4.87403,11.35933 0.22019,7.52942 c 0.30249,10.3437 0.28552,10.31408 15.1376,26.42585 12.97571,14.07625 13.81902,15.58328 11.16674,19.95532 -1.88783,3.11192 -35.30924,36.2924 -38.76062,38.4812 -3.19064,2.02345 -4.16998,2.21195 -6.03593,1.16182 z"
   style="fill:#ffaf22;fill-opacity:1;stroke-width:0.602353" /><path
   id="path1145"
   d="m 405.86563,400.11029 c -1.04425,-0.57831 -8.52866,-7.23402 -16.63203,-14.79048 -16.82368,-15.68823 -18.04107,-16.67641 -20.56004,-16.68903 -1.01234,-0.005 -2.17903,-0.22411 -2.59264,-0.48675 -1.00452,-0.63785 -1.70384,-4.79758 -3.10652,-18.47815 -2.55036,-24.87429 -3.28093,-35.77087 -2.55611,-38.12545 0.37792,-1.2277 2.62075,-4.67172 4.98406,-7.65337 13.46589,-16.98911 21.17675,-32.63173 25.07271,-50.86367 1.50889,-7.06114 1.61647,-8.56673 1.61647,-22.62339 0,-14.06848 -0.10666,-15.55802 -1.62174,-22.6494 -8.94506,-41.8678 -40.29968,-74.60574 -81.56689,-85.16551 -14.97499,-3.83192 -34.09351,-4.32958 -48.70609,-1.26784 -18.82487,3.94433 -36.29126,12.50018 -53.11415,26.0178 -5.42077,4.35572 -5.62553,4.45789 -8.93418,4.45789 -6.14464,0 -51.42363,-4.37442 -53.49115,-5.1678 -0.55043,-0.21123 -0.99615,-1.04061 -0.99615,-1.85362 0,-3.3491 -1.88625,-5.78522 -17.18343,-22.1927 -10.81498,-11.59995 -14.44326,-15.8815 -15.03304,-17.73972 -0.95808,-3.01865 5.87204,-10.779923 28.21592,-32.062615 11.68419,-11.129275 13.39042,-12.541191 15.15532,-12.541191 2.36086,0 4.45092,1.567783 15.64993,11.739178 16.65766,15.129167 17.03309,15.346038 27.32862,15.78687 l 7.0055,0.299959 11.74588,-5.086286 c 6.46024,-2.797459 13.6433,-6.00381 15.96236,-7.125222 4.83519,-2.338123 9.79233,-7.015297 12.79989,-12.076991 l 1.95754,-3.294521 0.60277,-15.029729 c 0.70692,-17.626467 1.07773,-21.689387 2.17799,-23.864263 1.54987,-3.063623 3.02635,-3.212524 31.85475,-3.212524 29.66719,0 29.85846,0.02351 31.47058,3.868474 0.9423,2.247421 1.86772,16.368805 1.92843,29.426563 0.0305,6.560479 0.1048,6.936914 2.18416,11.065978 2.60961,5.181993 6.51161,9.215184 11.72016,12.114233 2.14317,1.192873 9.5889,4.64945 16.54608,7.681291 l 12.64941,5.512427 6.62588,-0.234225 c 10.07342,-0.356087 11.59842,-1.232095 27.78391,-15.959849 14.33619,-13.045018 15.27568,-13.469652 20.50082,-9.266042 3.53538,2.84419 33.72941,33.14373 36.32887,36.45581 2.64032,3.364135 2.81906,4.699865 1.03318,7.721005 -0.83543,1.41329 -5.05453,6.43134 -9.37576,11.1512 -9.9986,10.92097 -13.64969,15.31719 -15.12859,18.21606 -1.53043,2.9999 -2.64218,10.23346 -2.11406,13.75517 0.84358,5.62538 10.67614,29.76592 14.42121,35.40639 2.32846,3.50691 6.84411,7.37825 11.14536,9.55509 2.55824,1.29471 3.90083,1.43465 19.61212,2.04416 17.24085,0.66886 20.62306,1.1305 22.57365,3.08109 1.68648,1.68648 2.04016,6.95451 2.08366,31.03576 0.0419,23.19183 -0.29758,28.04498 -2.08683,29.83423 -1.90297,1.90297 -5.11032,2.33167 -22.57048,3.01683 l -16.86588,0.66185 -3.9153,2.11891 c -7.86675,4.2574 -10.78526,8.66097 -19.87797,29.99269 l -4.3512,10.20803 0.25509,7.56138 c 0.35263,10.4528 0.26977,10.31222 16.70695,28.34255 4.3793,4.80377 8.64181,9.88089 9.47223,11.28248 2.43398,4.10812 1.91068,5.09893 -8.16885,15.46673 -12.36642,12.72008 -26.46713,26.4757 -29.62328,28.8983 -3.50788,2.69259 -4.71373,2.9896 -6.9991,1.72396 z"
   style="fill:#ffaf22;fill-opacity:1;stroke-width:0.602353" /><path
   id="path1147"
   d="m 405.56952,400.10567 c -0.89159,-0.59659 -8.17076,-7.17502 -16.17593,-14.61872 C 373.71355,370.90668 370.87433,368.64 368.29121,368.64 c -3.51286,0 -3.61999,-0.47673 -6.22665,-27.70824 -0.80866,-8.448 -1.65694,-18.36144 -1.88507,-22.02988 -0.49232,-7.91683 -0.5205,-7.84209 6.17297,-16.37346 18.09559,-23.06429 26.10661,-45.26748 26.07004,-72.25527 -0.0246,-18.17951 -3.16421,-32.10486 -10.84283,-48.09257 -23.14894,-48.19852 -77.19291,-72.93144 -128.88346,-58.98279 -15.3629,4.14567 -29.20265,11.45222 -44.79865,23.65097 l -6.5401,5.11547 -7.01284,-0.34025 c -7.89119,-0.38287 -37.47144,-3.15924 -45.19881,-4.24231 l -5.05654,-0.70873 -0.71722,-2.8373 c -0.90552,-3.58222 -2.45339,-5.54872 -15.38377,-19.54439 -17.57643,-19.0245 -17.64947,-19.12967 -15.87858,-22.86154 1.2784,-2.694034 14.76897,-16.683458 29.65309,-30.7496 9.68978,-9.157267 11.29585,-10.444816 13.0287,-10.444816 2.42284,0 5.28038,2.159875 17.0914,12.918563 10.2876,9.37099 14.50202,12.598475 17.70348,13.557656 1.32351,0.396529 5.28801,0.860575 8.81,1.031204 l 6.40363,0.310236 12.34824,-5.386397 c 6.79152,-2.962522 14.02416,-6.234568 16.07252,-7.271219 4.42387,-2.238862 8.88963,-6.5292 11.82168,-11.357304 l 2.12646,-3.501562 0.69743,-16.564706 c 0.38359,-9.110589 0.95297,-17.91791 1.26529,-19.571824 0.83241,-4.408141 1.76661,-5.052377 8.40843,-5.798579 7.57453,-0.850992 50.83998,-0.41237 53.09463,0.538269 2.80375,1.182159 3.49947,3.532133 4.10497,13.865587 0.30489,5.203365 0.5655,12.984429 0.57912,17.291253 0.0224,7.06827 0.17202,8.146929 1.53742,11.080068 4.55049,9.775369 8.5451,12.447879 36.12263,24.167132 l 6.02353,2.559741 6.44017,-0.337396 c 9.82927,-0.514939 11.24793,-1.355487 28.19513,-16.70533 10.25342,-9.286995 12.34424,-10.826425 14.69743,-10.821423 2.64047,0.0056 3.8944,0.984522 14.29546,11.16008 16.1524,15.802178 27.9534,28.223244 28.81465,30.328667 0.76026,1.85854 0.71648,2.25994 -0.49556,4.54467 -0.7312,1.37834 -5.83482,7.5085 -11.34136,13.62258 -14.16363,15.72631 -15.37667,17.85741 -15.41346,27.07886 -0.0214,5.35781 1.14801,9.05049 7.80687,24.65248 6.32457,14.81877 8.71231,18.0535 16.75126,22.69333 l 3.01177,1.7383 16.67367,0.6867 c 18.28258,0.75297 22.31628,1.36552 23.78854,3.61248 1.22272,1.8661 1.93566,13.76409 1.94456,32.452 0.008,16.41883 -0.64131,25.64417 -1.94434,27.63285 -1.45691,2.22353 -4.86904,2.73453 -22.9942,3.44362 l -16.86588,0.65983 -4.44662,2.50362 c -2.44564,1.37699 -5.52524,3.72338 -6.84355,5.2142 -2.60252,2.94308 -7.27096,12.16225 -13.11593,25.90118 l -3.71577,8.73411 0.23034,7.2636 c 0.28237,8.90424 1.34002,11.41499 7.86585,18.67281 2.40048,2.66973 7.26389,8.06682 10.80758,11.99353 7.22474,8.00562 9.31395,11.30501 8.7021,13.74282 -0.48941,1.94994 -14.39933,16.73668 -27.62819,29.36974 -13.91927,13.29237 -15.46304,14.29911 -18.65335,12.16435 z"
   style="fill:#ffaf22;fill-opacity:0.85542166;stroke-width:0.602353" /><path
   id="path1149"
   d="m 404.72097,399.41396 c -1.29206,-0.96421 -5.36263,-4.55574 -9.0457,-7.98118 -24.83258,-23.09556 -24.45624,-22.78668 -27.76702,-22.79053 -1.22707,-10e-4 -2.1434,-0.38894 -2.50137,-1.05781 -1.02719,-1.91932 -4.21888,-31.47376 -5.27263,-48.82353 -0.46613,-7.67478 -0.32632,-8.05403 5.82168,-15.79184 12.84669,-16.16869 20.63762,-32.24406 24.49812,-50.54803 1.4552,-6.89963 1.59714,-8.78238 1.61469,-21.41869 0.0208,-14.99271 -0.61753,-20.50423 -3.55885,-30.72716 -8.11461,-28.20333 -26.78673,-52.04001 -52.09577,-66.50506 -22.96887,-13.12756 -51.80108,-17.59078 -77.63994,-12.01867 -17.72827,3.82308 -33.94683,11.80826 -50.73475,24.97915 l -6.45256,5.06233 h -4.00521 c -7.01794,0 -52.09672,-4.36513 -53.40058,-5.17095 -0.28595,-0.17673 -0.5199,-0.85615 -0.5199,-1.50983 0,-3.4582 -2.03573,-6.08511 -18.39581,-23.73804 -10.72865,-11.57647 -14.13125,-15.6649 -14.13125,-16.97953 0,-2.37498 2.80491,-6.001123 11.71553,-15.145641 5.3174,-5.456975 14.22443,-14.217448 19.7934,-19.467715 8.84681,-8.340517 10.37567,-9.54594 12.10727,-9.54594 2.44127,0 4.63662,1.554938 13.25208,9.386297 18.54299,16.855372 19.45853,17.413578 29.59852,18.046073 l 6.65503,0.415111 12.31909,-5.264558 c 6.77549,-2.895511 13.9291,-6.073886 15.8969,-7.063054 4.41643,-2.22003 9.97256,-7.433304 12.65521,-11.874264 l 2.02026,-3.344428 0.69582,-16.845273 c 0.73298,-17.744766 1.25405,-21.899031 2.93791,-23.422909 0.56742,-0.513505 2.65143,-1.208153 4.63114,-1.543663 5.13749,-0.87067 53.08322,-0.524402 55.2224,0.398821 3.49783,1.509586 3.97386,4.165846 4.61507,25.751847 l 0.42943,14.456471 2.01602,3.76015 c 4.24936,7.925632 8.91515,11.05189 30.24328,20.264155 11.65926,5.035989 13.44667,5.354038 22.2074,3.95158 6.10966,-0.978059 8.5136,-2.675688 25.04464,-17.686059 11.32667,-10.284743 12.96601,-11.000766 17.48146,-7.635475 5.92992,4.419478 37.10009,36.340526 38.64101,39.571844 0.97645,2.04764 0.964,2.21263 -0.35448,4.69799 -0.75156,1.4167 -4.26586,5.78053 -7.80955,9.69741 -17.70513,19.56963 -18.33184,20.55265 -18.68967,29.31522 -0.27732,6.79125 0.29725,8.96634 5.99567,22.69718 7.20209,17.35403 9.89236,21.3052 17.6707,25.9527 l 3.46288,2.06906 16.95396,0.73937 c 18.28681,0.7975 22.22147,1.39778 23.67193,3.61146 1.45039,2.21357 2.16848,17.027 1.82224,37.59106 -0.32508,19.3074 -0.70188,22.26456 -3.03143,23.79094 -1.7832,1.1684 -9.78025,1.92725 -25.68759,2.43753 l -12.95059,0.41544 -3.9153,2.16568 c -7.83441,4.33347 -10.25681,8.00898 -19.83687,30.09843 -4.21064,9.70879 -4.25724,9.8744 -4.25724,15.1272 0,10.83311 1.15654,13.35005 11.2045,24.3839 15.04223,16.51815 17.03724,19.24146 16.28658,22.23229 -0.87122,3.47122 -37.28741,39.90024 -41.7502,41.76491 -2.6207,1.095 -2.67402,1.08576 -5.37756,-0.93177 z"
   style="fill:#ff8222;fill-opacity:1;stroke-width:0.602353" /></svg>
