<svg viewBox="0 0 96 96" xmlns="http://www.w3.org/2000/svg" xmlns:xlink="http://www.w3.org/1999/xlink" id="Icons_Dog" overflow="hidden"><path d="M85.8 27.2C85 23.7 81.8 21 78 21L72.5 21 71.4 27.4C71.3 28 71.3 28.7 71.6 29.3 72 30.2 72.9 30.8 73.8 31 74.8 31.2 75.8 30.9 76.5 30.1 76.9 29.6 77.2 29 77.3 28.4L78 24.6C78.1 24.1 78.6 23.7 79.2 23.8 79.7 23.9 80.1 24.4 80 25L79.4 28.7C79.2 30.1 78.4 31.4 77.2 32.2 76.4 32.8 75.4 33 74.4 33 74.1 33 73.8 33 73.5 32.9 72 32.6 70.8 31.8 70 30.5 69.4 29.4 69.2 28.2 69.4 27L70.3 21.7 63.3 29.4C61.9 31 59.7 32 57.5 32L29 32C26.4 32 24 33 22.2 34.7 18.8 34.1 13.1 32.3 9.7 26.6 8.9 25.2 7.1 24.6 5.7 25.3 4.1 26.1 3.6 28 4.5 29.5 8.5 36.3 14.7 39 19.3 40.2 19.1 40.8 19 41.4 19 42L19 71.9C19 73.4 20 74.7 21.4 75 23.3 75.4 25 73.9 25 72.1L25 53 38.6 53C40.7 54.8 44.5 56 49 56 49 56 50.7 56 53 56L53 71.8C53 73.4 54.2 74.9 55.8 75 57.5 75.1 59 73.7 59 72L59 56 63 56 63 71.9C63 73.4 64 74.7 65.4 75 67.3 75.4 69 73.9 69 72.1L69 53.5C71.4 50.5 73 46 73 46L77 36 86 36C89.3 36 92 33.3 92 30L85.8 27.2Z" fill="#C55A11"/><path d="M29 71C29 72.7 30.3 74 32 74 33.7 74 35 72.7 35 71L35 54 29 54 29 71Z" fill="#C55A11"/></svg>