<svg viewBox="0 0 96 96" xmlns="http://www.w3.org/2000/svg" xmlns:xlink="http://www.w3.org/1999/xlink" id="Icons_GrinningFaceOutline" overflow="hidden"><g><circle cx="64" cy="42" r="6" fill="#00B050"/><circle cx="32" cy="42" r="6" fill="#00B050"/></g><path d="M48 62 25.5 62C29.6 70.3 38.1 76 48 76 57.9 76 66.4 70.3 70.5 62L48 62Z" fill="#00B050"/><g id="Icons_Layer_2"><g><path d="M48 14C66.7 14 82 29.3 82 48 82 66.7 66.7 82 48 82 29.3 82 14 66.7 14 48 14 29.3 29.3 14 48 14M48 10C27 10 10 27 10 48 10 69 27 86 48 86 69 86 86 69 86 48 86 27 69 10 48 10L48 10Z" fill="#00B050"/></g></g><g id="Icons_Layer_3" display="none"></g></svg>