<svg id="_13" data-name="13" xmlns="http://www.w3.org/2000/svg" xmlns:xlink="http://www.w3.org/1999/xlink" viewBox="0 0 544.783 544.783"><defs><style>.cls-1,.cls-2{fill-rule:evenodd;}.cls-1{fill:url(#linear-gradient);}.cls-2{fill:#fff;}</style><linearGradient id="linear-gradient" x1="582.473" y1="565.309" x2="209.69" y2="227.592" gradientUnits="userSpaceOnUse"><stop offset="0" stop-color="#fec053"/><stop offset="0.327" stop-color="#f2203e"/><stop offset="0.648" stop-color="#b729a8"/><stop offset="1" stop-color="#5342d6"/></linearGradient></defs><title>icon_instagram</title><path class="cls-1" d="M218.459,127.608H581.544c49.938,0,90.848,40.9,90.848,90.848V581.544c0,49.942-40.909,90.848-90.848,90.848H218.459c-49.947,0-90.851-40.906-90.851-90.848V218.456c0-49.944,40.9-90.848,90.851-90.848Z" transform="translate(-127.608 -127.608)"/><path class="cls-2" d="M526.769,400A126.768,126.768,0,1,0,400,526.77,126.752,126.752,0,0,0,526.769,400Zm-2.4-144a20.4,20.4,0,1,0,20.4,20.4,20.392,20.392,0,0,0-20.4-20.4ZM296.376,226.693h207.25a69.847,69.847,0,0,1,69.684,69.681v207.25a69.8,69.8,0,0,1-69.684,69.69H296.376a69.855,69.855,0,0,1-69.686-69.69V296.374a69.905,69.905,0,0,1,69.686-69.681Zm207.25-23.229H296.376c-51.087,0-92.913,41.826-92.913,92.91v207.25a93.152,93.152,0,0,0,92.913,92.916h207.25a93.1,93.1,0,0,0,92.91-92.916V296.374a93.148,93.148,0,0,0-92.91-92.91ZM299.545,400A100.455,100.455,0,1,1,400,500.452,100.486,100.486,0,0,1,299.545,400Z" transform="translate(-127.608 -127.608)"/></svg>