<?xml version="1.0" encoding="UTF-8" ?>
<!DOCTYPE svg PUBLIC "-//W3C//DTD SVG 1.1//EN" "http://www.w3.org/Graphics/SVG/1.1/DTD/svg11.dtd">
<svg width="1000pt" height="1000pt" viewBox="0 0 1000 1000" version="1.1" xmlns="http://www.w3.org/2000/svg">
<g id="#008ab6ff">
<path fill="#008ab6" opacity="1.00" d=" M 0.00 0.00 L 0.06 0.00 C 0.05 0.02 0.02 0.05 0.00 0.06 L 0.00 0.00 Z" />
<path fill="#008ab6" opacity="1.00" d=" M 480.59 215.16 C 493.52 214.90 506.48 214.90 519.42 215.16 C 522.73 217.40 527.27 214.54 530.53 216.92 C 533.48 217.40 536.93 216.06 539.53 217.90 C 541.85 218.17 544.46 217.44 546.53 218.83 C 548.21 219.05 550.07 218.75 551.53 219.85 C 553.21 220.04 555.09 219.68 556.53 220.84 C 558.20 221.03 560.02 220.78 561.51 221.79 C 562.87 221.99 564.34 221.96 565.52 222.83 C 567.20 223.04 569.03 222.82 570.53 223.81 C 571.02 223.90 571.99 224.08 572.48 224.16 C 573.98 225.21 575.96 224.82 577.52 225.78 C 578.86 225.98 580.25 226.06 581.51 226.67 C 582.51 227.00 583.50 227.34 584.50 227.70 C 585.50 228.02 586.50 228.35 587.51 228.69 C 588.94 229.01 590.29 229.61 591.60 230.31 C 593.17 230.98 594.90 231.10 596.52 231.66 C 597.51 231.99 598.50 232.34 599.50 232.70 C 600.91 233.07 602.26 233.62 603.60 234.21 C 604.09 234.49 605.05 235.05 605.54 235.33 C 607.23 235.94 608.95 236.49 610.59 237.26 C 612.24 237.96 613.95 238.51 615.62 239.20 C 616.53 239.73 617.46 240.26 618.41 240.76 C 621.51 242.17 624.49 243.82 627.58 245.26 C 629.19 246.09 630.80 246.91 632.42 247.74 C 633.77 248.36 635.10 249.02 636.40 249.76 C 637.45 250.24 638.51 250.73 639.59 251.19 C 641.56 252.32 643.35 253.75 645.42 254.71 C 647.14 255.61 648.61 256.94 650.40 257.73 C 652.52 258.87 654.46 260.32 656.44 261.70 C 661.17 264.95 666.42 267.59 670.38 271.81 C 672.06 272.25 673.22 273.59 674.38 274.81 C 676.99 275.61 678.31 278.20 680.38 279.80 C 682.59 280.36 683.70 282.46 685.39 283.80 C 689.33 285.20 690.80 290.00 694.81 291.29 C 694.91 293.18 696.16 294.12 698.00 294.20 C 698.00 294.57 698.01 295.32 698.01 295.70 C 700.86 296.70 703.29 299.14 704.30 301.99 C 704.67 301.99 705.42 301.99 705.80 301.99 C 705.88 303.82 706.80 305.07 708.70 305.19 C 710.02 309.19 714.79 310.67 716.20 314.61 C 717.55 316.27 719.59 317.42 720.21 319.61 C 721.84 321.64 724.28 323.05 725.21 325.61 C 726.39 326.79 727.75 327.92 728.18 329.62 C 732.40 333.59 735.05 338.84 738.31 343.57 C 739.86 345.82 741.52 348.02 742.74 350.48 C 743.66 352.17 744.82 353.72 745.80 355.39 C 746.49 357.71 748.13 359.50 749.29 361.57 C 749.75 362.53 750.24 363.48 750.75 364.43 C 750.98 364.93 751.45 365.93 751.68 366.43 C 752.19 367.58 752.94 368.60 753.83 369.51 C 753.98 370.97 754.59 372.29 755.22 373.61 C 756.34 375.54 757.30 377.56 758.26 379.58 C 759.08 381.19 759.90 382.81 760.79 384.39 C 761.49 386.05 762.01 387.78 762.74 389.44 C 763.50 391.05 764.05 392.75 764.69 394.42 C 765.21 395.48 765.76 396.53 766.33 397.59 C 766.67 398.54 766.99 399.51 767.31 400.49 C 767.66 401.47 768.00 402.47 768.35 403.48 C 768.87 405.09 769.00 406.83 769.69 408.40 C 770.38 409.70 770.99 411.05 771.27 412.52 C 771.76 413.85 772.21 415.20 772.70 416.55 C 772.98 417.60 773.35 418.63 773.79 419.64 C 773.89 420.10 774.09 421.02 774.19 421.48 C 775.47 423.28 774.46 425.74 775.81 427.52 C 775.98 428.91 775.91 430.42 776.84 431.61 C 776.93 432.56 777.03 433.51 777.15 434.47 C 778.05 435.63 777.98 437.10 778.22 438.48 C 779.20 439.97 778.96 441.79 779.16 443.48 C 780.52 445.18 779.85 447.46 780.12 449.46 C 781.30 450.89 780.94 452.77 781.16 454.47 C 782.85 456.55 781.07 459.57 782.91 461.58 C 783.02 464.21 782.97 466.84 783.09 469.47 C 785.45 472.72 782.58 477.26 784.84 480.58 C 785.06 492.12 785.17 503.68 784.80 515.21 C 780.44 509.92 775.29 505.38 770.51 500.50 C 709.86 439.82 649.20 379.14 588.50 318.50 C 585.90 316.02 583.74 312.71 580.11 311.64 C 576.43 311.69 572.76 311.82 569.09 311.90 C 526.72 312.12 484.35 311.94 441.99 311.99 C 432.36 311.97 422.73 311.95 413.11 311.99 C 412.28 315.79 411.53 319.62 411.04 323.49 C 407.12 347.05 402.40 370.48 398.18 393.99 C 392.23 425.20 386.85 456.52 380.62 487.68 C 379.80 491.74 379.03 495.82 377.91 499.82 C 371.29 500.13 365.65 505.27 363.47 511.30 C 362.39 516.06 362.72 520.99 362.72 525.83 L 362.75 527.01 C 362.85 530.32 362.84 533.64 362.76 536.96 C 362.68 540.34 362.60 543.73 362.44 547.12 C 370.20 555.81 378.85 563.68 386.99 572.02 C 410.95 596.14 435.16 620.02 459.02 644.25 C 454.13 643.54 449.23 642.89 444.33 642.24 C 444.27 644.05 444.22 645.88 444.17 647.70 C 451.43 648.67 458.68 649.76 465.94 650.73 C 466.97 651.81 468.00 652.90 469.03 653.99 C 467.67 653.98 466.32 653.98 464.98 653.98 C 464.98 655.64 464.99 657.31 465.01 658.99 C 468.14 658.99 471.27 659.01 474.40 659.04 C 482.82 668.44 492.16 676.97 500.95 686.03 C 528.47 713.55 556.01 741.05 583.49 768.62 C 584.62 769.65 585.93 770.45 587.28 771.20 C 585.96 771.67 584.63 772.13 583.42 772.84 C 582.95 772.93 582.00 773.10 581.53 773.19 C 580.31 773.96 578.87 773.99 577.51 774.22 C 576.33 775.05 574.87 774.99 573.52 775.20 C 572.35 776.08 570.88 776.00 569.52 776.20 C 568.32 777.02 566.87 777.00 565.51 777.21 C 564.32 778.03 562.87 777.99 561.52 778.22 C 560.02 779.20 558.20 778.96 556.52 779.16 C 555.09 780.30 553.21 779.94 551.53 780.16 C 550.06 781.21 548.21 780.94 546.53 781.17 C 544.45 782.53 541.85 781.83 539.53 782.10 C 536.92 783.92 533.49 782.60 530.53 783.09 C 527.27 785.44 522.73 782.59 519.41 784.84 C 506.48 785.10 493.52 785.10 480.58 784.84 C 477.27 782.59 472.73 785.45 469.48 783.08 C 466.51 782.63 463.11 783.86 460.47 782.10 C 458.14 781.84 455.57 782.50 453.48 781.21 C 452.09 780.99 450.60 781.09 449.47 780.12 C 447.46 779.86 445.19 780.51 443.48 779.16 C 441.79 778.94 439.95 779.24 438.48 778.22 C 437.11 778.01 435.68 778.00 434.49 777.21 C 433.11 777.00 431.66 777.04 430.48 776.20 C 429.09 775.99 427.59 776.13 426.48 775.13 C 425.50 775.03 424.52 774.94 423.55 774.86 C 422.02 773.87 420.14 773.96 418.49 773.33 C 417.48 772.99 416.48 772.65 415.49 772.31 C 414.48 771.98 413.49 771.64 412.50 771.29 C 411.05 770.95 409.70 770.37 408.40 769.69 C 406.83 768.91 404.99 769.06 403.47 768.19 C 402.99 768.10 402.03 767.91 401.55 767.82 C 400.57 767.31 399.54 766.95 398.46 766.76 C 397.14 766.01 395.79 765.33 394.43 764.69 C 392.75 764.04 391.04 763.47 389.40 762.74 C 387.76 762.00 386.03 761.48 384.39 760.79 C 383.11 760.00 381.77 759.35 380.42 758.74 C 378.80 757.90 377.19 757.09 375.58 756.26 C 373.85 755.43 372.14 754.56 370.42 753.74 C 368.81 752.90 367.19 752.09 365.58 751.26 C 363.86 750.41 362.15 749.55 360.39 748.79 C 358.72 747.80 357.17 746.62 355.43 745.76 C 353.71 744.84 352.16 743.64 350.44 742.76 C 349.07 742.04 347.79 741.20 346.54 740.32 C 345.52 739.68 344.53 738.99 343.55 738.32 C 340.19 736.01 336.49 734.09 333.57 731.21 C 330.57 729.71 327.94 727.61 325.61 725.23 C 322.57 724.25 321.45 720.69 318.40 719.79 C 317.02 718.71 315.98 717.28 314.60 716.21 C 310.67 714.79 309.20 710.00 305.19 708.71 C 305.07 706.82 303.83 705.87 302.00 705.80 C 301.99 705.43 301.99 704.67 301.99 704.29 C 299.15 703.29 296.67 700.87 295.71 698.01 C 295.33 698.01 294.57 698.01 294.19 698.01 C 294.13 696.15 293.17 694.91 291.28 694.81 C 290.01 690.80 285.20 689.33 283.79 685.40 C 282.70 684.02 281.30 682.96 280.20 681.61 C 279.34 678.54 275.72 677.46 274.77 674.41 C 273.43 672.73 271.49 671.52 270.77 669.41 C 267.22 665.49 264.66 660.79 261.68 656.44 C 260.98 655.45 260.31 654.47 259.67 653.46 C 258.78 652.20 257.95 650.91 257.24 649.54 C 256.35 647.82 255.18 646.27 254.20 644.61 C 253.04 641.33 250.53 638.82 249.25 635.59 C 248.75 634.52 248.24 633.46 247.75 632.40 C 246.51 630.16 245.47 627.83 244.26 625.58 C 243.31 623.55 242.33 621.54 241.25 619.60 C 240.75 618.52 240.26 617.46 239.75 616.42 C 238.57 614.63 238.09 612.52 237.27 610.58 C 236.48 608.96 235.94 607.25 235.30 605.58 C 234.76 604.51 234.22 603.46 233.71 602.40 C 233.21 601.07 232.75 599.74 232.15 598.47 C 232.09 597.96 231.97 596.95 231.90 596.45 C 230.02 594.53 230.39 591.68 229.17 589.48 C 229.08 588.99 228.91 588.02 228.82 587.53 C 228.36 586.54 227.98 585.54 227.67 584.52 C 227.34 583.51 227.01 582.51 226.68 581.52 C 226.08 580.25 225.99 578.85 225.78 577.51 C 224.94 576.33 225.00 574.87 224.80 573.52 C 223.91 572.35 223.97 570.87 223.80 569.51 C 222.86 567.95 223.18 565.99 222.17 564.47 C 222.08 563.98 221.90 563.01 221.82 562.52 C 220.17 560.42 221.91 557.44 220.11 555.45 C 220.02 553.80 219.97 552.16 219.89 550.52 C 218.90 549.39 218.99 547.89 218.79 546.52 C 217.50 544.41 218.14 541.85 217.90 539.53 C 216.08 536.92 217.39 533.48 216.92 530.52 C 214.52 527.28 217.43 522.72 215.16 519.41 C 214.90 506.48 214.90 493.52 215.16 480.59 C 217.41 477.26 214.53 472.72 216.92 469.47 C 217.39 466.51 216.09 463.09 217.88 460.47 C 218.12 458.46 217.54 456.21 218.84 454.47 C 219.04 452.77 218.71 450.89 219.88 449.47 C 220.15 447.46 219.44 445.15 220.88 443.47 C 221.06 441.45 220.66 439.27 221.81 437.47 C 221.90 437.00 222.09 436.05 222.19 435.57 C 223.15 434.00 222.84 432.02 223.85 430.47 C 223.94 429.48 224.04 428.50 224.13 427.52 C 225.57 425.80 224.57 423.36 225.67 421.48 C 226.00 420.48 226.34 419.48 226.69 418.50 C 227.01 417.49 227.34 416.49 227.69 415.49 C 228.01 414.49 228.34 413.49 228.69 412.50 C 229.03 411.05 229.62 409.70 230.31 408.40 C 231.01 406.83 231.05 405.07 231.67 403.48 C 232.00 402.47 232.34 401.47 232.68 400.48 C 232.97 399.50 233.31 398.54 233.70 397.60 C 234.38 396.32 234.97 394.99 235.23 393.55 C 236.06 391.87 236.92 390.22 237.77 388.56 C 238.07 387.10 238.62 385.73 239.22 384.39 C 239.49 383.90 240.02 382.92 240.28 382.44 C 240.98 381.11 241.63 379.77 242.26 378.42 C 242.97 377.10 243.63 375.77 244.26 374.42 C 245.08 372.80 245.90 371.19 246.75 369.59 C 247.24 368.52 247.75 367.46 248.25 366.40 C 249.10 364.80 249.93 363.19 250.73 361.57 C 251.58 359.34 253.16 357.53 254.24 355.43 C 255.16 353.72 256.37 352.18 257.24 350.44 C 257.94 349.07 258.77 347.78 259.69 346.56 C 263.37 341.23 266.50 335.46 270.78 330.59 C 271.44 328.43 273.46 327.28 274.79 325.60 C 275.65 323.01 278.18 321.67 279.80 319.62 C 280.35 317.39 282.48 316.30 283.80 314.60 C 285.21 310.67 290.00 309.19 291.29 305.19 C 293.18 305.07 294.13 303.83 294.19 301.99 C 294.57 301.99 295.33 301.99 295.71 301.99 C 296.68 299.13 299.14 296.70 301.99 295.70 C 301.99 295.32 301.99 294.56 301.99 294.18 C 303.84 294.13 305.07 293.17 305.19 291.29 C 308.69 290.00 310.49 286.38 313.40 284.22 C 315.58 283.60 316.72 281.56 318.37 280.19 C 321.47 279.37 322.52 275.67 325.62 274.80 C 326.78 273.60 327.92 272.24 329.63 271.82 C 330.77 270.58 331.94 269.30 333.61 268.80 C 336.48 265.88 340.19 263.98 343.56 261.70 C 345.54 260.34 347.47 258.87 349.60 257.73 C 351.66 256.76 353.42 255.30 355.40 254.20 C 355.92 253.99 356.95 253.56 357.46 253.34 C 358.83 252.46 360.16 251.53 361.54 250.67 C 362.05 250.43 363.07 249.97 363.58 249.74 C 365.61 248.63 367.85 247.85 369.52 246.18 C 370.96 246.00 372.29 245.38 373.62 244.81 C 375.00 244.07 376.33 243.22 377.52 242.20 C 378.53 242.01 379.51 241.73 380.47 241.36 C 380.96 241.09 381.95 240.55 382.44 240.27 C 382.93 240.01 383.90 239.49 384.39 239.23 C 386.03 238.50 387.75 237.98 389.40 237.26 C 391.03 236.51 392.75 235.97 394.42 235.31 C 395.48 234.77 396.53 234.22 397.59 233.66 C 398.54 233.31 399.50 232.98 400.48 232.67 C 401.47 232.31 402.47 231.97 403.48 231.66 C 405.08 231.07 406.82 230.99 408.40 230.31 C 409.69 229.61 411.06 229.03 412.51 228.72 C 413.86 228.21 415.23 227.77 416.59 227.30 C 417.62 227.01 418.62 226.64 419.60 226.19 C 420.07 226.10 421.01 225.91 421.48 225.81 C 422.93 224.72 424.78 225.04 426.47 224.85 C 427.61 223.88 429.09 223.98 430.48 223.79 C 432.06 222.91 434.00 223.12 435.57 222.18 C 436.04 222.09 437.00 221.90 437.47 221.81 C 439.25 220.63 441.46 221.10 443.47 220.88 C 445.49 219.06 448.53 220.92 450.57 219.15 C 451.53 219.04 452.50 218.95 453.47 218.85 C 455.54 217.45 458.14 218.16 460.47 217.90 C 463.09 216.09 466.50 217.38 469.47 216.92 C 472.73 214.55 477.26 217.40 480.59 215.16 M 322.65 624.83 C 322.58 626.71 322.43 628.59 322.19 630.47 C 325.12 630.67 328.05 630.98 330.96 631.42 C 331.16 629.61 331.37 627.82 331.59 626.03 C 328.61 625.62 325.63 625.23 322.65 624.83 M 354.09 629.54 C 354.09 631.34 354.06 633.16 354.00 634.98 C 356.82 634.95 359.71 634.77 362.45 635.59 C 366.85 636.88 371.46 637.17 375.96 637.98 C 375.99 636.32 376.03 634.66 376.09 633.02 C 368.97 630.91 361.45 630.33 354.09 629.54 M 399.43 635.87 C 399.26 637.70 399.07 639.54 398.88 641.39 C 406.65 641.94 414.26 643.80 422.04 644.19 C 421.96 642.33 421.91 640.49 421.89 638.65 C 414.33 638.42 406.96 636.41 399.43 635.87 M 343.00 654.00 C 342.99 655.66 342.99 657.33 343.00 659.00 C 345.33 658.99 347.67 659.00 350.01 659.01 C 350.00 657.33 350.00 655.65 350.01 653.99 C 347.67 653.99 345.33 653.99 343.00 654.00 M 373.99 653.99 C 373.99 655.66 373.99 657.33 373.99 659.01 C 381.33 659.00 388.67 659.00 396.01 659.00 C 396.00 657.32 396.00 655.66 396.01 653.99 C 388.67 653.99 381.33 653.99 373.99 653.99 M 419.99 654.01 C 419.99 655.66 419.99 657.32 420.00 658.99 C 427.00 658.93 434.01 658.94 441.01 659.00 C 441.00 657.33 440.99 655.67 440.99 654.02 C 433.99 654.00 426.99 654.04 419.99 654.01 Z" />
</g>
<g id="#009f63ff">
<path fill="#009f63" opacity="1.00" d=" M 413.11 311.99 C 422.73 311.95 432.36 311.97 441.99 311.99 C 441.02 315.91 440.15 319.84 439.41 323.81 L 439.07 323.79 C 429.73 323.36 420.38 323.87 411.04 323.49 C 411.53 319.62 412.28 315.79 413.11 311.99 Z" />
<path fill="#009f63" opacity="1.00" d=" M 496.73 417.94 C 499.78 419.42 503.09 421.29 504.24 424.71 C 506.69 430.49 502.30 437.67 496.10 438.37 C 497.51 435.97 499.22 433.66 499.98 430.95 C 500.87 426.91 499.45 422.65 496.64 419.69 C 496.66 419.26 496.71 418.38 496.73 417.94 Z" />
<path fill="#009f63" opacity="1.00" d=" M 536.94 419.01 C 537.54 418.95 538.75 418.84 539.35 418.78 C 545.97 420.61 548.23 429.73 543.82 434.75 C 542.19 436.93 539.64 438.08 536.96 438.17 C 538.60 435.98 540.97 433.97 541.12 431.03 C 541.38 428.45 541.43 425.80 540.80 423.27 C 539.97 421.49 538.31 420.33 536.94 419.01 Z" />
<path fill="#009f63" opacity="1.00" d=" M 578.14 419.05 C 578.67 418.98 579.72 418.85 580.25 418.78 C 585.06 419.85 588.25 425.26 587.19 430.05 C 586.87 433.37 584.35 435.85 581.64 437.49 C 580.86 431.32 585.02 422.94 578.14 419.05 Z" />
<path fill="#009f63" opacity="1.00" d=" M 377.91 499.82 C 379.03 495.82 379.80 491.74 380.62 487.68 C 390.06 488.40 399.54 487.85 408.99 488.02 L 409.99 488.02 C 408.25 491.79 406.91 495.78 406.62 499.96 C 405.43 499.94 404.24 499.95 403.06 499.98 C 394.67 499.97 386.29 500.15 377.91 499.82 Z" />
<path fill="#009f63" opacity="1.00" d=" M 391.46 546.96 C 401.55 547.04 411.64 546.99 421.73 546.99 C 427.54 554.20 431.80 562.47 437.09 570.05 C 434.92 570.05 432.76 570.06 430.60 570.07 C 423.49 570.05 416.39 569.99 409.28 570.02 C 403.22 562.42 398.02 554.14 391.46 546.96 Z" />
<path fill="#009f63" opacity="1.00" d=" M 460.60 605.01 C 464.83 605.05 469.06 604.96 473.29 604.97 C 478.03 605.04 482.77 605.00 487.52 605.00 C 494.89 612.95 502.84 620.34 510.35 628.15 C 505.92 632.62 501.41 637.01 497.03 641.53 C 484.91 629.33 472.60 617.33 460.60 605.01 Z" />
</g>
<g id="#11a42fff">
<path fill="#11a42f" opacity="1.00" d=" M 441.99 311.99 C 484.35 311.94 526.72 312.12 569.09 311.90 C 570.40 315.83 571.35 319.87 572.17 323.93 C 542.45 324.19 512.73 323.97 483.01 324.04 C 468.47 323.91 453.93 324.33 439.41 323.81 C 440.15 319.84 441.02 315.91 441.99 311.99 Z" />
<path fill="#11a42f" opacity="1.00" d=" M 488.05 419.88 C 490.49 417.87 493.78 418.21 496.73 417.94 C 496.71 418.38 496.66 419.26 496.64 419.69 C 499.45 422.65 500.87 426.91 499.98 430.95 C 499.22 433.66 497.51 435.97 496.10 438.37 L 495.77 438.91 C 492.31 438.58 488.38 437.80 486.31 434.72 C 483.07 430.25 483.86 423.45 488.05 419.88 Z" />
<path fill="#11a42f" opacity="1.00" d=" M 532.40 418.53 C 534.65 417.69 537.09 418.22 539.35 418.78 C 538.75 418.84 537.54 418.95 536.94 419.01 C 538.31 420.33 539.97 421.49 540.80 423.27 C 541.43 425.80 541.38 428.45 541.12 431.03 C 540.97 433.97 538.60 435.98 536.96 438.17 C 533.98 437.90 530.34 438.44 528.44 435.56 C 525.04 432.38 526.16 427.43 526.27 423.32 C 528.16 421.55 529.96 419.54 532.40 418.53 Z" />
<path fill="#11a42f" opacity="1.00" d=" M 572.69 418.76 C 575.08 417.63 577.80 418.09 580.25 418.78 C 579.72 418.85 578.67 418.98 578.14 419.05 C 585.02 422.94 580.86 431.32 581.64 437.49 L 581.66 437.81 C 577.30 439.17 571.31 438.77 568.66 434.54 C 566.25 431.35 567.25 427.12 567.42 423.44 C 569.09 421.80 570.63 419.94 572.69 418.76 Z" />
<path fill="#11a42f" opacity="1.00" d=" M 409.99 488.02 C 474.04 488.00 538.09 487.95 602.14 488.04 C 603.30 491.98 604.28 495.98 605.23 499.99 C 600.10 499.97 594.97 500.01 589.85 500.01 C 528.77 499.96 467.69 500.06 406.62 499.96 C 406.91 495.78 408.25 491.79 409.99 488.02 Z" />
<path fill="#11a42f" opacity="1.00" d=" M 421.73 546.99 C 472.00 547.02 522.27 546.97 572.54 547.02 C 569.91 551.23 566.86 555.16 564.32 559.44 C 561.97 563.06 560.16 567.13 556.87 570.04 C 550.00 569.97 543.12 570.00 536.25 570.00 C 510.46 570.00 484.68 569.99 458.90 570.01 C 451.63 570.05 444.36 569.99 437.09 570.05 C 431.80 562.47 427.54 554.20 421.73 546.99 Z" />
<path fill="#11a42f" opacity="1.00" d=" M 487.52 605.00 C 499.65 604.94 511.78 605.02 523.92 604.97 C 527.09 604.94 530.26 604.97 533.44 604.95 C 525.81 612.75 518.11 620.49 510.35 628.15 C 502.84 620.34 494.89 612.95 487.52 605.00 Z" />
</g>
<g id="#009692ff">
<path fill="#009692" opacity="1.00" d=" M 569.09 311.90 C 572.76 311.82 576.43 311.69 580.11 311.64 C 580.88 315.74 581.97 319.77 582.74 323.87 C 579.21 323.85 575.69 323.86 572.17 323.93 C 571.35 319.87 570.40 315.83 569.09 311.90 Z" />
<path fill="#009692" opacity="1.00" d=" M 602.14 488.04 C 605.81 488.10 609.48 488.11 613.16 488.05 C 613.96 492.13 615.30 496.08 616.87 499.92 C 612.99 499.88 609.11 500.02 605.23 499.99 C 604.28 495.98 603.30 491.98 602.14 488.04 Z" />
<path fill="#009692" opacity="1.00" d=" M 572.54 547.02 C 582.38 546.97 592.23 547.01 602.07 547.00 C 596.04 554.44 590.55 562.30 584.70 569.89 C 578.04 570.01 571.38 569.88 564.73 569.95 C 562.10 569.95 559.49 570.02 556.87 570.04 C 560.16 567.13 561.97 563.06 564.32 559.44 C 566.86 555.16 569.91 551.23 572.54 547.02 Z" />
</g>
<g id="#0068c6ff">
<path fill="#0068c6" opacity="1.00" d=" M 580.11 311.64 C 583.74 312.71 585.90 316.02 588.50 318.50 C 649.20 379.14 709.86 439.82 770.51 500.50 C 775.29 505.38 780.44 509.92 784.80 515.21 C 783.00 519.81 785.20 525.09 783.10 529.56 C 782.68 532.86 783.74 536.47 782.14 539.55 C 782.03 540.85 781.96 542.16 781.88 543.48 C 780.06 545.46 781.88 548.49 780.13 550.53 C 779.90 552.53 780.41 554.75 779.15 556.50 C 779.04 557.48 778.94 558.47 778.86 559.47 C 777.44 561.20 778.45 563.67 777.26 565.52 C 777.00 566.87 776.90 568.28 776.22 569.52 C 776.01 570.87 776.05 572.33 775.24 573.52 C 774.99 574.87 774.90 576.30 774.20 577.54 C 774.10 578.02 773.91 578.98 773.81 579.46 C 772.94 581.02 772.90 582.85 772.34 584.52 C 772.00 585.51 771.65 586.50 771.31 587.50 C 770.99 588.50 770.65 589.49 770.31 590.49 C 769.97 591.48 769.63 592.48 769.28 593.47 C 768.96 594.47 768.64 595.46 768.31 596.46 C 767.93 597.47 767.55 598.48 767.16 599.49 C 767.09 599.96 766.95 600.91 766.88 601.38 C 765.96 602.67 765.33 604.14 764.71 605.60 C 764.00 607.24 763.41 608.94 762.79 610.62 C 762.51 611.10 761.95 612.06 761.67 612.54 C 761.07 614.23 760.51 615.95 759.78 617.61 C 758.98 618.87 758.35 620.22 757.76 621.59 C 757.24 622.52 756.74 623.46 756.23 624.40 C 755.74 625.46 755.23 626.52 754.76 627.59 C 753.90 629.19 753.09 630.80 752.25 632.41 C 751.75 633.46 751.24 634.52 750.76 635.60 C 750.24 636.53 749.75 637.48 749.28 638.44 C 748.45 639.82 747.49 641.13 746.74 642.56 C 745.84 644.29 744.62 645.83 743.77 647.58 C 742.80 649.27 741.61 650.82 740.77 652.59 C 739.99 653.91 739.16 655.20 738.30 656.46 C 737.65 657.47 736.98 658.45 736.31 659.45 C 734.78 661.88 733.27 664.37 731.22 666.40 C 730.70 668.59 728.26 669.39 727.81 671.61 C 726.94 672.53 726.06 673.44 725.22 674.39 C 724.18 676.86 721.91 678.41 720.20 680.38 C 719.24 683.16 716.31 684.50 715.16 687.21 C 710.27 692.31 705.11 697.23 700.62 702.59 C 695.05 706.21 691.41 712.20 685.95 715.98 C 683.81 717.05 682.78 719.56 680.39 720.20 C 678.72 721.54 677.58 723.61 675.39 724.20 C 673.71 725.55 672.58 727.61 670.38 728.21 C 669.21 729.41 668.00 730.61 666.41 731.24 C 664.35 733.26 661.90 734.78 659.46 736.28 C 657.21 737.83 654.97 739.42 652.58 740.76 C 650.82 741.60 649.26 742.78 647.60 743.78 C 645.81 744.57 644.27 745.81 642.57 746.75 C 641.14 747.52 639.81 748.44 638.44 749.28 C 637.47 749.74 636.52 750.23 635.58 750.75 C 633.85 751.57 632.13 752.41 630.42 753.26 C 628.16 754.47 625.82 755.52 623.58 756.74 C 621.55 757.68 619.54 758.65 617.61 759.78 C 615.58 760.71 613.42 761.28 611.40 762.21 C 609.91 763.25 608.20 763.87 606.44 764.23 C 603.74 766.01 600.62 766.75 597.60 767.72 C 596.26 768.34 594.89 768.90 593.46 769.27 C 592.47 769.61 591.50 769.96 590.53 770.32 C 589.48 770.75 588.40 771.05 587.28 771.20 C 585.93 770.45 584.62 769.65 583.49 768.62 C 556.01 741.05 528.47 713.55 500.95 686.03 C 492.16 676.97 482.82 668.44 474.40 659.04 C 478.60 659.05 482.80 659.01 487.00 658.98 C 487.00 657.31 487.01 655.64 487.02 653.99 C 481.02 654.00 475.02 653.99 469.03 653.99 C 468.00 652.90 466.97 651.81 465.94 650.73 C 466.37 649.14 466.83 647.56 467.32 645.99 C 464.60 645.16 461.82 644.59 459.02 644.25 C 435.16 620.02 410.95 596.14 386.99 572.02 C 378.85 563.68 370.20 555.81 362.44 547.12 C 372.11 546.83 381.78 547.08 391.46 546.96 C 398.02 554.14 403.22 562.42 409.28 570.02 C 416.39 569.99 423.49 570.05 430.60 570.07 C 431.12 577.53 429.69 585.21 431.71 592.52 C 433.62 597.98 438.28 602.24 443.42 604.66 C 449.09 605.54 454.88 604.74 460.60 605.01 C 472.60 617.33 484.91 629.33 497.03 641.53 C 501.41 637.01 505.92 632.62 510.35 628.15 C 518.11 620.49 525.81 612.75 533.44 604.95 C 538.61 604.79 543.80 605.29 548.96 604.72 C 557.25 603.74 564.07 596.26 564.54 587.96 C 564.90 581.96 564.56 575.95 564.73 569.95 C 571.38 569.88 578.04 570.01 584.70 569.89 C 590.55 562.30 596.04 554.44 602.07 547.00 L 602.95 547.00 C 612.30 547.00 621.65 547.00 631.01 547.01 C 631.00 543.66 630.99 540.32 630.97 536.98 C 630.94 533.65 630.95 530.33 630.97 527.00 C 630.80 521.83 631.61 516.57 630.56 511.46 C 628.51 505.62 623.35 500.23 616.87 499.92 C 615.30 496.08 613.96 492.13 613.16 488.05 C 611.73 479.93 610.00 471.85 608.85 463.68 C 608.33 460.04 607.50 456.46 606.81 452.86 C 600.96 420.93 594.94 389.03 589.01 357.12 C 588.36 353.75 587.69 350.40 587.03 347.04 C 585.55 339.32 584.04 331.61 582.74 323.87 C 581.97 319.77 580.88 315.74 580.11 311.64 M 662.93 626.04 C 663.22 627.88 663.49 629.73 663.71 631.59 C 666.70 631.15 669.70 630.77 672.69 630.34 C 672.35 628.50 672.04 626.67 671.78 624.84 C 668.81 625.17 665.86 625.56 662.93 626.04 M 617.98 632.27 C 618.15 634.15 618.26 636.05 618.33 637.96 C 625.95 637.19 633.47 635.74 641.08 634.86 C 640.81 632.97 640.56 631.09 640.32 629.21 C 632.88 630.27 625.46 631.51 617.98 632.27 M 572.70 638.74 C 573.00 640.56 573.12 642.41 573.10 644.27 C 580.81 643.64 588.45 642.29 596.12 641.21 C 595.75 639.38 595.42 637.56 595.13 635.73 C 587.64 636.59 580.21 638.10 572.70 638.74 M 527.49 645.63 C 527.68 647.32 527.87 649.03 528.06 650.74 C 535.64 650.30 543.04 648.39 550.63 647.94 C 550.51 646.03 550.34 644.11 550.15 642.22 C 542.59 643.27 534.94 643.97 527.49 645.63 M 507.99 654.00 C 507.99 655.66 507.99 657.33 507.99 659.01 C 515.29 658.99 522.59 659.01 529.89 658.99 C 529.92 657.33 529.95 655.68 530.00 654.03 C 522.66 653.97 515.33 654.01 507.99 654.00 M 552.96 653.99 C 552.98 655.64 553.00 657.29 553.02 658.96 C 560.35 659.04 567.68 658.98 575.01 659.01 C 575.00 657.33 575.00 655.66 575.01 653.99 C 567.66 654.00 560.31 654.00 552.96 653.99 M 598.99 653.99 C 598.98 655.66 598.98 657.33 598.99 659.01 C 606.33 658.99 613.66 659.00 621.00 659.00 C 621.00 657.32 621.00 655.66 621.01 653.99 C 613.67 654.00 606.33 654.00 598.99 653.99 M 644.00 654.01 C 643.99 655.66 643.99 657.32 643.99 658.98 C 646.66 658.99 649.33 659.00 652.00 658.99 C 651.99 657.32 651.99 655.66 652.00 654.01 C 649.33 653.99 646.66 653.99 644.00 654.01 Z" />
</g>
<g id="#5a6080ff">
<path fill="#5a6080" opacity="1.00" d=" M 411.04 323.49 C 420.38 323.87 429.73 323.36 439.07 323.79 C 438.76 330.33 437.07 336.67 436.00 343.10 C 427.61 388.40 419.11 433.68 410.85 479.01 C 410.31 482.02 409.67 485.02 408.99 488.02 C 399.54 487.85 390.06 488.40 380.62 487.68 C 386.85 456.52 392.23 425.20 398.18 393.99 C 402.40 370.48 407.12 347.05 411.04 323.49 Z" />
<path fill="#5a6080" opacity="1.00" d=" M 362.75 527.01 C 372.15 526.97 381.56 527.00 390.96 527.00 C 390.96 530.32 390.96 533.65 390.83 536.97 C 381.47 537.01 372.11 537.03 362.76 536.96 C 362.84 533.64 362.85 530.32 362.75 527.01 Z" />
<path fill="#5a6080" opacity="1.00" d=" M 430.60 570.07 C 432.76 570.06 434.92 570.05 437.09 570.05 C 444.36 569.99 451.63 570.05 458.90 570.01 C 459.33 577.55 457.93 585.35 460.12 592.70 C 462.04 598.79 467.61 602.70 473.29 604.97 C 469.06 604.96 464.83 605.05 460.60 605.01 C 454.88 604.74 449.09 605.54 443.42 604.66 C 438.28 602.24 433.62 597.98 431.71 592.52 C 429.69 585.21 431.12 577.53 430.60 570.07 Z" />
</g>
<g id="#303960ff">
<path fill="#303960" opacity="1.00" d=" M 439.07 323.79 L 439.41 323.81 C 453.93 324.33 468.47 323.91 483.01 324.04 C 512.73 323.97 542.45 324.19 572.17 323.93 C 572.81 331.71 573.97 339.44 575.96 347.00 C 535.66 347.00 495.37 347.00 455.07 347.00 C 454.87 385.90 454.87 424.82 455.11 463.72 C 502.47 463.59 549.83 463.73 597.19 463.65 C 601.07 463.61 604.96 463.62 608.85 463.68 C 610.00 471.85 611.73 479.93 613.16 488.05 C 609.48 488.11 605.81 488.10 602.14 488.04 C 538.09 487.95 474.04 488.00 409.99 488.02 L 408.99 488.02 C 409.67 485.02 410.31 482.02 410.85 479.01 C 419.11 433.68 427.61 388.40 436.00 343.10 C 437.07 336.67 438.76 330.33 439.07 323.79 Z" />
<path fill="#303960" opacity="1.00" d=" M 488.00 403.00 C 517.33 403.00 546.67 403.01 576.01 402.99 C 576.01 403.74 576.01 405.25 576.01 406.00 C 546.67 405.99 517.33 406.01 488.00 405.99 C 488.00 405.24 488.00 403.75 488.00 403.00 Z" />
<path fill="#303960" opacity="1.00" d=" M 390.96 527.00 C 461.50 526.98 532.05 527.04 602.59 526.97 C 603.63 530.27 603.54 533.73 602.55 537.03 C 531.97 536.96 461.40 537.05 390.83 536.97 C 390.96 533.65 390.96 530.32 390.96 527.00 Z" />
<path fill="#303960" opacity="1.00" d=" M 458.90 570.01 C 484.68 569.99 510.46 570.00 536.25 570.00 C 536.21 576.34 536.48 582.68 536.33 589.02 C 536.34 592.78 533.71 595.74 531.74 598.70 C 529.85 601.56 527.05 603.67 523.92 604.97 C 511.78 605.02 499.65 604.94 487.52 605.00 C 482.77 605.00 478.03 605.04 473.29 604.97 C 467.61 602.70 462.04 598.79 460.12 592.70 C 457.93 585.35 459.33 577.55 458.90 570.01 Z" />
<path fill="#303960" opacity="1.00" d=" M 322.65 624.83 C 325.63 625.23 328.61 625.62 331.59 626.03 C 331.37 627.82 331.16 629.61 330.96 631.42 C 328.05 630.98 325.12 630.67 322.19 630.47 C 322.43 628.59 322.58 626.71 322.65 624.83 Z" />
<path fill="#303960" opacity="1.00" d=" M 662.93 626.04 C 665.86 625.56 668.81 625.17 671.78 624.84 C 672.04 626.67 672.35 628.50 672.69 630.34 C 669.70 630.77 666.70 631.15 663.71 631.59 C 663.49 629.73 663.22 627.88 662.93 626.04 Z" />
<path fill="#303960" opacity="1.00" d=" M 354.09 629.54 C 361.45 630.33 368.97 630.91 376.09 633.02 C 376.03 634.66 375.99 636.32 375.96 637.98 C 371.46 637.17 366.85 636.88 362.45 635.59 C 359.71 634.77 356.82 634.95 354.00 634.98 C 354.06 633.16 354.09 631.34 354.09 629.54 Z" />
<path fill="#303960" opacity="1.00" d=" M 617.98 632.27 C 625.46 631.51 632.88 630.27 640.32 629.21 C 640.56 631.09 640.81 632.97 641.08 634.86 C 633.47 635.74 625.95 637.19 618.33 637.96 C 618.26 636.05 618.15 634.15 617.98 632.27 Z" />
<path fill="#303960" opacity="1.00" d=" M 399.43 635.87 C 406.96 636.41 414.33 638.42 421.89 638.65 C 421.91 640.49 421.96 642.33 422.04 644.19 C 414.26 643.80 406.65 641.94 398.88 641.39 C 399.07 639.54 399.26 637.70 399.43 635.87 Z" />
<path fill="#303960" opacity="1.00" d=" M 572.70 638.74 C 580.21 638.10 587.64 636.59 595.13 635.73 C 595.42 637.56 595.75 639.38 596.12 641.21 C 588.45 642.29 580.81 643.64 573.10 644.27 C 573.12 642.41 573.00 640.56 572.70 638.74 Z" />
<path fill="#303960" opacity="1.00" d=" M 444.33 642.24 C 449.23 642.89 454.13 643.54 459.02 644.25 C 461.82 644.59 464.60 645.16 467.32 645.99 C 466.83 647.56 466.37 649.14 465.94 650.73 C 458.68 649.76 451.43 648.67 444.17 647.70 C 444.22 645.88 444.27 644.05 444.33 642.24 Z" />
<path fill="#303960" opacity="1.00" d=" M 527.49 645.63 C 534.94 643.97 542.59 643.27 550.15 642.22 C 550.34 644.11 550.51 646.03 550.63 647.94 C 543.04 648.39 535.64 650.30 528.06 650.74 C 527.87 649.03 527.68 647.32 527.49 645.63 Z" />
<path fill="#303960" opacity="1.00" d=" M 343.00 654.00 C 345.33 653.99 347.67 653.99 350.01 653.99 C 350.00 655.65 350.00 657.33 350.01 659.01 C 347.67 659.00 345.33 658.99 343.00 659.00 C 342.99 657.33 342.99 655.66 343.00 654.00 Z" />
<path fill="#303960" opacity="1.00" d=" M 373.99 653.99 C 381.33 653.99 388.67 653.99 396.01 653.99 C 396.00 655.66 396.00 657.32 396.01 659.00 C 388.67 659.00 381.33 659.00 373.99 659.01 C 373.99 657.33 373.99 655.66 373.99 653.99 Z" />
<path fill="#303960" opacity="1.00" d=" M 464.98 653.98 C 466.32 653.98 467.67 653.98 469.03 653.99 C 475.02 653.99 481.02 654.00 487.02 653.99 C 487.01 655.64 487.00 657.31 487.00 658.98 C 482.80 659.01 478.60 659.05 474.40 659.04 C 471.27 659.01 468.14 658.99 465.01 658.99 C 464.99 657.31 464.98 655.64 464.98 653.98 Z" />
<path fill="#303960" opacity="1.00" d=" M 507.99 654.00 C 515.33 654.01 522.66 653.97 530.00 654.03 C 529.95 655.68 529.92 657.33 529.89 658.99 C 522.59 659.01 515.29 658.99 507.99 659.01 C 507.99 657.33 507.99 655.66 507.99 654.00 Z" />
<path fill="#303960" opacity="1.00" d=" M 552.96 653.99 C 560.31 654.00 567.66 654.00 575.01 653.99 C 575.00 655.66 575.00 657.33 575.01 659.01 C 567.68 658.98 560.35 659.04 553.02 658.96 C 553.00 657.29 552.98 655.64 552.96 653.99 Z" />
<path fill="#303960" opacity="1.00" d=" M 598.99 653.99 C 606.33 654.00 613.67 654.00 621.01 653.99 C 621.00 655.66 621.00 657.32 621.00 659.00 C 613.66 659.00 606.33 658.99 598.99 659.01 C 598.98 657.33 598.98 655.66 598.99 653.99 Z" />
<path fill="#303960" opacity="1.00" d=" M 644.00 654.01 C 646.66 653.99 649.33 653.99 652.00 654.01 C 651.99 655.66 651.99 657.32 652.00 658.99 C 649.33 659.00 646.66 658.99 643.99 658.98 C 643.99 657.32 643.99 655.66 644.00 654.01 Z" />
</g>
<g id="#2d3451ff">
<path fill="#2d3451" opacity="1.00" d=" M 572.17 323.93 C 575.69 323.86 579.21 323.85 582.74 323.87 C 584.04 331.61 585.55 339.32 587.03 347.04 C 583.34 347.00 579.65 346.99 575.96 347.00 C 573.97 339.44 572.81 331.71 572.17 323.93 Z" />
<path fill="#2d3451" opacity="1.00" d=" M 488.00 372.07 C 515.32 372.03 542.64 372.08 569.96 372.04 C 569.97 372.77 569.97 374.24 569.97 374.97 C 542.65 375.06 515.32 375.01 488.00 375.00 C 488.00 374.26 488.00 372.80 488.00 372.07 Z" />
<path fill="#2d3451" opacity="1.00" d=" M 488.00 382.00 C 516.00 381.99 544.00 381.97 572.00 382.01 C 572.00 382.74 572.00 384.21 572.01 384.95 C 544.00 384.91 516.00 384.80 488.00 385.02 C 488.00 384.26 488.00 382.76 488.00 382.00 Z" />
<path fill="#2d3451" opacity="1.00" d=" M 488.01 392.99 C 516.67 392.98 545.33 392.98 574.00 392.99 C 574.00 393.74 574.00 395.24 574.00 395.99 C 545.33 395.99 516.66 395.99 487.99 395.99 C 487.99 395.24 488.00 393.74 488.01 392.99 Z" />
<path fill="#2d3451" opacity="1.00" d=" M 602.59 526.97 C 612.05 527.03 621.51 526.97 630.97 527.00 C 630.95 530.33 630.94 533.65 630.97 536.98 C 621.66 537.03 612.36 536.97 603.06 537.02 L 602.55 537.03 C 603.54 533.73 603.63 530.27 602.59 526.97 Z" />
<path fill="#2d3451" opacity="1.00" d=" M 536.25 570.00 C 543.12 570.00 550.00 569.97 556.87 570.04 C 559.49 570.02 562.10 569.95 564.73 569.95 C 564.56 575.95 564.90 581.96 564.54 587.96 C 564.07 596.26 557.25 603.74 548.96 604.72 C 543.80 605.29 538.61 604.79 533.44 604.95 C 530.26 604.97 527.09 604.94 523.92 604.97 C 527.05 603.67 529.85 601.56 531.74 598.70 C 533.71 595.74 536.34 592.78 536.33 589.02 C 536.48 582.68 536.21 576.34 536.25 570.00 Z" />
<path fill="#2d3451" opacity="1.00" d=" M 419.99 654.01 C 426.99 654.04 433.99 654.00 440.99 654.02 C 440.99 655.67 441.00 657.33 441.01 659.00 C 434.01 658.94 427.00 658.93 420.00 658.99 C 419.99 657.32 419.99 655.66 419.99 654.01 Z" />
</g>
<g id="#31fce8ff">
<path fill="#31fce8" opacity="1.00" d=" M 455.07 347.00 C 495.37 347.00 535.66 347.00 575.96 347.00 C 576.22 350.34 576.62 353.66 577.16 356.97 C 569.79 356.24 562.39 356.74 555.01 356.60 C 525.21 356.50 495.40 356.82 465.61 356.44 C 464.88 386.95 465.61 417.50 465.25 448.02 C 465.41 450.05 464.56 454.09 467.94 453.35 C 508.31 453.36 548.68 453.31 589.05 453.36 C 591.10 453.32 593.15 453.22 595.21 453.11 C 595.87 456.62 596.53 460.13 597.19 463.65 C 549.83 463.73 502.47 463.59 455.11 463.72 C 454.87 424.82 454.87 385.90 455.07 347.00 Z" />
<path fill="#31fce8" opacity="1.00" d=" M 403.06 499.98 C 404.24 499.95 405.43 499.94 406.62 499.96 C 467.69 500.06 528.77 499.96 589.85 500.01 C 595.32 502.12 600.36 506.28 601.93 512.13 C 602.92 517.01 602.19 522.03 602.59 526.97 C 532.05 527.04 461.50 526.98 390.96 527.00 C 381.56 527.00 372.15 526.97 362.75 527.01 L 362.72 525.83 C 372.04 525.20 381.55 526.89 390.72 524.85 C 390.79 519.70 390.61 514.35 392.51 509.47 C 394.72 505.19 398.49 501.60 403.06 499.98 Z" />
<path fill="#31fce8" opacity="1.00" d=" M 390.83 536.97 C 461.40 537.05 531.97 536.96 602.55 537.03 L 603.06 537.02 C 602.99 540.34 602.96 543.67 602.95 547.00 L 602.07 547.00 C 592.23 547.01 582.38 546.97 572.54 547.02 C 522.27 546.97 472.00 547.02 421.73 546.99 C 411.64 546.99 401.55 547.04 391.46 546.96 C 390.82 543.67 390.62 540.31 390.83 536.97 Z" />
</g>
<g id="#2dcfc0ff">
<path fill="#2dcfc0" opacity="1.00" d=" M 575.96 347.00 C 579.65 346.99 583.34 347.00 587.03 347.04 C 587.69 350.40 588.36 353.75 589.01 357.12 C 585.06 357.19 581.10 357.17 577.16 356.97 C 576.62 353.66 576.22 350.34 575.96 347.00 Z" />
<path fill="#2dcfc0" opacity="1.00" d=" M 465.25 448.02 C 465.61 417.50 464.88 386.95 465.61 356.44 C 495.40 356.82 525.21 356.50 555.01 356.60 C 562.39 356.74 569.79 356.24 577.16 356.97 C 580.95 373.00 583.41 389.31 586.63 405.46 C 587.76 414.84 590.78 423.85 591.75 433.25 C 592.82 439.88 594.33 446.44 595.21 453.11 C 593.15 453.22 591.10 453.32 589.05 453.36 C 548.68 453.31 508.31 453.36 467.94 453.35 C 464.56 454.09 465.41 450.05 465.25 448.02 M 488.00 372.07 C 488.00 372.80 488.00 374.26 488.00 375.00 C 515.32 375.01 542.65 375.06 569.97 374.97 C 569.97 374.24 569.97 372.77 569.96 372.04 C 542.64 372.08 515.32 372.03 488.00 372.07 M 488.00 382.00 C 488.00 382.76 488.00 384.26 488.00 385.02 C 516.00 384.80 544.00 384.91 572.01 384.95 C 572.00 384.21 572.00 382.74 572.00 382.01 C 544.00 381.97 516.00 381.99 488.00 382.00 M 488.01 392.99 C 488.00 393.74 487.99 395.24 487.99 395.99 C 516.66 395.99 545.33 395.99 574.00 395.99 C 574.00 395.24 574.00 393.74 574.00 392.99 C 545.33 392.98 516.67 392.98 488.01 392.99 M 488.00 403.00 C 488.00 403.75 488.00 405.24 488.00 405.99 C 517.33 406.01 546.67 405.99 576.01 406.00 C 576.01 405.25 576.01 403.74 576.01 402.99 C 546.67 403.01 517.33 403.00 488.00 403.00 M 488.05 419.88 C 483.86 423.45 483.07 430.25 486.31 434.72 C 488.38 437.80 492.31 438.58 495.77 438.91 L 496.10 438.37 C 502.30 437.67 506.69 430.49 504.24 424.71 C 503.09 421.29 499.78 419.42 496.73 417.94 C 493.78 418.21 490.49 417.87 488.05 419.88 M 532.40 418.53 C 529.96 419.54 528.16 421.55 526.27 423.32 C 526.16 427.43 525.04 432.38 528.44 435.56 C 530.34 438.44 533.98 437.90 536.96 438.17 C 539.64 438.08 542.19 436.93 543.82 434.75 C 548.23 429.73 545.97 420.61 539.35 418.78 C 537.09 418.22 534.65 417.69 532.40 418.53 M 572.69 418.76 C 570.63 419.94 569.09 421.80 567.42 423.44 C 567.25 427.12 566.25 431.35 568.66 434.54 C 571.31 438.77 577.30 439.17 581.66 437.81 L 581.64 437.49 C 584.35 435.85 586.87 433.37 587.19 430.05 C 588.25 425.26 585.06 419.85 580.25 418.78 C 577.80 418.09 575.08 417.63 572.69 418.76 Z" />
<path fill="#2dcfc0" opacity="1.00" d=" M 595.21 453.11 C 599.07 452.88 602.94 452.82 606.81 452.86 C 607.50 456.46 608.33 460.04 608.85 463.68 C 604.96 463.62 601.07 463.61 597.19 463.65 C 596.53 460.13 595.87 456.62 595.21 453.11 Z" />
<path fill="#2dcfc0" opacity="1.00" d=" M 589.85 500.01 C 594.97 500.01 600.10 499.97 605.23 499.99 C 609.11 500.02 612.99 499.88 616.87 499.92 C 623.35 500.23 628.51 505.62 630.56 511.46 C 631.61 516.57 630.80 521.83 630.97 527.00 C 621.51 526.97 612.05 527.03 602.59 526.97 C 602.19 522.03 602.92 517.01 601.93 512.13 C 600.36 506.28 595.32 502.12 589.85 500.01 Z" />
<path fill="#2dcfc0" opacity="1.00" d=" M 603.06 537.02 C 612.36 536.97 621.66 537.03 630.97 536.98 C 630.99 540.32 631.00 543.66 631.01 547.01 C 621.65 547.00 612.30 547.00 602.95 547.00 C 602.96 543.67 602.99 540.34 603.06 537.02 Z" />
</g>
<g id="#29ab9fff">
<path fill="#29ab9f" opacity="1.00" d=" M 577.16 356.97 C 581.10 357.17 585.06 357.19 589.01 357.12 C 594.94 389.03 600.96 420.93 606.81 452.86 C 602.94 452.82 599.07 452.88 595.21 453.11 C 594.33 446.44 592.82 439.88 591.75 433.25 C 590.78 423.85 587.76 414.84 586.63 405.46 C 583.41 389.31 580.95 373.00 577.16 356.97 Z" />
</g>
<g id="#58fdedff">
<path fill="#58fded" opacity="1.00" d=" M 363.47 511.30 C 365.65 505.27 371.29 500.13 377.91 499.82 C 386.29 500.15 394.67 499.97 403.06 499.98 C 398.49 501.60 394.72 505.19 392.51 509.47 C 390.61 514.35 390.79 519.70 390.72 524.85 C 381.55 526.89 372.04 525.20 362.72 525.83 C 362.72 520.99 362.39 516.06 363.47 511.30 Z" />
<path fill="#58fded" opacity="1.00" d=" M 362.76 536.96 C 372.11 537.03 381.47 537.01 390.83 536.97 C 390.62 540.31 390.82 543.67 391.46 546.96 C 381.78 547.08 372.11 546.83 362.44 547.12 C 362.60 543.73 362.68 540.34 362.76 536.96 Z" />
</g>
</svg>
