<?xml version="1.0" encoding="UTF-8" ?>
<!DOCTYPE svg PUBLIC "-//W3C//DTD SVG 1.1//EN" "http://www.w3.org/Graphics/SVG/1.1/DTD/svg11.dtd">
<svg width="1000pt" height="1000pt" viewBox="0 0 1000 1000" version="1.1" xmlns="http://www.w3.org/2000/svg">
<g id="#58fdedff">
<path fill="#58fded" opacity="1.00" d=" M 0.00 0.00 L 0.06 0.00 C 0.05 0.00 0.02 0.01 0.00 0.01 L 0.00 0.00 Z" />
<path fill="#58fded" opacity="1.00" d=" M 374.26 333.44 C 373.88 321.46 383.84 310.12 395.93 309.60 C 405.73 309.47 415.53 309.68 425.33 309.43 C 414.07 311.50 405.37 322.02 405.63 333.50 C 395.17 333.33 384.72 333.44 374.26 333.44 Z" />
<path fill="#58fded" opacity="1.00" d=" M 374.30 345.13 C 384.75 344.98 395.21 345.42 405.65 344.89 C 405.54 353.76 410.48 362.52 418.50 366.49 C 422.92 368.99 428.15 367.79 432.98 367.98 L 433.00 368.89 C 422.73 368.84 412.44 368.42 402.17 368.80 C 396.42 369.23 390.51 368.43 385.46 365.51 C 378.62 361.11 374.18 353.32 374.30 345.13 Z" />
<path fill="#58fded" opacity="1.00" d=" M 402.19 411.67 C 412.68 411.72 423.18 411.78 433.67 411.64 C 433.61 415.49 433.60 419.35 433.58 423.21 C 423.10 422.55 412.59 423.03 402.09 422.89 C 402.21 419.15 402.21 415.41 402.19 411.67 Z" />
<path fill="#58fded" opacity="1.00" d=" M 462.61 576.72 C 473.10 576.56 483.58 576.78 494.06 576.61 L 494.51 576.60 C 495.59 580.54 497.33 584.25 498.95 587.99 C 488.55 587.69 478.14 587.90 467.74 587.88 C 466.70 585.59 465.62 583.33 464.56 581.06 C 463.89 579.61 463.26 578.16 462.61 576.72 Z" />
<path fill="#58fded" opacity="1.00" d=" M 491.82 616.04 C 492.65 612.45 497.17 612.88 498.38 615.98 C 498.13 620.53 498.30 625.09 498.26 629.65 C 498.12 634.42 498.58 639.21 498.06 643.96 C 497.90 646.82 494.24 647.22 492.48 645.54 C 491.61 643.83 491.79 641.85 491.71 640.01 C 491.75 634.33 491.75 628.66 491.74 622.99 C 491.75 620.67 491.74 618.35 491.82 616.04 Z" />
</g>
<g id="#008ab6ff">
<path fill="#008ab6" opacity="1.00" d=" M 379.72 241.57 C 429.37 218.29 485.84 210.12 540.10 217.82 C 578.81 223.23 616.34 236.81 649.57 257.38 C 703.91 290.78 746.44 342.93 768.04 402.97 C 778.16 430.94 783.86 460.52 784.81 490.26 C 783.42 489.30 782.04 488.37 780.80 487.25 C 726.47 432.88 672.07 378.58 617.77 324.19 C 616.61 323.16 615.16 322.55 613.80 321.88 C 609.73 314.85 602.34 309.58 594.05 309.42 C 584.56 309.35 575.08 309.43 565.60 309.45 C 518.84 309.37 472.09 309.42 425.33 309.43 C 415.53 309.68 405.73 309.47 395.93 309.60 C 383.84 310.12 373.88 321.46 374.26 333.44 C 374.30 337.34 374.30 341.24 374.30 345.13 C 374.18 353.32 378.62 361.11 385.46 365.51 C 385.85 367.76 387.63 369.29 389.15 370.85 C 392.96 374.50 396.51 378.43 400.53 381.87 C 400.90 381.36 401.65 380.35 402.02 379.85 C 401.62 383.92 401.57 388.02 401.77 392.11 C 401.91 398.63 402.10 405.15 402.19 411.67 C 402.21 415.41 402.21 419.15 402.09 422.89 C 401.41 436.63 405.22 450.58 412.86 462.03 C 416.85 468.07 422.31 472.92 427.25 478.17 C 418.50 477.62 409.73 477.99 400.97 477.84 C 398.12 477.87 395.19 477.73 392.44 478.58 C 389.67 479.56 387.78 482.07 386.62 484.66 C 383.70 490.25 389.54 495.59 394.45 497.30 C 399.87 501.76 403.96 507.72 409.89 511.60 C 406.26 513.48 404.32 517.23 403.90 521.19 C 404.35 525.84 408.54 528.68 412.55 530.20 C 426.30 543.84 439.93 557.61 453.68 571.26 C 457.18 574.65 460.23 578.63 464.56 581.06 C 465.62 583.33 466.70 585.59 467.74 587.88 C 472.03 596.29 474.37 606.18 481.88 612.47 C 484.45 616.60 488.18 619.75 491.74 622.99 C 491.75 628.66 491.75 634.33 491.71 640.01 C 491.79 641.85 491.61 643.83 492.48 645.54 C 494.24 647.22 497.90 646.82 498.06 643.96 C 498.58 639.21 498.12 634.42 498.26 629.65 C 540.12 672.06 582.67 713.81 624.50 756.25 C 552.90 791.88 465.96 794.31 392.12 763.86 C 333.66 740.08 283.72 696.18 252.49 641.36 C 230.68 603.36 217.91 560.22 215.49 516.47 C 212.30 462.70 224.69 408.07 251.10 361.10 C 280.06 309.10 325.73 266.63 379.72 241.57 M 315.24 612.44 C 313.12 612.74 311.98 615.86 313.56 617.43 C 314.58 618.82 316.43 618.74 317.97 618.78 C 357.99 618.71 398.01 618.84 438.03 618.72 C 440.96 619.10 442.59 615.51 441.01 613.24 C 439.36 611.80 437.03 612.22 435.03 612.13 C 395.10 612.39 355.15 611.77 315.24 612.44 M 314.41 635.50 C 313.08 636.37 312.25 638.29 313.27 639.73 C 314.32 641.91 317.01 641.35 318.97 641.47 C 367.65 641.13 416.34 641.36 465.02 641.27 C 468.95 641.83 468.91 634.60 464.98 635.28 C 414.80 635.51 364.58 635.08 314.41 635.50 M 449.00 658.35 C 449.79 659.91 450.60 661.47 451.42 663.03 C 456.41 660.90 460.54 657.27 465.25 654.63 C 464.74 653.39 463.97 652.29 463.59 651.02 C 458.61 653.22 453.91 656.00 449.00 658.35 M 475.52 664.93 C 472.66 669.41 469.68 673.80 466.69 678.20 C 468.23 679.33 469.87 680.34 471.58 681.23 C 474.07 676.43 476.57 671.65 479.11 666.88 C 477.91 666.22 476.71 665.57 475.52 664.93 M 511.94 668.93 C 514.01 673.32 516.07 677.72 518.24 682.07 C 519.87 681.26 521.49 680.45 523.12 679.64 C 520.64 674.79 517.51 670.30 514.80 665.58 C 513.65 666.45 510.51 666.88 511.94 668.93 M 493.20 670.88 C 492.57 676.18 492.42 681.52 492.25 686.85 C 494.01 686.89 495.77 686.96 497.55 687.01 C 497.48 681.64 497.22 676.27 497.02 670.90 C 495.74 670.85 494.47 670.84 493.20 670.88 Z" />
</g>
<g id="#31fce8ff">
<path fill="#31fce8" opacity="1.00" d=" M 425.33 309.43 C 472.09 309.42 518.84 309.37 565.60 309.45 C 571.04 311.46 576.76 313.94 580.16 318.89 C 583.41 323.09 584.41 328.41 585.34 333.50 C 525.44 333.65 465.53 333.64 405.63 333.50 C 405.37 322.02 414.07 311.50 425.33 309.43 Z" />
<path fill="#31fce8" opacity="1.00" d=" M 405.65 344.89 C 465.57 345.26 525.51 344.95 585.43 345.08 C 584.37 351.90 582.01 358.96 576.42 363.41 C 573.36 365.95 569.65 367.54 565.90 368.78 C 548.28 368.99 530.64 368.55 513.02 369.09 C 486.60 368.63 460.17 368.85 433.75 368.88 L 433.00 368.89 L 432.98 367.98 C 428.15 367.79 422.92 368.99 418.50 366.49 C 410.48 362.52 405.54 353.76 405.65 344.89 Z" />
<path fill="#31fce8" opacity="1.00" d=" M 433.67 411.64 C 474.83 411.50 516.00 411.59 557.16 411.59 C 557.02 415.47 557.00 419.35 557.10 423.23 C 515.93 422.81 474.74 422.91 433.58 423.21 C 433.60 419.35 433.61 415.49 433.67 411.64 Z" />
</g>
<g id="#2dcfc0ff">
<path fill="#2dcfc0" opacity="1.00" d=" M 565.60 309.45 C 575.08 309.43 584.56 309.35 594.05 309.42 C 602.34 309.58 609.73 314.85 613.80 321.88 C 615.49 325.50 616.49 329.44 616.41 333.46 C 606.06 333.43 595.70 333.35 585.34 333.50 C 584.41 328.41 583.41 323.09 580.16 318.89 C 576.76 313.94 571.04 311.46 565.60 309.45 Z" />
<path fill="#2dcfc0" opacity="1.00" d=" M 585.43 345.08 C 595.79 344.95 606.17 345.32 616.52 344.73 C 616.65 353.18 612.07 361.52 604.73 365.75 C 599.76 369.02 593.65 369.01 587.93 368.84 C 580.59 368.81 573.25 368.85 565.90 368.78 C 569.65 367.54 573.36 365.95 576.42 363.41 C 582.01 358.96 584.37 351.90 585.43 345.08 Z" />
<path fill="#2dcfc0" opacity="1.00" d=" M 557.16 411.59 C 567.41 411.57 577.66 411.55 587.91 411.60 C 587.88 415.47 587.85 419.35 587.96 423.24 C 577.67 423.24 567.38 423.26 557.10 423.23 C 557.00 419.35 557.02 415.47 557.16 411.59 Z" />
<path fill="#2dcfc0" opacity="1.00" d=" M 494.51 576.60 C 505.53 576.51 516.56 576.40 527.58 576.66 C 525.82 580.50 524.06 584.35 522.30 588.19 C 514.78 588.13 507.26 588.37 499.75 588.06 L 498.95 587.99 C 497.33 584.25 495.59 580.54 494.51 576.60 Z" />
</g>
<g id="#0068c6ff">
<path fill="#0068c6" opacity="1.00" d=" M 613.80 321.88 C 615.16 322.55 616.61 323.16 617.77 324.19 C 672.07 378.58 726.47 432.88 780.80 487.25 C 782.04 488.37 783.42 489.30 784.81 490.26 C 785.20 501.35 784.97 512.45 784.93 523.54 C 782.30 526.52 785.70 531.49 783.06 534.46 C 782.59 537.06 783.96 540.31 782.08 542.46 C 782.00 544.15 781.98 545.85 781.93 547.55 C 779.77 549.27 782.19 552.68 780.10 554.46 C 779.82 556.11 780.54 558.16 779.15 559.45 C 778.88 560.79 779.37 562.50 778.08 563.46 C 778.01 564.81 777.97 566.17 777.91 567.54 C 776.32 568.77 777.64 571.18 776.12 572.46 C 776.07 572.98 775.95 574.02 775.89 574.55 C 774.37 575.81 775.61 578.17 774.12 579.46 C 774.07 579.98 773.95 581.03 773.89 581.55 C 772.32 582.79 773.65 585.19 772.11 586.45 C 772.05 586.97 771.93 588.02 771.87 588.54 C 771.20 589.40 770.83 590.40 770.76 591.54 C 770.22 592.46 769.88 593.46 769.75 594.53 C 769.18 595.80 768.82 597.14 768.24 598.41 C 767.49 600.04 766.94 601.75 766.25 603.41 C 765.49 605.04 764.99 606.77 764.25 608.41 C 763.50 610.04 762.92 611.75 762.31 613.44 C 761.63 614.76 760.94 616.08 760.22 617.38 C 759.37 619.44 758.61 621.54 757.79 623.62 C 756.49 625.81 755.47 628.15 754.28 630.41 C 753.60 631.73 752.93 633.07 752.34 634.44 C 751.04 636.43 749.57 638.35 748.76 640.63 C 747.81 642.32 746.63 643.88 745.73 645.61 C 744.82 647.33 743.63 648.88 742.72 650.60 C 740.08 655.48 736.44 659.74 733.77 664.60 C 732.88 665.50 732.10 666.49 731.21 667.38 C 730.65 668.99 729.47 670.27 728.19 671.36 C 727.67 672.99 726.46 674.27 725.20 675.37 C 724.54 678.03 721.46 678.96 720.78 681.62 C 719.29 683.24 717.70 684.75 716.22 686.38 C 715.98 686.84 715.51 687.77 715.27 688.23 C 706.46 697.08 697.56 705.86 688.80 714.76 C 688.08 715.40 687.28 715.88 686.38 716.22 C 684.33 717.84 682.95 720.35 680.38 721.22 C 679.15 722.43 677.84 723.56 676.63 724.80 C 675.00 725.33 673.71 726.51 672.64 727.81 C 670.99 728.30 669.72 729.52 668.64 730.81 C 666.99 731.30 665.73 732.53 664.63 733.79 C 659.74 736.41 655.48 740.08 650.60 742.72 C 649.14 743.48 647.84 744.51 646.39 745.27 C 644.67 746.19 643.07 747.29 641.43 748.33 C 638.90 749.29 636.70 750.88 634.43 752.31 C 633.47 752.76 632.53 753.23 631.59 753.70 C 631.08 753.95 630.07 754.46 629.57 754.71 C 628.07 755.43 626.57 756.14 625.08 756.87 L 624.50 756.25 C 582.67 713.81 540.12 672.06 498.26 629.65 C 498.30 625.09 498.13 620.53 498.38 615.98 C 503.20 615.57 507.44 613.01 510.99 609.88 C 516.39 603.64 518.58 595.43 522.30 588.19 C 524.06 584.35 525.82 580.50 527.58 576.66 C 534.91 561.02 541.90 545.23 549.31 529.62 C 556.86 530.29 564.44 529.95 572.01 530.09 C 575.15 530.00 578.60 530.17 581.34 528.36 C 584.72 526.16 587.18 521.71 585.40 517.75 C 584.25 513.63 580.27 510.80 576.02 510.94 C 568.45 510.79 560.88 510.77 553.32 510.99 C 553.43 506.27 553.44 501.54 553.30 496.82 C 566.85 497.26 580.42 497.01 593.98 497.00 C 600.05 497.33 605.60 490.55 603.33 484.79 C 601.96 480.88 598.32 477.75 594.03 478.00 C 583.65 477.75 573.25 477.74 562.87 478.22 C 567.57 473.12 572.95 468.58 576.80 462.75 C 584.83 451.32 588.61 437.14 587.96 423.24 C 587.85 419.35 587.88 415.47 587.91 411.60 C 587.97 405.01 587.72 398.41 588.03 391.83 C 588.33 387.92 588.34 384.00 588.02 380.09 C 587.80 376.35 587.88 372.59 587.93 368.84 C 593.65 369.01 599.76 369.02 604.73 365.75 C 612.07 361.52 616.65 353.18 616.52 344.73 C 616.44 340.97 616.34 337.21 616.41 333.46 C 616.49 329.44 615.49 325.50 613.80 321.88 M 549.32 612.43 C 546.12 612.89 546.69 619.01 550.14 618.57 C 590.09 618.97 630.06 618.64 670.02 618.79 C 671.62 618.66 673.58 619.05 674.85 617.78 C 676.69 616.29 675.89 612.88 673.60 612.33 C 672.06 612.08 670.51 612.14 668.98 612.14 C 629.09 612.37 589.20 611.82 549.32 612.43 M 522.41 635.48 C 519.66 636.57 520.67 641.95 523.89 641.42 C 572.91 641.32 621.94 641.11 670.96 641.49 C 673.27 641.83 676.27 640.81 675.82 637.96 C 675.84 634.86 672.15 635.03 669.97 635.03 C 646.30 635.55 622.63 635.26 598.96 635.33 C 575.98 635.22 552.99 635.61 530.02 635.05 C 527.48 635.08 524.87 634.75 522.41 635.48 M 525.50 655.79 C 530.02 658.72 534.23 662.11 538.81 664.97 C 539.79 663.41 540.77 661.86 541.75 660.31 C 537.16 657.57 532.38 655.17 527.89 652.30 C 526.96 653.37 526.08 654.48 525.50 655.79 Z" />
<path fill="#0068c6" opacity="1.00" d=" M 389.15 370.85 C 387.63 369.29 385.85 367.76 385.46 365.51 C 390.51 368.43 396.42 369.23 402.17 368.80 C 402.20 372.48 402.20 376.16 402.02 379.85 C 401.65 380.35 400.90 381.36 400.53 381.87 C 396.51 378.43 392.96 374.50 389.15 370.85 Z" />
<path fill="#0068c6" opacity="1.00" d=" M 394.45 497.30 C 408.51 496.64 422.60 497.40 436.67 496.87 C 436.72 501.59 436.75 506.32 436.75 511.05 C 427.82 510.98 418.74 510.15 409.89 511.60 C 403.96 507.72 399.87 501.76 394.45 497.30 Z" />
<path fill="#0068c6" opacity="1.00" d=" M 412.55 530.20 C 422.12 529.78 431.71 530.34 441.27 529.86 C 448.03 545.64 455.53 561.09 462.61 576.72 C 463.26 578.16 463.89 579.61 464.56 581.06 C 460.23 578.63 457.18 574.65 453.68 571.26 C 439.93 557.61 426.30 543.84 412.55 530.20 Z" />
<path fill="#0068c6" opacity="1.00" d=" M 481.88 612.47 C 484.94 614.27 488.30 615.52 491.82 616.04 C 491.74 618.35 491.75 620.67 491.74 622.99 C 488.18 619.75 484.45 616.60 481.88 612.47 Z" />
</g>
<g id="#5a6080ff">
<path fill="#5a6080" opacity="1.00" d=" M 374.26 333.44 C 384.72 333.44 395.17 333.33 405.63 333.50 C 405.88 337.29 405.89 341.10 405.65 344.89 C 395.21 345.42 384.75 344.98 374.30 345.13 C 374.30 341.24 374.30 337.34 374.26 333.44 Z" />
<path fill="#5a6080" opacity="1.00" d=" M 402.17 368.80 C 412.44 368.42 422.73 368.84 433.00 368.89 L 433.75 368.88 C 433.66 372.58 433.71 376.29 433.90 380.00 L 433.06 379.97 C 422.72 379.71 412.37 379.94 402.02 379.85 C 402.20 376.16 402.20 372.48 402.17 368.80 Z" />
<path fill="#5a6080" opacity="1.00" d=" M 401.77 392.11 C 412.18 391.97 422.60 392.29 433.01 391.81 L 433.85 391.79 C 433.60 398.40 433.76 405.02 433.67 411.64 C 423.18 411.78 412.68 411.72 402.19 411.67 C 402.10 405.15 401.91 398.63 401.77 392.11 Z" />
<path fill="#5a6080" opacity="1.00" d=" M 402.09 422.89 C 412.59 423.03 423.10 422.55 433.58 423.21 C 433.25 437.40 437.12 451.82 445.55 463.35 C 449.46 468.90 454.67 473.31 459.30 478.23 C 448.62 478.19 437.93 478.51 427.25 478.17 C 422.31 472.92 416.85 468.07 412.86 462.03 C 405.22 450.58 401.41 436.63 402.09 422.89 Z" />
<path fill="#5a6080" opacity="1.00" d=" M 436.67 496.87 C 447.38 496.26 458.11 496.65 468.83 496.61 C 468.50 501.51 468.48 506.42 468.80 511.33 C 458.12 511.17 447.42 511.66 436.75 511.05 C 436.75 506.32 436.72 501.59 436.67 496.87 Z" />
<path fill="#5a6080" opacity="1.00" d=" M 441.27 529.86 C 451.77 529.13 462.31 529.56 472.83 529.63 C 479.55 545.44 487.32 560.80 494.06 576.61 C 483.58 576.78 473.10 576.56 462.61 576.72 C 455.53 561.09 448.03 545.64 441.27 529.86 Z" />
<path fill="#5a6080" opacity="1.00" d=" M 467.74 587.88 C 478.14 587.90 488.55 587.69 498.95 587.99 L 499.75 588.06 C 502.92 595.57 505.55 603.64 510.99 609.88 C 507.44 613.01 503.20 615.57 498.38 615.98 C 497.17 612.88 492.65 612.45 491.82 616.04 C 488.30 615.52 484.94 614.27 481.88 612.47 C 474.37 606.18 472.03 596.29 467.74 587.88 Z" />
</g>
<g id="#2f385cff">
<path fill="#2f385c" opacity="1.00" d=" M 405.63 333.50 C 465.53 333.64 525.44 333.65 585.34 333.50 C 595.70 333.35 606.06 333.43 616.41 333.46 C 616.34 337.21 616.44 340.97 616.52 344.73 C 606.17 345.32 595.79 344.95 585.43 345.08 C 525.51 344.95 465.57 345.26 405.65 344.89 C 405.89 341.10 405.88 337.29 405.63 333.50 Z" />
<path fill="#2f385c" opacity="1.00" d=" M 433.75 368.88 C 460.17 368.85 486.60 368.63 513.02 369.09 C 530.64 368.55 548.28 368.99 565.90 368.78 C 573.25 368.85 580.59 368.81 587.93 368.84 C 587.88 372.59 587.80 376.35 588.02 380.09 C 577.75 380.13 567.48 380.10 557.22 380.11 C 516.11 380.19 475.00 380.41 433.90 380.00 C 433.71 376.29 433.66 372.58 433.75 368.88 Z" />
<path fill="#2f385c" opacity="1.00" d=" M 433.85 391.79 C 474.96 391.56 516.08 391.72 557.20 391.71 C 567.48 391.92 577.75 391.74 588.03 391.83 C 587.72 398.41 587.97 405.01 587.91 411.60 C 577.66 411.55 567.41 411.57 557.16 411.59 C 516.00 411.59 474.83 411.50 433.67 411.64 C 433.76 405.02 433.60 398.40 433.85 391.79 Z" />
<path fill="#2f385c" opacity="1.00" d=" M 433.58 423.21 C 474.74 422.91 515.93 422.81 557.10 423.23 C 567.38 423.26 577.67 423.24 587.96 423.24 C 588.61 437.14 584.83 451.32 576.80 462.75 C 572.95 468.58 567.57 473.12 562.87 478.22 C 528.35 478.40 493.82 478.26 459.30 478.23 C 454.67 473.31 449.46 468.90 445.55 463.35 C 437.12 451.82 433.25 437.40 433.58 423.21 Z" />
<path fill="#2f385c" opacity="1.00" d=" M 468.83 496.61 C 496.98 497.51 525.15 496.34 553.30 496.82 C 553.44 501.54 553.43 506.27 553.32 510.99 C 525.17 511.77 496.97 511.12 468.80 511.33 C 468.48 506.42 468.50 501.51 468.83 496.61 Z" />
<path fill="#2f385c" opacity="1.00" d=" M 472.83 529.63 C 481.22 529.46 489.63 529.44 498.03 529.55 C 515.12 529.90 532.22 529.40 549.31 529.62 C 541.90 545.23 534.91 561.02 527.58 576.66 C 516.56 576.40 505.53 576.51 494.51 576.60 L 494.06 576.61 C 487.32 560.80 479.55 545.44 472.83 529.63 Z" />
<path fill="#2f385c" opacity="1.00" d=" M 499.75 588.06 C 507.26 588.37 514.78 588.13 522.30 588.19 C 518.58 595.43 516.39 603.64 510.99 609.88 C 505.55 603.64 502.92 595.57 499.75 588.06 Z" />
<path fill="#2f385c" opacity="1.00" d=" M 315.24 612.44 C 355.15 611.77 395.10 612.39 435.03 612.13 C 437.03 612.22 439.36 611.80 441.01 613.24 C 442.59 615.51 440.96 619.10 438.03 618.72 C 398.01 618.84 357.99 618.71 317.97 618.78 C 316.43 618.74 314.58 618.82 313.56 617.43 C 311.98 615.86 313.12 612.74 315.24 612.44 Z" />
<path fill="#2f385c" opacity="1.00" d=" M 549.32 612.43 C 589.20 611.82 629.09 612.37 668.98 612.14 C 670.51 612.14 672.06 612.08 673.60 612.33 C 675.89 612.88 676.69 616.29 674.85 617.78 C 673.58 619.05 671.62 618.66 670.02 618.79 C 630.06 618.64 590.09 618.97 550.14 618.57 C 546.69 619.01 546.12 612.89 549.32 612.43 Z" />
<path fill="#2f385c" opacity="1.00" d=" M 314.41 635.50 C 364.58 635.08 414.80 635.51 464.98 635.28 C 468.91 634.60 468.95 641.83 465.02 641.27 C 416.34 641.36 367.65 641.13 318.97 641.47 C 317.01 641.35 314.32 641.91 313.27 639.73 C 312.25 638.29 313.08 636.37 314.41 635.50 Z" />
<path fill="#2f385c" opacity="1.00" d=" M 522.41 635.48 C 524.87 634.75 527.48 635.08 530.02 635.05 C 552.99 635.61 575.98 635.22 598.96 635.33 C 622.63 635.26 646.30 635.55 669.97 635.03 C 672.15 635.03 675.84 634.86 675.82 637.96 C 676.27 640.81 673.27 641.83 670.96 641.49 C 621.94 641.11 572.91 641.32 523.89 641.42 C 520.67 641.95 519.66 636.57 522.41 635.48 Z" />
<path fill="#2f385c" opacity="1.00" d=" M 449.00 658.35 C 453.91 656.00 458.61 653.22 463.59 651.02 C 463.97 652.29 464.74 653.39 465.25 654.63 C 460.54 657.27 456.41 660.90 451.42 663.03 C 450.60 661.47 449.79 659.91 449.00 658.35 Z" />
<path fill="#2f385c" opacity="1.00" d=" M 525.50 655.79 C 526.08 654.48 526.96 653.37 527.89 652.30 C 532.38 655.17 537.16 657.57 541.75 660.31 C 540.77 661.86 539.79 663.41 538.81 664.97 C 534.23 662.11 530.02 658.72 525.50 655.79 Z" />
<path fill="#2f385c" opacity="1.00" d=" M 475.52 664.93 C 476.71 665.57 477.91 666.22 479.11 666.88 C 476.57 671.65 474.07 676.43 471.58 681.23 C 469.87 680.34 468.23 679.33 466.69 678.20 C 469.68 673.80 472.66 669.41 475.52 664.93 Z" />
<path fill="#2f385c" opacity="1.00" d=" M 511.94 668.93 C 510.51 666.88 513.65 666.45 514.80 665.58 C 517.51 670.30 520.64 674.79 523.12 679.64 C 521.49 680.45 519.87 681.26 518.24 682.07 C 516.07 677.72 514.01 673.32 511.94 668.93 Z" />
<path fill="#2f385c" opacity="1.00" d=" M 493.20 670.88 C 494.47 670.84 495.74 670.85 497.02 670.90 C 497.22 676.27 497.48 681.64 497.55 687.01 C 495.77 686.96 494.01 686.89 492.25 686.85 C 492.42 681.52 492.57 676.18 493.20 670.88 Z" />
</g>
<g id="#009f63ff">
<path fill="#009f63" opacity="1.00" d=" M 402.02 379.85 C 412.37 379.94 422.72 379.71 433.06 379.97 C 433.09 383.91 433.07 387.86 433.01 391.81 C 422.60 392.29 412.18 391.97 401.77 392.11 C 401.57 388.02 401.62 383.92 402.02 379.85 Z" />
</g>
<g id="#11a42fff">
<path fill="#11a42f" opacity="1.00" d=" M 433.06 379.97 L 433.90 380.00 C 475.00 380.41 516.11 380.19 557.22 380.11 C 557.28 383.97 557.28 387.84 557.20 391.71 C 516.08 391.72 474.96 391.56 433.85 391.79 L 433.01 391.81 C 433.07 387.86 433.09 383.91 433.06 379.97 Z" />
<path fill="#11a42f" opacity="1.00" d=" M 392.44 478.58 C 395.19 477.73 398.12 477.87 400.97 477.84 C 409.73 477.99 418.50 477.62 427.25 478.17 C 437.93 478.51 448.62 478.19 459.30 478.23 C 493.82 478.26 528.35 478.40 562.87 478.22 C 573.25 477.74 583.65 477.75 594.03 478.00 C 598.32 477.75 601.96 480.88 603.33 484.79 C 603.38 485.63 603.49 487.31 603.55 488.15 C 531.17 488.35 458.79 488.18 386.42 488.19 C 386.47 487.31 386.57 485.54 386.62 484.66 C 387.78 482.07 389.67 479.56 392.44 478.58 Z" />
<path fill="#11a42f" opacity="1.00" d=" M 409.89 511.60 C 418.74 510.15 427.82 510.98 436.75 511.05 C 447.42 511.66 458.12 511.17 468.80 511.33 C 496.97 511.12 525.17 511.77 553.32 510.99 C 560.88 510.77 568.45 510.79 576.02 510.94 C 580.27 510.80 584.25 513.63 585.40 517.75 C 585.43 518.63 585.48 520.40 585.51 521.28 C 524.97 521.21 464.44 521.38 403.90 521.19 C 404.32 517.23 406.26 513.48 409.89 511.60 Z" />
</g>
<g id="#009692ff">
<path fill="#009692" opacity="1.00" d=" M 557.22 380.11 C 567.48 380.10 577.75 380.13 588.02 380.09 C 588.34 384.00 588.33 387.92 588.03 391.83 C 577.75 391.74 567.48 391.92 557.20 391.71 C 557.28 387.84 557.28 383.97 557.22 380.11 Z" />
<path fill="#009692" opacity="1.00" d=" M 394.45 497.30 C 389.54 495.59 383.70 490.25 386.62 484.66 C 386.57 485.54 386.47 487.31 386.42 488.19 C 458.79 488.18 531.17 488.35 603.55 488.15 C 603.49 487.31 603.38 485.63 603.33 484.79 C 605.60 490.55 600.05 497.33 593.98 497.00 C 580.42 497.01 566.85 497.26 553.30 496.82 C 525.15 496.34 496.98 497.51 468.83 496.61 C 458.11 496.65 447.38 496.26 436.67 496.87 C 422.60 497.40 408.51 496.64 394.45 497.30 Z" />
<path fill="#009692" opacity="1.00" d=" M 585.40 517.75 C 587.18 521.71 584.72 526.16 581.34 528.36 C 578.60 530.17 575.15 530.00 572.01 530.09 C 564.44 529.95 556.86 530.29 549.31 529.62 C 532.22 529.40 515.12 529.90 498.03 529.55 C 489.63 529.44 481.22 529.46 472.83 529.63 C 462.31 529.56 451.77 529.13 441.27 529.86 C 431.71 530.34 422.12 529.78 412.55 530.20 C 408.54 528.68 404.35 525.84 403.90 521.19 C 464.44 521.38 524.97 521.21 585.51 521.28 C 585.48 520.40 585.43 518.63 585.40 517.75 Z" />
</g>
</svg>
