<svg viewBox="0 0 96 96" xmlns="http://www.w3.org/2000/svg" xmlns:xlink="http://www.w3.org/1999/xlink" id="Icons_NervousFaceOutline" overflow="hidden"><path d="M59 63 37 63C35.8954 63 35 63.8954 35 65 35 66.1046 35.8954 67 37 67L59 67C60.1046 67 61 66.1046 61 65 61 63.8954 60.1046 63 59 63Z" fill="#0070C0"/><path d="M48 14C66.7777 14 82 29.2223 82 48 82 66.7777 66.7777 82 48 82 29.2223 82 14 66.7777 14 48 14 29.2223 29.2223 14 48 14M48 10C27.0132 10 10 27.0132 10 48 10 68.9868 27.0132 86 48 86 68.9868 86 86 68.9868 86 48 86 27.0132 68.9868 10 48 10Z" fill="#0070C0"/><path d="M29.53 33.66C27.5413 36.1287 27.9304 39.7422 30.3991 41.7309 32.8678 43.7197 36.4813 43.3306 38.47 40.8619 40.1633 38.7598 40.1633 35.762 38.47 33.66 35.6771 32.1667 32.3229 32.1667 29.53 33.66Z" fill="#0070C0"/><path d="M34 34.54C38.1421 34.5401 41.5 37.898 41.4999 42.0401 41.4998 46.1822 38.1419 49.5401 33.9998 49.54 29.8577 49.5399 26.4998 46.182 26.4999 42.0399 26.4999 42.0266 26.4999 42.0133 26.5 42 26.5055 37.8601 29.8601 34.5055 34 34.5M34 32.5C28.7533 32.5 24.5 36.7533 24.5 42 24.5 47.2467 28.7533 51.5 34 51.5 39.2467 51.5 43.5 47.2467 43.5 42 43.5 36.7533 39.2467 32.5 34 32.5Z" fill="#0070C0"/><path d="M58.53 33.66C56.5413 36.1287 56.9304 39.7422 59.3991 41.7309 61.8678 43.7197 65.4813 43.3306 67.47 40.8619 69.1633 38.7598 69.1633 35.762 67.47 33.66 64.6771 32.1667 61.3229 32.1667 58.53 33.66Z" fill="#0070C0"/><path d="M63 34.54C67.1421 34.5401 70.5 37.898 70.4999 42.0401 70.4998 46.1822 67.1419 49.5401 62.9998 49.54 58.8577 49.5399 55.4998 46.182 55.4999 42.0399 55.4999 42.0266 55.4999 42.0133 55.5 42 55.5055 37.8601 58.8601 34.5055 63 34.5M63 32.5C57.7533 32.5 53.5 36.7533 53.5 42 53.5 47.2467 57.7533 51.5 63 51.5 68.2467 51.5 72.5 47.2467 72.5 42 72.5 36.7533 68.2467 32.5 63 32.5Z" fill="#0070C0"/></svg>