<svg viewBox="0 0 96 96" xmlns="http://www.w3.org/2000/svg" xmlns:xlink="http://www.w3.org/1999/xlink" id="Icons_AngryFaceOutline" overflow="hidden"><g><path d="M48 14C66.7 14 82 29.3 82 48 82 66.7 66.7 82 48 82 29.3 82 14 66.7 14 48 14 29.3 29.3 14 48 14M48 10C27 10 10 27 10 48 10 69 27 86 48 86 69 86 86 69 86 48 86 27 69 10 48 10L48 10Z" fill="#C00000"/></g><path d="M48 61C41.9 61 36.8 65.6 36.1 71.5 39.3 68.7 43.4 67 48 67 52.6 67 56.7 68.7 59.9 71.5 59.2 65.6 54.1 61 48 61Z" fill="#C00000"/><g><circle cx="32" cy="44.7" r="6" fill="#C00000"/><path d="M27.6 33C27.9 32.9 34.1 31.2 38.5 36.4 38.9 36.9 39.5 37.1 40 37.1 40.5 37.1 40.9 36.9 41.3 36.6 42.1 35.9 42.2 34.6 41.5 33.8 35.3 26.7 26.8 29.1 26.4 29.2 25.3 29.5 24.7 30.6 25.1 31.7 25.4 32.7 26.5 33.3 27.6 33Z" fill="#C00000"/><path d="M69.6 29.2C69.2 29.1 60.7 26.7 54.5 33.8 53.8 34.6 53.9 35.9 54.7 36.6 55.1 36.9 55.5 37.1 56 37.1 56.6 37.1 57.1 36.9 57.5 36.4 62 31.3 68.1 32.9 68.4 33 69.5 33.3 70.6 32.7 70.9 31.6 71.2 30.6 70.6 29.5 69.6 29.2Z" fill="#C00000"/><circle cx="64" cy="44.7" r="6" fill="#C00000"/></g><g id="Icons_Layer_2"><g display="none"><path d="M114.7 11.3C133.4 11.3 148.7 26.6 148.7 45.3 148.7 64 133.4 79.3 114.7 79.3 96 79.3 80.7 64 80.7 45.3 80.7 26.6 96 11.3 114.7 11.3M114.7 7.3C93.7 7.3 76.7 24.3 76.7 45.3 76.7 66.3 93.7 83.3 114.7 83.3 135.7 83.3 152.7 66.3 152.7 45.3 152.7 24.3 135.7 7.3 114.7 7.3L114.7 7.3Z" fill="#C00000"/></g></g><g id="Icons_Layer_3" display="none"></g></svg>