<svg width="71" height="70" xmlns="http://www.w3.org/2000/svg" xmlns:xlink="http://www.w3.org/1999/xlink" overflow="hidden"><defs><clipPath id="clip0"><path d="M355 120 426 120 426 190 355 190Z" fill-rule="evenodd" clip-rule="evenodd"/></clipPath><clipPath id="clip1"><path d="M356 120 425 120 425 189 356 189Z" fill-rule="evenodd" clip-rule="evenodd"/></clipPath><clipPath id="clip2"><path d="M356 120 425 120 425 189 356 189Z" fill-rule="evenodd" clip-rule="evenodd"/></clipPath><clipPath id="clip3"><path d="M356 120 425 120 425 189 356 189Z" fill-rule="evenodd" clip-rule="evenodd"/></clipPath><clipPath id="clip4"><path d="M356 135 394 135 394 174 356 174Z" fill-rule="evenodd" clip-rule="evenodd"/></clipPath><clipPath id="clip5"><path d="M356 135 394 135 394 174 356 174Z" fill-rule="evenodd" clip-rule="evenodd"/></clipPath><clipPath id="clip6"><path d="M356 135 394 135 394 174 356 174Z" fill-rule="evenodd" clip-rule="evenodd"/></clipPath><clipPath id="clip7"><path d="M381 148 420 148 420 186 381 186Z" fill-rule="evenodd" clip-rule="evenodd"/></clipPath><clipPath id="clip8"><path d="M381 148 420 148 420 186 381 186Z" fill-rule="evenodd" clip-rule="evenodd"/></clipPath><clipPath id="clip9"><path d="M381 148 420 148 420 186 381 186Z" fill-rule="evenodd" clip-rule="evenodd"/></clipPath></defs><g clip-path="url(#clip0)" transform="translate(-355 -120)"><g clip-path="url(#clip1)"><g clip-path="url(#clip2)"><g clip-path="url(#clip3)"><path d="M417.669 139.55C417.094 137.034 414.794 135.094 412.063 135.094L408.109 135.094 407.319 139.694C407.247 140.125 407.247 140.628 407.462 141.059 407.75 141.706 408.397 142.137 409.044 142.281 409.763 142.425 410.481 142.209 410.984 141.634 411.272 141.275 411.487 140.844 411.559 140.413L412.063 137.681C412.134 137.322 412.494 137.034 412.925 137.106 413.284 137.178 413.572 137.538 413.5 137.969L413.069 140.628C412.925 141.634 412.35 142.569 411.487 143.144 410.913 143.575 410.194 143.719 409.475 143.719 409.259 143.719 409.044 143.719 408.828 143.647 407.75 143.431 406.888 142.856 406.313 141.922 405.881 141.131 405.737 140.269 405.881 139.406L406.528 135.597 401.497 141.131C400.491 142.281 398.909 143 397.328 143L376.844 143C374.975 143 373.25 143.719 371.956 144.941 369.513 144.509 365.416 143.216 362.972 139.119 362.397 138.113 361.103 137.681 360.097 138.184 358.947 138.759 358.587 140.125 359.234 141.203 362.109 146.091 366.566 148.031 369.872 148.894 369.728 149.325 369.656 149.756 369.656 150.188L369.656 171.678C369.656 172.756 370.375 173.691 371.381 173.906 372.747 174.194 373.969 173.116 373.969 171.822L373.969 158.094 383.744 158.094C385.253 159.387 387.984 160.25 391.219 160.25 391.219 160.25 392.441 160.25 394.094 160.25L394.094 171.606C394.094 172.756 394.956 173.834 396.106 173.906 397.328 173.978 398.406 172.972 398.406 171.75L398.406 160.25 401.281 160.25 401.281 171.678C401.281 172.756 402 173.691 403.006 173.906 404.372 174.194 405.594 173.116 405.594 171.822L405.594 158.453C407.319 156.297 408.469 153.063 408.469 153.063L411.344 145.875 417.813 145.875C420.184 145.875 422.125 143.934 422.125 141.563L417.669 139.55Z" fill="#767171"/><path d="M376.844 171.031C376.844 172.253 377.778 173.188 379 173.188 380.222 173.188 381.156 172.253 381.156 171.031L381.156 158.813 376.844 158.813 376.844 171.031Z" fill="#767171"/></g></g></g><g clip-path="url(#clip4)"><g clip-path="url(#clip5)"><g clip-path="url(#clip6)"><path d="M34.0812 6.25417 13.8146 25.4125 4.07708 15.4375 0.7125 18.6437 13.6563 31.9438 17.0604 28.7771 37.2875 9.57917Z" fill="#00B050" transform="matrix(1 0 -0 1.02632 356 135)"/></g></g></g><g clip-path="url(#clip7)"><g clip-path="url(#clip8)"><g clip-path="url(#clip9)"><path d="M33.0125 8.35208 29.6479 4.9875 19 15.6354 8.35208 4.9875 4.9875 8.35208 15.6354 19 4.9875 29.6479 8.35208 33.0125 19 22.3646 29.6479 33.0125 33.0125 29.6479 22.3646 19Z" fill="#FF0000" transform="matrix(1.02632 0 -0 1 381 148)"/></g></g></g></g></svg>