<svg width="70" height="74" xmlns="http://www.w3.org/2000/svg" xmlns:xlink="http://www.w3.org/1999/xlink" overflow="hidden"><defs><clipPath id="clip0"><path d="M541 120 611 120 611 194 541 194Z" fill-rule="evenodd" clip-rule="evenodd"/></clipPath><clipPath id="clip1"><path d="M541 120 610 120 610 189 541 189Z" fill-rule="evenodd" clip-rule="evenodd"/></clipPath><clipPath id="clip2"><path d="M541 120 610 120 610 189 541 189Z" fill-rule="evenodd" clip-rule="evenodd"/></clipPath><clipPath id="clip3"><path d="M541 120 610 120 610 189 541 189Z" fill-rule="evenodd" clip-rule="evenodd"/></clipPath><clipPath id="clip4"><path d="M541 143 580 143 580 181 541 181Z" fill-rule="evenodd" clip-rule="evenodd"/></clipPath><clipPath id="clip5"><path d="M541 143 580 143 580 181 541 181Z" fill-rule="evenodd" clip-rule="evenodd"/></clipPath><clipPath id="clip6"><path d="M541 143 580 143 580 181 541 181Z" fill-rule="evenodd" clip-rule="evenodd"/></clipPath><clipPath id="clip7"><path d="M567 155 605 155 605 193 567 193Z" fill-rule="evenodd" clip-rule="evenodd"/></clipPath><clipPath id="clip8"><path d="M567 155 605 155 605 193 567 193Z" fill-rule="evenodd" clip-rule="evenodd"/></clipPath><clipPath id="clip9"><path d="M567 155 605 155 605 193 567 193Z" fill-rule="evenodd" clip-rule="evenodd"/></clipPath></defs><g clip-path="url(#clip0)" transform="translate(-541 -120)"><g clip-path="url(#clip1)"><g clip-path="url(#clip2)"><g clip-path="url(#clip3)"><path d="M558.969 145.444C552.213 145.444 546.463 151.309 544.27 153.86 543.718 154.523 543.745 155.494 544.335 156.124 546.57 158.446 552.277 163.556 558.969 163.556 565.66 163.556 571.36 158.446 573.595 156.132 574.192 155.502 574.22 154.523 573.66 153.86 571.475 151.309 565.718 145.444 558.969 145.444ZM554.735 149.268C551.847 151.598 551.394 155.829 553.725 158.718 554.12 159.206 554.581 159.638 555.095 159.998 552.133 158.873 549.44 157.139 547.188 154.91 549.309 152.551 551.873 150.634 554.735 149.268ZM562.843 159.998C565.881 157.86 566.61 153.663 564.471 150.625 564.113 150.116 563.686 149.659 563.202 149.268 566.064 150.635 568.628 152.552 570.749 154.91 568.496 157.138 565.804 158.871 562.843 159.998Z" fill="#767171"/><path d="M606.723 153.86C604.566 151.309 598.816 145.444 592.031 145.444 585.246 145.444 579.525 151.309 577.333 153.86 576.78 154.523 576.808 155.494 577.398 156.124 579.633 158.446 585.34 163.556 592.031 163.556 598.723 163.556 604.422 158.446 606.658 156.132 607.255 155.502 607.283 154.523 606.723 153.86ZM587.798 149.268C584.909 151.598 584.457 155.829 586.788 158.718 587.182 159.206 587.643 159.638 588.157 159.998 585.195 158.873 582.502 157.139 580.251 154.91 582.371 152.551 584.936 150.634 587.798 149.268ZM595.905 159.998C598.944 157.86 599.673 153.663 597.534 150.625 597.176 150.116 596.749 149.659 596.265 149.268 599.126 150.635 601.691 152.552 603.812 154.91 601.559 157.138 598.866 158.871 595.905 159.998Z" fill="#767171"/></g></g></g><g clip-path="url(#clip4)"><g clip-path="url(#clip5)"><g clip-path="url(#clip6)"><path d="M34.0812 6.25417 13.8146 25.4125 4.07708 15.4375 0.7125 18.6437 13.6563 31.9438 17.0604 28.7771 37.2875 9.57917Z" fill="#00B050" transform="matrix(1.02632 0 -0 1 541 143)"/></g></g></g><g clip-path="url(#clip7)"><g clip-path="url(#clip8)"><g clip-path="url(#clip9)"><path d="M600.013 163.352 596.648 159.988 586 170.635 575.352 159.988 571.987 163.352 582.635 174 571.987 184.648 575.352 188.012 586 177.365 596.648 188.012 600.013 184.648 589.365 174Z" fill="#FF0000"/></g></g></g></g></svg>